<?xml version="1.0" encoding="utf-8"?>
<!-- Generator: Adobe Illustrator 28.3.0, SVG Export Plug-In . SVG Version: 6.00 Build 0)  -->
<svg version="1.1" id="Layer_1" xmlns="http://www.w3.org/2000/svg" xmlns:xlink="http://www.w3.org/1999/xlink" x="0px" y="0px"
	 viewBox="0 0 1652.8 327.7" style="enable-background:new 0 0 1652.8 327.7;" xml:space="preserve">
<g>
	<path d="M994.1,40.9c0,0,131.9-0.1,178.9,0c18.8,0,36.9,3,52.8,14c30.2,20.9,28,63.2-4.2,80.9c-10,5.5-21.1,7.9-33,10
		c7.9,11.4,15.4,22.2,22.9,32.9c7.5,10.8,23,33.1,23,33.1h-40.6l-44.8-64.6h-117.9V212h-37.1V40.9z M1031.4,121.7
		c0,0,91.4-0.3,135.2-0.3c7.2,0,14.3-0.6,21.3-2.5c13.4-3.7,20.4-11.3,20.8-22.9c0.4-12.9-6.3-21.7-19.7-26c-9.3-3-19-3.4-28.6-3.4
		c-41.1,0-128.9,0.2-128.9,0.2V121.7z"/>
	<polygon points="702.5,176.1 677.8,212.1 637,212.1 737.9,67.1 758.1,96.5 721,149.8 835.4,149.8 761.8,43.2 801.9,43.2 973,289.4 
		932.1,289.4 854,176.1 	"/>
	<polygon points="53.9,43.1 90.9,43.1 90.9,131.5 249,43 302.1,42.9 200.2,100.4 277.7,212 237.1,212 171.5,117.1 90.9,162.3 
		90.9,213.9 53.9,213.9 	"/>
	<polygon points="1471,41.2 1589.5,212 1548.7,212 1523.1,174.2 1371.5,174.2 1345.9,212 1305.1,212 1407.2,64.8 1427.3,94.5 
		1390.1,147.9 1504.6,147.9 1430.9,41.2 	"/>
	<polygon points="383.3,41 420.4,41 420.4,176.8 583.7,176.8 583.7,211.9 383.3,211.9 	"/>
	<g>
		<path d="M1009.3,237.5h-16v-5.8h38.9v5.8h-16.1v46.8h-6.9V237.5z"/>
		<path d="M1072.9,284.5l4-6.8c-3.7-4.8-5.8-11.6-5.8-19.5c0-16.6,8.7-27.5,20.3-27.5c4,0,7.8,1.4,11,4.2l3.8-6.3l3.5,2.8l-4,6.7
			c3.7,4.8,5.7,11.6,5.7,19.3c0,18.3-9.5,27.6-20,27.6c-4.1,0-8-1.5-11.1-4.2l-4.1,6.7L1072.9,284.5z M1099.5,239.9
			c-2.2-2.3-5-3.7-8.3-3.7c-9.5,0-14.3,10.6-14.3,21.7c0,5.9,1.2,10.1,3.2,14.1l0.1-0.1L1099.5,239.9z M1083,276
			c2.2,2.4,4.6,3.7,8.2,3.7c9.1,0,14.3-10.1,14.3-21.9c0-4.5-0.8-9.2-3.1-13.7h-0.2L1083,276z"/>
		<path d="M1151.3,284.3v-52.6h6.6l14.8,26.6c3.4,6.2,6.1,11.7,8.2,17.1l0.2-0.1c-0.5-7-0.7-13.4-0.7-21.6v-22h5.6v52.6h-6
			l-14.7-26.7c-3.2-5.9-6.3-11.9-8.6-17.6l-0.2,0.1c0.3,6.6,0.4,12.9,0.4,21.7v22.5H1151.3z"/>
		<path d="M1231.2,276c3.4,2,8.4,3.4,13.6,3.4c7.8,0,12.4-3.7,12.4-9c0-4.8-3.2-7.7-11.2-10.4c-9.7-3.1-15.7-7.6-15.7-15
			c0-8.2,7.7-14.3,19.2-14.3c6,0,10.5,1.2,13,2.6l-2.1,5.5c-1.8-1-5.8-2.5-11.2-2.5c-8.1,0-11.2,4.3-11.2,7.9
			c0,4.9,3.6,7.3,11.8,10.1c10,3.4,15,7.7,15,15.4c0,8.1-6.7,15.2-20.7,15.2c-5.7,0-12-1.6-15.1-3.4L1231.2,276z"/>
		<path d="M1308.9,232.5c3.2-0.7,8.4-1.2,13.5-1.2c7.4,0,12.1,1.2,15.6,3.8c3,2,4.8,5.1,4.8,9.3c0,5.1-3.7,9.6-9.6,11.5v0.2
			c5.4,1.2,11.8,5.3,11.8,13.1c0,4.5-1.9,8-4.9,10.5c-3.9,3.4-10.3,4.9-19.6,4.9c-5.1,0-9-0.3-11.4-0.6V232.5z M1316.2,254h6.7
			c7.7,0,12.3-3.8,12.3-8.9c0-6.1-5-8.6-12.4-8.6c-3.4,0-5.3,0.2-6.5,0.5V254z M1316.2,279.2c1.5,0.2,3.6,0.3,6.2,0.3
			c7.6,0,14.6-2.6,14.6-10.2c0-7.1-6.7-10.1-14.7-10.1h-6.1V279.2z"/>
		<path d="M1419.2,259.7h-23.3v19h26.1v5.7h-34v-52.6h32.6v5.7h-24.8V254h23.3V259.7z"/>
		<path d="M1465.1,232.4c3.4-0.6,8.4-1.1,13-1.1c7.3,0,12,1.4,15.2,4.3c2.6,2.3,4.1,5.9,4.1,10.1c0,6.9-4.4,11.5-9.8,13.3v0.2
			c4,1.4,6.4,5.1,7.6,10.6c1.7,7.3,3,12.4,4.1,14.4h-7c-0.9-1.6-2-6-3.4-12.6c-1.6-7.3-4.4-10-10.6-10.2h-6.4v22.8h-6.8V232.4z
			 M1471.9,256.4h6.9c7.3,0,11.9-4,11.9-10c0-6.8-4.9-9.8-12.1-9.8c-3.3,0-5.5,0.2-6.7,0.5V256.4z"/>
		<path d="M1577.4,282c-2.7,1.2-8,2.9-14.2,2.9c-7,0-12.7-2-17.3-6.9c-4-4.4-6.4-11.4-6.4-19.6c0-15.7,9.5-27.1,25-27.1
			c5.3,0,9.6,1.3,11.6,2.4l-1.5,5.5c-2.5-1.3-5.5-2.3-10.2-2.3c-11.2,0-18.6,8-18.6,21.1c0,13.3,7,21.2,17.8,21.2
			c3.9,0,6.6-0.6,7.9-1.4v-15.7h-9.3v-5.5h15.2V282z"/>
	</g>
</g>
</svg>
