<?xml version="1.0" encoding="UTF-8"?><svg id="Layer_2" xmlns="http://www.w3.org/2000/svg" viewBox="0 0 111.74 84.59"><defs><style>.cls-1{fill:#0c0c0c;stroke-width:0px;}</style></defs><g id="Layer_1-2"><path class="cls-1" d="m23.56,44.31c0-4.16.02-8.09.03-11.37v-.29h34.72V0h-11.98v15.87h2.5V2.5h6.98v27.65H9.36c.53-1.44,1.54-3.65,3.35-5.9,4.11-5.13,10.14-7.91,17.91-8.27l-.12-2.5c-17.26.8-22.54,12.89-23.77,16.67h-3.78c.45-2.01,1.52-5.88,3.75-9.75,4.21-7.31,10.37-11.22,18.33-11.62l-.13-2.5C3.78,7.34.23,30.99.2,31.23l-.2,1.42h6.27l-.37,3.77,2.49.24.39-4.01h11.79L.26,46.81h20.8c-.02,12.69-.04,29.63.03,30.81.05.73.37,1.36.93,1.82.79.64,1.91.78,2.72.78.47,0,.84-.05.98-.07l-.37-2.47c-.67.1-1.6,0-1.77-.21-.06-1.04-.05-16.6-.03-30.65h14.12l.13,6.16h0c-.55,0-1.09-.02-1.43-.08l-.42,2.46c.89.15,2.24.12,2.97.09.8-.04,1.42-.69,1.4-1.5l-.2-9.64h-16.56Zm-2.5,0h-12.85l12.87-8.97c0,2.05-.01,5.24-.02,8.97Z"/><polygon class="cls-1" points="46.03 36.71 43.17 36.71 49.29 55.49 51.8 55.49 57.92 36.71 55.05 36.71 50.54 51.44 46.03 36.71"/><circle class="cls-1" cx="61.7" cy="38.02" r="1.32"/><rect class="cls-1" x="60.38" y="42.08" width="2.64" height="13.41"/><path class="cls-1" d="m69.87,52.79c-.14-.18-.21-.43-.21-.76v-15.33h-2.64v15.3c0,1.13.27,2,.82,2.62s1.32.93,2.32.93h1.55v-2.51h-1.24c-.26,0-.46-.09-.6-.26Z"/><path class="cls-1" d="m77.82,55.56h1.55v-2.51h-1.24c-.26,0-.46-.09-.6-.26s-.21-.43-.21-.76v-15.33h-2.64v15.3c0,1.13.27,2,.82,2.62.55.62,1.32.93,2.32.93Z"/><path class="cls-1" d="m88.02,55.51c.45-.12.84-.29,1.18-.52.22-.15.41-.34.59-.55v1.05h2.51v-8.62c0-1.05-.21-1.95-.62-2.69-.41-.75-1.02-1.31-1.81-1.71-.79-.39-1.74-.59-2.86-.59-1.02,0-1.94.17-2.77.51-.83.34-1.5.82-2.01,1.43l1.93,1.32c.4-.29.85-.52,1.36-.68.51-.16,1.04-.25,1.57-.25.86,0,1.53.24,2,.73.47.49.7,1.17.7,2.05v.57h-3.7c-1.52,0-2.65.33-3.4,1-.75.66-1.12,1.66-1.12,2.98,0,1.4.41,2.44,1.23,3.12.82.68,2.05,1.03,3.71,1.03.56,0,1.06-.06,1.51-.17Zm-3.97-3.97c0-.63.17-1.1.51-1.4.34-.31.86-.46,1.54-.46h3.68v2.53c0,.46-.25.79-.74,1.01-.5.22-1.25.32-2.25.32-.92,0-1.61-.16-2.06-.49-.45-.33-.68-.83-.68-1.51Z"/><path class="cls-1" d="m36.28,66.12c-.79-.39-1.74-.59-2.86-.59-1.02,0-1.94.17-2.77.51-.83.34-1.5.82-2.01,1.43l1.93,1.32c.4-.29.85-.52,1.36-.68.51-.16,1.04-.25,1.57-.25.86,0,1.53.24,2,.73.47.49.7,1.17.7,2.05v.57h-3.7c-1.52,0-2.65.33-3.4,1-.75.66-1.12,1.66-1.12,2.99,0,1.4.41,2.44,1.23,3.12.82.69,2.05,1.03,3.71,1.03.56,0,1.06-.06,1.51-.17.45-.12.84-.29,1.18-.52.22-.15.41-.34.59-.55v1.05h2.51v-8.62c0-1.05-.21-1.95-.62-2.69s-1.02-1.31-1.81-1.71Zm-.08,9.74c0,.46-.25.79-.74,1.01-.5.22-1.25.32-2.25.32-.92,0-1.61-.16-2.06-.49-.45-.33-.68-.83-.68-1.51,0-.63.17-1.1.51-1.4s.85-.46,1.54-.46h3.68v2.53Z"/><path class="cls-1" d="m59.27,66.17c-.69-.43-1.51-.64-2.47-.64-.84,0-1.6.24-2.29.73-.66.46-1.19,1.11-1.61,1.94-.02-.05-.04-.11-.06-.17-.35-.82-.85-1.44-1.52-1.87-.66-.43-1.46-.64-2.4-.64-.81,0-1.55.22-2.22.66-.53.35-.98.82-1.35,1.41v-1.87h-2.64v13.41h2.64v-8.49c0-.83.23-1.47.7-1.92.47-.46,1.13-.69,2-.69s1.51.26,1.98.78c.47.52.7,1.25.7,2.2v8.13h2.64v-8.14s0-.07,0-.11v.02c0-.91.23-1.62.68-2.12.45-.5,1.08-.75,1.9-.75.89,0,1.58.26,2.07.78.49.52.74,1.25.74,2.2v8.13h2.64v-8.14c0-1.15-.18-2.14-.54-2.96-.36-.82-.88-1.44-1.56-1.87Z"/><rect class="cls-1" x="65.38" y="65.72" width="2.64" height="13.41"/><path class="cls-1" d="m66.7,60.34c-.73,0-1.32.59-1.32,1.32h0c0,.73.59,1.32,1.32,1.32s1.32-.59,1.32-1.32h0c0-.73-.59-1.32-1.32-1.32Z"/><path class="cls-1" d="m78.22,65.53c-.81,0-1.55.22-2.22.66-.53.35-.98.82-1.35,1.41v-1.87h-2.64v13.41h2.64v-8.49c0-.83.23-1.47.7-1.92.47-.46,1.13-.69,2-.69s1.58.26,2.07.78c.49.52.74,1.25.74,2.2v8.13h2.64v-8.14c0-1.74-.4-3.09-1.2-4.04-.8-.95-1.92-1.43-3.38-1.43Z"/><path class="cls-1" d="m94.43,67.41c-.36-.54-.8-.98-1.32-1.3-.66-.41-1.38-.62-2.18-.62-.95,0-1.76.21-2.44.64-.68.43-1.19,1.05-1.54,1.87s-.53,1.8-.53,2.96v2.96c0,1.15.18,2.13.54,2.95.36.82.89,1.44,1.58,1.87s1.53.64,2.51.64c.89,0,1.63-.22,2.24-.67.49-.36.86-.79,1.13-1.29v1.72c0,1.02-.28,1.8-.83,2.36-.55.56-1.33.83-2.34.83-.53,0-1.03-.13-1.5-.39-.48-.26-.89-.62-1.23-1.1l-1.78,1.62c.44.68,1.06,1.21,1.85,1.58s1.7.56,2.71.56c1.21,0,2.25-.23,3.11-.69.86-.46,1.52-1.12,1.97-2,.45-.88.68-1.93.68-3.17v-13.01h-2.64v1.69Zm0,6.78c0,.58-.1,1.07-.31,1.49-.21.41-.51.73-.9.95s-.87.33-1.43.33c-.87,0-1.54-.26-2.02-.79-.48-.53-.72-1.28-.72-2.25v-2.92c0-.98.24-1.75.72-2.29.48-.54,1.15-.81,2.02-.81.56,0,1.04.11,1.43.32s.69.52.9.92c.21.41.31.89.31,1.46v3.61Z"/><path class="cls-1" d="m111.09,68.18c-.44-.87-1.07-1.53-1.89-1.98s-1.82-.68-2.98-.68-2.16.23-2.99.68-1.46,1.11-1.89,1.98c-.44.87-.65,1.91-.65,3.12v2.18c0,1.23.22,2.29.65,3.16.43.87,1.07,1.54,1.89,2s1.82.68,2.99.68,2.16-.23,2.98-.68,1.46-1.12,1.89-1.98c.43-.87.65-1.91.65-3.13v-2.22c0-1.21-.22-2.25-.65-3.12Zm-1.98,5.34c0,1.04-.25,1.85-.76,2.43s-1.22.87-2.14.87-1.63-.29-2.14-.87-.76-1.39-.76-2.43v-2.22c0-1.04.25-1.85.76-2.42s1.22-.85,2.14-.85,1.63.29,2.14.85.76,1.37.76,2.42v2.22Z"/><polygon class="cls-1" points="7.79 60.34 6.5 60.34 6.5 79.13 9.14 79.13 9.14 71.23 16.9 71.23 16.9 68.72 9.14 68.72 9.14 62.85 18.33 62.85 18.33 60.34 9.14 60.34 7.79 60.34"/></g></svg>