<svg xmlns="http://www.w3.org/2000/svg" xmlns:xlink="http://www.w3.org/1999/xlink" width="800" zoomAndPan="magnify" viewBox="0 0 600 374.999991" height="500" preserveAspectRatio="xMidYMid meet" version="1.0"><defs><g/><clipPath id="037d232025"><rect x="0" width="514" y="0" height="47"/></clipPath></defs><rect x="-60" width="720" fill="#ffffff" y="-37.499999" height="449.999989" fill-opacity="1"/><rect x="-60" width="720" fill="#ffffff" y="-37.499999" height="449.999989" fill-opacity="1"/><g transform="matrix(1, 0, 0, 1, 43, 165)"><g clip-path="url(#037d232025)"><g fill="#000000" fill-opacity="1"><g transform="translate(1.095727, 36.600763)"><g><path d="M 6.0625 0 C 3.914062 0 2.84375 -1.070312 2.84375 -3.21875 C 2.863281 -4.863281 2.878906 -6.515625 2.890625 -8.171875 C 2.910156 -9.828125 2.921875 -11.488281 2.921875 -13.15625 C 2.921875 -14.800781 2.910156 -16.445312 2.890625 -18.09375 C 2.878906 -19.75 2.863281 -21.398438 2.84375 -23.046875 C 2.84375 -25.191406 3.914062 -26.265625 6.0625 -26.265625 L 12.578125 -26.265625 C 16.421875 -26.265625 19.210938 -25.613281 20.953125 -24.3125 C 22.703125 -23.007812 23.578125 -20.90625 23.578125 -18 C 23.578125 -15.925781 23.078125 -14.128906 22.078125 -12.609375 C 21.078125 -11.097656 19.664062 -9.929688 17.84375 -9.109375 C 16.03125 -8.296875 13.859375 -7.890625 11.328125 -7.890625 L 9.9375 -7.890625 C 9.9375 -7.097656 9.9375 -6.316406 9.9375 -5.546875 C 9.9375 -4.773438 9.945312 -4 9.96875 -3.21875 C 9.96875 -1.070312 8.894531 0 6.75 0 Z M 9.9375 -13.265625 L 11.21875 -13.265625 C 13.007812 -13.265625 14.296875 -13.613281 15.078125 -14.3125 C 15.867188 -15.007812 16.265625 -16.140625 16.265625 -17.703125 C 16.265625 -18.890625 15.910156 -19.738281 15.203125 -20.25 C 14.492188 -20.769531 13.351562 -21.03125 11.78125 -21.03125 L 9.96875 -21.03125 C 9.945312 -20.019531 9.9375 -18.941406 9.9375 -17.796875 C 9.9375 -16.648438 9.9375 -15.140625 9.9375 -13.265625 Z M 9.9375 -13.265625 "/></g></g></g><g fill="#000000" fill-opacity="1"><g transform="translate(26.184805, 36.600763)"><g><path d="M 12.78125 0.375 C 9.007812 0.375 6.242188 -0.753906 4.484375 -3.015625 C 2.734375 -5.273438 1.859375 -8.65625 1.859375 -13.15625 C 1.859375 -22.144531 5.585938 -26.640625 13.046875 -26.640625 C 15.847656 -26.640625 18.085938 -25.957031 19.765625 -24.59375 C 21.441406 -23.226562 22.394531 -21.257812 22.625 -18.6875 C 22.726562 -17.625 22.46875 -16.820312 21.84375 -16.28125 C 21.226562 -15.738281 20.40625 -15.46875 19.375 -15.46875 L 19.140625 -15.46875 C 18.109375 -15.46875 17.359375 -15.75 16.890625 -16.3125 C 16.421875 -16.882812 16.109375 -17.710938 15.953125 -18.796875 C 15.804688 -19.785156 15.484375 -20.488281 14.984375 -20.90625 C 14.492188 -21.320312 13.769531 -21.53125 12.8125 -21.53125 C 11.5 -21.53125 10.554688 -20.90625 9.984375 -19.65625 C 9.421875 -18.40625 9.140625 -16.238281 9.140625 -13.15625 C 9.140625 -10.925781 9.296875 -9.210938 9.609375 -8.015625 C 9.921875 -6.816406 10.351562 -5.988281 10.90625 -5.53125 C 11.46875 -5.082031 12.101562 -4.859375 12.8125 -4.859375 C 13.625 -4.859375 14.269531 -4.992188 14.75 -5.265625 C 15.226562 -5.546875 15.582031 -6.023438 15.8125 -6.703125 C 16.132812 -7.710938 16.535156 -8.476562 17.015625 -9 C 17.492188 -9.519531 18.226562 -9.78125 19.21875 -9.78125 L 19.25 -9.78125 C 20.289062 -9.78125 21.117188 -9.488281 21.734375 -8.90625 C 22.359375 -8.320312 22.566406 -7.476562 22.359375 -6.375 C 21.984375 -4.070312 20.96875 -2.367188 19.3125 -1.265625 C 17.65625 -0.171875 15.476562 0.375 12.78125 0.375 Z M 12.78125 0.375 "/></g></g></g><g fill="#000000" fill-opacity="1"><g transform="translate(50.250607, 36.600763)"><g><path d="M 6.0625 0 C 5.03125 0 4.234375 -0.273438 3.671875 -0.828125 C 3.117188 -1.390625 2.851562 -2.1875 2.875 -3.21875 C 2.875 -4.882812 2.878906 -6.546875 2.890625 -8.203125 C 2.910156 -9.859375 2.921875 -11.507812 2.921875 -13.15625 C 2.921875 -14.800781 2.910156 -16.445312 2.890625 -18.09375 C 2.878906 -19.75 2.875 -21.398438 2.875 -23.046875 C 2.851562 -24.078125 3.117188 -24.867188 3.671875 -25.421875 C 4.234375 -25.984375 5.03125 -26.265625 6.0625 -26.265625 L 6.75 -26.265625 C 7.78125 -26.265625 8.570312 -25.984375 9.125 -25.421875 C 9.6875 -24.867188 9.957031 -24.078125 9.9375 -23.046875 C 9.9375 -21.734375 9.9375 -20.421875 9.9375 -19.109375 C 9.9375 -17.796875 9.9375 -16.46875 9.9375 -15.125 L 10.84375 -15.734375 C 11.851562 -16.390625 12.710938 -17.410156 13.421875 -18.796875 C 14.128906 -20.191406 14.6875 -21.695312 15.09375 -23.3125 C 15.3125 -24.300781 15.691406 -25.039062 16.234375 -25.53125 C 16.785156 -26.019531 17.550781 -26.265625 18.53125 -26.265625 L 19.25 -26.265625 C 20.414062 -26.265625 21.253906 -25.929688 21.765625 -25.265625 C 22.285156 -24.597656 22.347656 -23.707031 21.953125 -22.59375 C 21.242188 -20.644531 20.429688 -18.910156 19.515625 -17.390625 C 18.609375 -15.878906 17.640625 -14.832031 16.609375 -14.25 L 16.609375 -14.0625 C 17.710938 -13.882812 18.617188 -13.484375 19.328125 -12.859375 C 20.035156 -12.242188 20.679688 -11.164062 21.265625 -9.625 C 21.460938 -9.070312 21.675781 -8.378906 21.90625 -7.546875 C 22.132812 -6.710938 22.453125 -5.460938 22.859375 -3.796875 C 23.140625 -2.609375 23.03125 -1.675781 22.53125 -1 C 22.039062 -0.332031 21.226562 0 20.09375 0 L 19.109375 0 C 17.160156 0 16 -1.046875 15.625 -3.140625 C 15.238281 -5.160156 14.863281 -6.710938 14.5 -7.796875 C 14.132812 -8.890625 13.722656 -9.648438 13.265625 -10.078125 C 12.804688 -10.515625 12.265625 -10.734375 11.640625 -10.734375 C 11.304688 -10.734375 11.023438 -10.722656 10.796875 -10.703125 C 10.578125 -10.691406 10.289062 -10.632812 9.9375 -10.53125 C 9.9375 -9.320312 9.9375 -8.109375 9.9375 -6.890625 C 9.9375 -5.679688 9.9375 -4.457031 9.9375 -3.21875 C 9.957031 -2.1875 9.6875 -1.390625 9.125 -0.828125 C 8.570312 -0.273438 7.78125 0 6.75 0 Z M 6.0625 0 "/></g></g></g><g fill="#000000" fill-opacity="1"><g transform="translate(75.377577, 36.600763)"><g><path d="M 7.921875 0.375 C 6.679688 0.375 5.550781 0.175781 4.53125 -0.21875 C 3.507812 -0.625 2.691406 -1.25 2.078125 -2.09375 C 1.472656 -2.945312 1.171875 -4.03125 1.171875 -5.34375 C 1.171875 -7.71875 2.175781 -9.503906 4.1875 -10.703125 C 6.195312 -11.910156 9.335938 -12.445312 13.609375 -12.3125 L 13.609375 -13.609375 C 13.609375 -14.992188 13.410156 -15.9375 13.015625 -16.4375 C 12.628906 -16.945312 12.019531 -17.203125 11.1875 -17.203125 C 10.707031 -17.203125 10.265625 -17.132812 9.859375 -17 C 9.453125 -16.863281 9.132812 -16.617188 8.90625 -16.265625 C 8.550781 -15.703125 8.253906 -15.21875 8.015625 -14.8125 C 7.773438 -14.414062 7.503906 -14.109375 7.203125 -13.890625 C 6.898438 -13.679688 6.429688 -13.578125 5.796875 -13.578125 L 5.421875 -13.578125 C 4.359375 -13.578125 3.503906 -13.863281 2.859375 -14.4375 C 2.210938 -15.019531 2.039062 -15.832031 2.34375 -16.875 C 2.78125 -18.363281 3.753906 -19.472656 5.265625 -20.203125 C 6.785156 -20.929688 8.921875 -21.296875 11.671875 -21.296875 C 17.304688 -21.296875 20.125 -18.769531 20.125 -13.71875 C 20.125 -11.445312 20.128906 -9.460938 20.140625 -7.765625 C 20.160156 -6.078125 20.191406 -4.585938 20.234375 -3.296875 C 20.285156 -2.234375 20.054688 -1.414062 19.546875 -0.84375 C 19.046875 -0.28125 18.28125 0 17.25 0 L 16.90625 0 C 14.988281 0 13.953125 -0.300781 13.796875 -0.90625 C 13.742188 -1.0625 13.703125 -1.210938 13.671875 -1.359375 C 13.648438 -1.515625 13.628906 -1.664062 13.609375 -1.8125 C 12.847656 -1.082031 11.972656 -0.535156 10.984375 -0.171875 C 10.003906 0.191406 8.984375 0.375 7.921875 0.375 Z M 9.9375 -3.90625 C 10.789062 -3.90625 11.519531 -4.070312 12.125 -4.40625 C 12.738281 -4.75 13.257812 -5.238281 13.6875 -5.875 L 13.6875 -9.28125 C 12.550781 -9.257812 11.488281 -9.171875 10.5 -9.015625 C 9.507812 -8.867188 8.710938 -8.59375 8.109375 -8.1875 C 7.503906 -7.78125 7.203125 -7.175781 7.203125 -6.375 C 7.203125 -5.664062 7.4375 -5.078125 7.90625 -4.609375 C 8.375 -4.140625 9.050781 -3.90625 9.9375 -3.90625 Z M 9.9375 -3.90625 "/></g></g></g><g fill="#000000" fill-opacity="1"><g transform="translate(97.434733, 36.600763)"><g><path d="M 10.078125 0.453125 C 7.628906 0.453125 5.738281 0.113281 4.40625 -0.5625 C 3.082031 -1.25 2.207031 -2.25 1.78125 -3.5625 C 1.445312 -4.601562 1.554688 -5.410156 2.109375 -5.984375 C 2.671875 -6.566406 3.394531 -6.859375 4.28125 -6.859375 L 4.390625 -6.859375 C 5.003906 -6.859375 5.460938 -6.753906 5.765625 -6.546875 C 6.066406 -6.347656 6.335938 -6.066406 6.578125 -5.703125 C 6.816406 -5.335938 7.113281 -4.914062 7.46875 -4.4375 C 7.820312 -3.976562 8.601562 -3.75 9.8125 -3.75 C 11 -3.75 11.832031 -3.9375 12.3125 -4.3125 C 12.800781 -4.695312 13.046875 -5.164062 13.046875 -5.71875 C 13.046875 -6.425781 12.832031 -6.957031 12.40625 -7.3125 C 11.988281 -7.664062 11.445312 -7.929688 10.78125 -8.109375 C 10.113281 -8.285156 9.375 -8.4375 8.5625 -8.5625 C 7.757812 -8.6875 6.945312 -8.847656 6.125 -9.046875 C 5.300781 -9.253906 4.550781 -9.566406 3.875 -9.984375 C 3.207031 -10.398438 2.664062 -11 2.25 -11.78125 C 1.832031 -12.570312 1.625 -13.597656 1.625 -14.859375 C 1.625 -19.148438 4.59375 -21.296875 10.53125 -21.296875 C 15.0625 -21.296875 17.742188 -19.972656 18.578125 -17.328125 C 18.878906 -16.316406 18.75 -15.523438 18.1875 -14.953125 C 17.632812 -14.378906 16.914062 -14.09375 16.03125 -14.09375 L 15.875 -14.09375 C 15.300781 -14.09375 14.851562 -14.1875 14.53125 -14.375 C 14.21875 -14.570312 13.941406 -14.835938 13.703125 -15.171875 C 13.460938 -15.515625 13.15625 -15.90625 12.78125 -16.34375 C 12.375 -16.738281 11.625 -16.9375 10.53125 -16.9375 C 9.519531 -16.9375 8.828125 -16.769531 8.453125 -16.4375 C 8.078125 -16.113281 7.890625 -15.664062 7.890625 -15.09375 C 7.890625 -14.332031 8.164062 -13.773438 8.71875 -13.421875 C 9.269531 -13.066406 9.972656 -12.816406 10.828125 -12.671875 C 11.691406 -12.535156 12.617188 -12.390625 13.609375 -12.234375 C 14.597656 -12.085938 15.519531 -11.835938 16.375 -11.484375 C 17.238281 -11.128906 17.945312 -10.566406 18.5 -9.796875 C 19.050781 -9.023438 19.328125 -7.945312 19.328125 -6.5625 C 19.328125 -4.238281 18.539062 -2.488281 16.96875 -1.3125 C 15.40625 -0.132812 13.109375 0.453125 10.078125 0.453125 Z M 10.078125 0.453125 "/></g></g></g><g fill="#000000" fill-opacity="1"><g transform="translate(118.203335, 36.600763)"><g><path d="M 10.078125 0.453125 C 7.628906 0.453125 5.738281 0.113281 4.40625 -0.5625 C 3.082031 -1.25 2.207031 -2.25 1.78125 -3.5625 C 1.445312 -4.601562 1.554688 -5.410156 2.109375 -5.984375 C 2.671875 -6.566406 3.394531 -6.859375 4.28125 -6.859375 L 4.390625 -6.859375 C 5.003906 -6.859375 5.460938 -6.753906 5.765625 -6.546875 C 6.066406 -6.347656 6.335938 -6.066406 6.578125 -5.703125 C 6.816406 -5.335938 7.113281 -4.914062 7.46875 -4.4375 C 7.820312 -3.976562 8.601562 -3.75 9.8125 -3.75 C 11 -3.75 11.832031 -3.9375 12.3125 -4.3125 C 12.800781 -4.695312 13.046875 -5.164062 13.046875 -5.71875 C 13.046875 -6.425781 12.832031 -6.957031 12.40625 -7.3125 C 11.988281 -7.664062 11.445312 -7.929688 10.78125 -8.109375 C 10.113281 -8.285156 9.375 -8.4375 8.5625 -8.5625 C 7.757812 -8.6875 6.945312 -8.847656 6.125 -9.046875 C 5.300781 -9.253906 4.550781 -9.566406 3.875 -9.984375 C 3.207031 -10.398438 2.664062 -11 2.25 -11.78125 C 1.832031 -12.570312 1.625 -13.597656 1.625 -14.859375 C 1.625 -19.148438 4.59375 -21.296875 10.53125 -21.296875 C 15.0625 -21.296875 17.742188 -19.972656 18.578125 -17.328125 C 18.878906 -16.316406 18.75 -15.523438 18.1875 -14.953125 C 17.632812 -14.378906 16.914062 -14.09375 16.03125 -14.09375 L 15.875 -14.09375 C 15.300781 -14.09375 14.851562 -14.1875 14.53125 -14.375 C 14.21875 -14.570312 13.941406 -14.835938 13.703125 -15.171875 C 13.460938 -15.515625 13.15625 -15.90625 12.78125 -16.34375 C 12.375 -16.738281 11.625 -16.9375 10.53125 -16.9375 C 9.519531 -16.9375 8.828125 -16.769531 8.453125 -16.4375 C 8.078125 -16.113281 7.890625 -15.664062 7.890625 -15.09375 C 7.890625 -14.332031 8.164062 -13.773438 8.71875 -13.421875 C 9.269531 -13.066406 9.972656 -12.816406 10.828125 -12.671875 C 11.691406 -12.535156 12.617188 -12.390625 13.609375 -12.234375 C 14.597656 -12.085938 15.519531 -11.835938 16.375 -11.484375 C 17.238281 -11.128906 17.945312 -10.566406 18.5 -9.796875 C 19.050781 -9.023438 19.328125 -7.945312 19.328125 -6.5625 C 19.328125 -4.238281 18.539062 -2.488281 16.96875 -1.3125 C 15.40625 -0.132812 13.109375 0.453125 10.078125 0.453125 Z M 10.078125 0.453125 "/></g></g></g><g fill="#000000" fill-opacity="1"><g transform="translate(138.971937, 36.600763)"><g><path d="M 11.140625 0.375 C 7.753906 0.375 5.273438 -0.550781 3.703125 -2.40625 C 2.140625 -4.257812 1.359375 -7.054688 1.359375 -10.796875 C 1.359375 -17.796875 4.617188 -21.296875 11.140625 -21.296875 C 13.492188 -21.296875 15.382812 -20.800781 16.8125 -19.8125 C 18.238281 -18.832031 19.234375 -17.453125 19.796875 -15.671875 C 20.367188 -13.890625 20.53125 -11.820312 20.28125 -9.46875 C 20.226562 -9.070312 20.039062 -8.875 19.71875 -8.875 L 7.625 -8.875 C 7.664062 -7.582031 7.84375 -6.582031 8.15625 -5.875 C 8.476562 -5.164062 8.898438 -4.675781 9.421875 -4.40625 C 9.941406 -4.144531 10.53125 -4.015625 11.1875 -4.015625 C 12.164062 -4.015625 12.945312 -4.179688 13.53125 -4.515625 C 14.007812 -4.835938 14.378906 -5.148438 14.640625 -5.453125 C 14.910156 -5.753906 15.195312 -6.003906 15.5 -6.203125 C 15.800781 -6.410156 16.21875 -6.515625 16.75 -6.515625 C 17.738281 -6.515625 18.519531 -6.269531 19.09375 -5.78125 C 19.675781 -5.289062 19.832031 -4.613281 19.5625 -3.75 C 18.675781 -1 15.867188 0.375 11.140625 0.375 Z M 7.65625 -12.4375 L 13.875 -12.4375 C 13.925781 -13.945312 13.710938 -15.082031 13.234375 -15.84375 C 12.753906 -16.601562 11.957031 -16.984375 10.84375 -16.984375 C 9.851562 -16.984375 9.066406 -16.609375 8.484375 -15.859375 C 7.910156 -15.117188 7.632812 -13.976562 7.65625 -12.4375 Z M 7.65625 -12.4375 "/></g></g></g><g fill="#000000" fill-opacity="1"><g transform="translate(160.877501, 36.600763)"><g/></g></g><g fill="#000000" fill-opacity="1"><g transform="translate(170.352233, 36.600763)"><g><path d="M 17.28125 -24.21875 C 17.207031 -23.414062 16.882812 -22.945312 16.3125 -22.8125 C 15.75 -22.6875 14.910156 -22.664062 13.796875 -22.75 C 12.890625 -22.789062 12.144531 -22.550781 11.5625 -22.03125 C 10.976562 -21.519531 10.6875 -20.695312 10.6875 -19.5625 L 10.6875 -17.890625 L 13.453125 -17.890625 C 15.597656 -17.890625 16.671875 -17.09375 16.671875 -15.5 C 16.671875 -13.882812 15.675781 -13.078125 13.6875 -13.078125 L 10.6875 -13.046875 C 10.6875 -12.734375 10.691406 -12.425781 10.703125 -12.125 C 10.722656 -11.820312 10.734375 -11.519531 10.734375 -11.21875 C 10.734375 -9.90625 10.738281 -8.578125 10.75 -7.234375 C 10.757812 -5.898438 10.765625 -4.5625 10.765625 -3.21875 C 10.765625 -1.070312 9.753906 0 7.734375 0 C 5.679688 0 4.65625 -1.070312 4.65625 -3.21875 C 4.65625 -4.5625 4.648438 -5.898438 4.640625 -7.234375 C 4.628906 -8.578125 4.625 -9.90625 4.625 -11.21875 L 4.625 -13 L 4.328125 -13 C 2.171875 -13 1.09375 -13.820312 1.09375 -15.46875 C 1.09375 -17.082031 1.6875 -17.890625 2.875 -17.890625 L 4.625 -17.890625 C 4.601562 -18.242188 4.59375 -18.597656 4.59375 -18.953125 C 4.59375 -19.304688 4.59375 -19.644531 4.59375 -19.96875 C 4.5625 -21.894531 4.882812 -23.425781 5.5625 -24.5625 C 6.25 -25.695312 7.226562 -26.515625 8.5 -27.015625 C 9.78125 -27.523438 11.28125 -27.78125 13 -27.78125 C 13.332031 -27.78125 13.648438 -27.765625 13.953125 -27.734375 C 14.253906 -27.710938 14.546875 -27.679688 14.828125 -27.640625 C 15.785156 -27.484375 16.453125 -27.085938 16.828125 -26.453125 C 17.210938 -25.828125 17.363281 -25.082031 17.28125 -24.21875 Z M 17.28125 -24.21875 "/></g></g></g><g fill="#000000" fill-opacity="1"><g transform="translate(188.164722, 36.600763)"><g><path d="M 11.109375 0.453125 C 4.609375 0.453125 1.359375 -3.171875 1.359375 -10.421875 C 1.359375 -17.671875 4.609375 -21.296875 11.109375 -21.296875 C 17.503906 -21.296875 20.703125 -17.671875 20.703125 -10.421875 C 20.703125 -3.171875 17.503906 0.453125 11.109375 0.453125 Z M 11.109375 -4.171875 C 11.710938 -4.171875 12.25 -4.335938 12.71875 -4.671875 C 13.1875 -5.015625 13.550781 -5.640625 13.8125 -6.546875 C 14.082031 -7.460938 14.21875 -8.753906 14.21875 -10.421875 C 14.21875 -12.742188 13.976562 -14.363281 13.5 -15.28125 C 13.019531 -16.207031 12.222656 -16.671875 11.109375 -16.671875 C 9.921875 -16.671875 9.078125 -16.207031 8.578125 -15.28125 C 8.085938 -14.363281 7.84375 -12.742188 7.84375 -10.421875 C 7.84375 -8.753906 7.984375 -7.460938 8.265625 -6.546875 C 8.546875 -5.640625 8.929688 -5.015625 9.421875 -4.671875 C 9.910156 -4.335938 10.472656 -4.171875 11.109375 -4.171875 Z M 11.109375 -4.171875 "/></g></g></g><g fill="#000000" fill-opacity="1"><g transform="translate(210.146082, 36.600763)"><g><path d="M 14.25 -21.265625 C 14.601562 -21.191406 14.96875 -21 15.34375 -20.6875 C 15.726562 -20.382812 16.046875 -19.867188 16.296875 -19.140625 C 16.421875 -18.710938 16.484375 -18.269531 16.484375 -17.8125 C 16.484375 -17.363281 16.421875 -16.921875 16.296875 -16.484375 C 16.046875 -15.503906 15.664062 -14.851562 15.15625 -14.53125 C 14.65625 -14.21875 14.164062 -14.148438 13.6875 -14.328125 C 13.207031 -14.484375 12.703125 -14.5625 12.171875 -14.5625 C 10.523438 -14.5625 9.347656 -13.507812 8.640625 -11.40625 L 8.640625 -10.5 C 8.640625 -10.09375 8.632812 -9.675781 8.625 -9.25 C 8.613281 -8.820312 8.609375 -8.40625 8.609375 -8 C 8.609375 -7.21875 8.613281 -6.441406 8.625 -5.671875 C 8.632812 -4.898438 8.65625 -4.109375 8.6875 -3.296875 C 8.757812 -1.097656 7.707031 0 5.53125 0 L 5.421875 0 C 3.273438 0 2.203125 -1.070312 2.203125 -3.21875 C 2.222656 -4.4375 2.238281 -5.644531 2.25 -6.84375 C 2.269531 -8.039062 2.28125 -9.257812 2.28125 -10.5 C 2.28125 -11.757812 2.269531 -12.984375 2.25 -14.171875 C 2.238281 -15.359375 2.222656 -16.5625 2.203125 -17.78125 C 2.203125 -19.925781 3.222656 -21 5.265625 -21 C 7.316406 -21 8.34375 -20.191406 8.34375 -18.578125 L 8.34375 -16.109375 L 8.453125 -16.03125 C 8.753906 -17.601562 9.328125 -18.878906 10.171875 -19.859375 C 11.023438 -20.847656 12.070312 -21.34375 13.3125 -21.34375 C 13.507812 -21.34375 13.6875 -21.332031 13.84375 -21.3125 C 14.007812 -21.300781 14.144531 -21.285156 14.25 -21.265625 Z M 14.25 -21.265625 "/></g></g></g><g fill="#000000" fill-opacity="1"><g transform="translate(226.66999, 36.600763)"><g/></g><g transform="translate(236.144735, 36.600763)"><g><path d="M 27.21875 -22.78125 C 27.21875 -25.101562 28.28125 -26.265625 30.40625 -26.265625 C 31.414062 -26.265625 32.191406 -25.96875 32.734375 -25.375 C 33.273438 -24.78125 33.519531 -23.925781 33.46875 -22.8125 C 33.289062 -17.40625 32.859375 -12.988281 32.171875 -9.5625 C 31.492188 -6.144531 30.503906 -3.632812 29.203125 -2.03125 C 27.898438 -0.425781 26.203125 0.375 24.109375 0.375 C 22.367188 0.375 20.957031 -0.195312 19.875 -1.34375 C 18.800781 -2.5 18.015625 -4.132812 17.515625 -6.25 C 16.878906 -4.132812 15.921875 -2.5 14.640625 -1.34375 C 13.367188 -0.195312 11.847656 0.375 10.078125 0.375 C 8.179688 0.375 6.617188 -0.429688 5.390625 -2.046875 C 4.171875 -3.660156 3.25 -6.179688 2.625 -9.609375 C 2.007812 -13.035156 1.648438 -17.453125 1.546875 -22.859375 C 1.523438 -23.972656 1.789062 -24.816406 2.34375 -25.390625 C 2.90625 -25.972656 3.703125 -26.265625 4.734375 -26.265625 L 5.265625 -26.265625 C 7.410156 -26.265625 8.484375 -25.101562 8.484375 -22.78125 C 8.515625 -19.519531 8.59375 -16.828125 8.71875 -14.703125 C 8.84375 -12.585938 9.023438 -10.925781 9.265625 -9.71875 C 9.503906 -8.519531 9.804688 -7.671875 10.171875 -7.171875 C 10.546875 -6.679688 10.972656 -6.4375 11.453125 -6.4375 C 12.203125 -6.4375 12.78125 -6.679688 13.1875 -7.171875 C 13.59375 -7.671875 13.878906 -8.519531 14.046875 -9.71875 C 14.210938 -10.925781 14.300781 -12.585938 14.3125 -14.703125 C 14.320312 -16.828125 14.328125 -19.519531 14.328125 -22.78125 C 14.328125 -25.101562 15.398438 -26.265625 17.546875 -26.265625 L 18.046875 -26.265625 C 20.191406 -26.265625 21.265625 -25.101562 21.265625 -22.78125 C 21.285156 -19.519531 21.359375 -16.828125 21.484375 -14.703125 C 21.617188 -12.585938 21.804688 -10.925781 22.046875 -9.71875 C 22.285156 -8.519531 22.582031 -7.671875 22.9375 -7.171875 C 23.289062 -6.679688 23.707031 -6.4375 24.1875 -6.4375 C 24.71875 -6.4375 25.171875 -6.679688 25.546875 -7.171875 C 25.929688 -7.671875 26.242188 -8.519531 26.484375 -9.71875 C 26.722656 -10.925781 26.894531 -12.585938 27 -14.703125 C 27.113281 -16.828125 27.1875 -19.519531 27.21875 -22.78125 Z M 27.21875 -22.78125 "/></g></g></g><g fill="#000000" fill-opacity="1"><g transform="translate(271.087537, 36.600763)"><g><path d="M 11.109375 0.453125 C 4.609375 0.453125 1.359375 -3.171875 1.359375 -10.421875 C 1.359375 -17.671875 4.609375 -21.296875 11.109375 -21.296875 C 17.503906 -21.296875 20.703125 -17.671875 20.703125 -10.421875 C 20.703125 -3.171875 17.503906 0.453125 11.109375 0.453125 Z M 11.109375 -4.171875 C 11.710938 -4.171875 12.25 -4.335938 12.71875 -4.671875 C 13.1875 -5.015625 13.550781 -5.640625 13.8125 -6.546875 C 14.082031 -7.460938 14.21875 -8.753906 14.21875 -10.421875 C 14.21875 -12.742188 13.976562 -14.363281 13.5 -15.28125 C 13.019531 -16.207031 12.222656 -16.671875 11.109375 -16.671875 C 9.921875 -16.671875 9.078125 -16.207031 8.578125 -15.28125 C 8.085938 -14.363281 7.84375 -12.742188 7.84375 -10.421875 C 7.84375 -8.753906 7.984375 -7.460938 8.265625 -6.546875 C 8.546875 -5.640625 8.929688 -5.015625 9.421875 -4.671875 C 9.910156 -4.335938 10.472656 -4.171875 11.109375 -4.171875 Z M 11.109375 -4.171875 "/></g></g></g><g fill="#000000" fill-opacity="1"><g transform="translate(293.144667, 36.600763)"><g><path d="M 11.109375 0.453125 C 4.609375 0.453125 1.359375 -3.171875 1.359375 -10.421875 C 1.359375 -17.671875 4.609375 -21.296875 11.109375 -21.296875 C 17.503906 -21.296875 20.703125 -17.671875 20.703125 -10.421875 C 20.703125 -3.171875 17.503906 0.453125 11.109375 0.453125 Z M 11.109375 -4.171875 C 11.710938 -4.171875 12.25 -4.335938 12.71875 -4.671875 C 13.1875 -5.015625 13.550781 -5.640625 13.8125 -6.546875 C 14.082031 -7.460938 14.21875 -8.753906 14.21875 -10.421875 C 14.21875 -12.742188 13.976562 -14.363281 13.5 -15.28125 C 13.019531 -16.207031 12.222656 -16.671875 11.109375 -16.671875 C 9.921875 -16.671875 9.078125 -16.207031 8.578125 -15.28125 C 8.085938 -14.363281 7.84375 -12.742188 7.84375 -10.421875 C 7.84375 -8.753906 7.984375 -7.460938 8.265625 -6.546875 C 8.546875 -5.640625 8.929688 -5.015625 9.421875 -4.671875 C 9.910156 -4.335938 10.472656 -4.171875 11.109375 -4.171875 Z M 11.109375 -4.171875 "/></g></g></g><g fill="#000000" fill-opacity="1"><g transform="translate(315.201849, 36.600763)"><g><path d="M 12.78125 0.375 C 9.007812 0.375 6.242188 -0.753906 4.484375 -3.015625 C 2.734375 -5.273438 1.859375 -8.65625 1.859375 -13.15625 C 1.859375 -22.144531 5.585938 -26.640625 13.046875 -26.640625 C 15.847656 -26.640625 18.085938 -25.957031 19.765625 -24.59375 C 21.441406 -23.226562 22.394531 -21.257812 22.625 -18.6875 C 22.726562 -17.625 22.46875 -16.820312 21.84375 -16.28125 C 21.226562 -15.738281 20.40625 -15.46875 19.375 -15.46875 L 19.140625 -15.46875 C 18.109375 -15.46875 17.359375 -15.75 16.890625 -16.3125 C 16.421875 -16.882812 16.109375 -17.710938 15.953125 -18.796875 C 15.804688 -19.785156 15.484375 -20.488281 14.984375 -20.90625 C 14.492188 -21.320312 13.769531 -21.53125 12.8125 -21.53125 C 11.5 -21.53125 10.554688 -20.90625 9.984375 -19.65625 C 9.421875 -18.40625 9.140625 -16.238281 9.140625 -13.15625 C 9.140625 -10.925781 9.296875 -9.210938 9.609375 -8.015625 C 9.921875 -6.816406 10.351562 -5.988281 10.90625 -5.53125 C 11.46875 -5.082031 12.101562 -4.859375 12.8125 -4.859375 C 13.625 -4.859375 14.269531 -4.992188 14.75 -5.265625 C 15.226562 -5.546875 15.582031 -6.023438 15.8125 -6.703125 C 16.132812 -7.710938 16.535156 -8.476562 17.015625 -9 C 17.492188 -9.519531 18.226562 -9.78125 19.21875 -9.78125 L 19.25 -9.78125 C 20.289062 -9.78125 21.117188 -9.488281 21.734375 -8.90625 C 22.359375 -8.320312 22.566406 -7.476562 22.359375 -6.375 C 21.984375 -4.070312 20.96875 -2.367188 19.3125 -1.265625 C 17.65625 -0.171875 15.476562 0.375 12.78125 0.375 Z M 12.78125 0.375 "/></g></g></g><g fill="#000000" fill-opacity="1"><g transform="translate(339.343434, 36.600763)"><g><path d="M 11.109375 0.453125 C 4.609375 0.453125 1.359375 -3.171875 1.359375 -10.421875 C 1.359375 -17.671875 4.609375 -21.296875 11.109375 -21.296875 C 17.503906 -21.296875 20.703125 -17.671875 20.703125 -10.421875 C 20.703125 -3.171875 17.503906 0.453125 11.109375 0.453125 Z M 11.109375 -4.171875 C 11.710938 -4.171875 12.25 -4.335938 12.71875 -4.671875 C 13.1875 -5.015625 13.550781 -5.640625 13.8125 -6.546875 C 14.082031 -7.460938 14.21875 -8.753906 14.21875 -10.421875 C 14.21875 -12.742188 13.976562 -14.363281 13.5 -15.28125 C 13.019531 -16.207031 12.222656 -16.671875 11.109375 -16.671875 C 9.921875 -16.671875 9.078125 -16.207031 8.578125 -15.28125 C 8.085938 -14.363281 7.84375 -12.742188 7.84375 -10.421875 C 7.84375 -8.753906 7.984375 -7.460938 8.265625 -6.546875 C 8.546875 -5.640625 8.929688 -5.015625 9.421875 -4.671875 C 9.910156 -4.335938 10.472656 -4.171875 11.109375 -4.171875 Z M 11.109375 -4.171875 "/></g></g></g><g fill="#000000" fill-opacity="1"><g transform="translate(361.438495, 36.600763)"><g><path d="M 32.9375 -3.265625 C 32.9375 -1.085938 31.863281 0 29.71875 0 L 29.609375 0 C 27.453125 0 26.375 -1.085938 26.375 -3.265625 C 26.40625 -5.003906 26.425781 -6.660156 26.4375 -8.234375 C 26.445312 -9.816406 26.453125 -11.265625 26.453125 -12.578125 C 26.453125 -13.816406 26.238281 -14.675781 25.8125 -15.15625 C 25.382812 -15.632812 24.738281 -15.863281 23.875 -15.84375 C 22.507812 -15.820312 21.5 -15.175781 20.84375 -13.90625 L 20.84375 -12.515625 C 20.820312 -11.191406 20.816406 -9.75 20.828125 -8.1875 C 20.835938 -6.625 20.859375 -4.984375 20.890625 -3.265625 C 20.890625 -1.085938 19.816406 0 17.671875 0 L 17.546875 0 C 15.398438 0 14.328125 -1.085938 14.328125 -3.265625 C 14.347656 -5.003906 14.363281 -6.660156 14.375 -8.234375 C 14.394531 -9.816406 14.40625 -11.265625 14.40625 -12.578125 C 14.40625 -13.816406 14.1875 -14.675781 13.75 -15.15625 C 13.320312 -15.632812 12.679688 -15.863281 11.828125 -15.84375 C 10.390625 -15.789062 9.328125 -15.054688 8.640625 -13.640625 L 8.640625 -10.5 C 8.617188 -9.257812 8.613281 -8.039062 8.625 -6.84375 C 8.632812 -5.644531 8.640625 -4.4375 8.640625 -3.21875 C 8.671875 -2.1875 8.40625 -1.390625 7.84375 -0.828125 C 7.289062 -0.273438 6.492188 0 5.453125 0 L 5.1875 0 C 4.15625 0 3.359375 -0.273438 2.796875 -0.828125 C 2.242188 -1.390625 1.984375 -2.1875 2.015625 -3.21875 C 2.035156 -4.4375 2.050781 -5.644531 2.0625 -6.84375 C 2.070312 -8.039062 2.078125 -9.257812 2.078125 -10.5 C 2.078125 -11.757812 2.070312 -12.984375 2.0625 -14.171875 C 2.050781 -15.359375 2.035156 -16.5625 2.015625 -17.78125 C 1.984375 -18.8125 2.242188 -19.601562 2.796875 -20.15625 C 3.359375 -20.71875 4.15625 -21 5.1875 -21 C 6.226562 -21 7.03125 -20.847656 7.59375 -20.546875 C 8.164062 -20.242188 8.453125 -19.800781 8.453125 -19.21875 C 8.429688 -18.96875 8.421875 -18.6875 8.421875 -18.375 C 8.421875 -18.070312 8.40625 -17.75 8.375 -17.40625 L 8.421875 -17.40625 C 9.148438 -18.738281 10.0625 -19.71875 11.15625 -20.34375 C 12.257812 -20.976562 13.546875 -21.296875 15.015625 -21.296875 C 16.378906 -21.296875 17.507812 -20.988281 18.40625 -20.375 C 19.300781 -19.757812 19.953125 -18.769531 20.359375 -17.40625 L 20.46875 -17.40625 C 21.195312 -18.738281 22.109375 -19.71875 23.203125 -20.34375 C 24.304688 -20.976562 25.59375 -21.296875 27.0625 -21.296875 C 29.0625 -21.296875 30.550781 -20.613281 31.53125 -19.25 C 32.519531 -17.882812 32.976562 -15.640625 32.90625 -12.515625 C 32.875 -11.191406 32.863281 -9.75 32.875 -8.1875 C 32.894531 -6.625 32.914062 -4.984375 32.9375 -3.265625 Z M 32.9375 -3.265625 "/></g></g></g><g fill="#000000" fill-opacity="1"><g transform="translate(396.570767, 36.600763)"><g><path d="M 32.9375 -3.265625 C 32.9375 -1.085938 31.863281 0 29.71875 0 L 29.609375 0 C 27.453125 0 26.375 -1.085938 26.375 -3.265625 C 26.40625 -5.003906 26.425781 -6.660156 26.4375 -8.234375 C 26.445312 -9.816406 26.453125 -11.265625 26.453125 -12.578125 C 26.453125 -13.816406 26.238281 -14.675781 25.8125 -15.15625 C 25.382812 -15.632812 24.738281 -15.863281 23.875 -15.84375 C 22.507812 -15.820312 21.5 -15.175781 20.84375 -13.90625 L 20.84375 -12.515625 C 20.820312 -11.191406 20.816406 -9.75 20.828125 -8.1875 C 20.835938 -6.625 20.859375 -4.984375 20.890625 -3.265625 C 20.890625 -1.085938 19.816406 0 17.671875 0 L 17.546875 0 C 15.398438 0 14.328125 -1.085938 14.328125 -3.265625 C 14.347656 -5.003906 14.363281 -6.660156 14.375 -8.234375 C 14.394531 -9.816406 14.40625 -11.265625 14.40625 -12.578125 C 14.40625 -13.816406 14.1875 -14.675781 13.75 -15.15625 C 13.320312 -15.632812 12.679688 -15.863281 11.828125 -15.84375 C 10.390625 -15.789062 9.328125 -15.054688 8.640625 -13.640625 L 8.640625 -10.5 C 8.617188 -9.257812 8.613281 -8.039062 8.625 -6.84375 C 8.632812 -5.644531 8.640625 -4.4375 8.640625 -3.21875 C 8.671875 -2.1875 8.40625 -1.390625 7.84375 -0.828125 C 7.289062 -0.273438 6.492188 0 5.453125 0 L 5.1875 0 C 4.15625 0 3.359375 -0.273438 2.796875 -0.828125 C 2.242188 -1.390625 1.984375 -2.1875 2.015625 -3.21875 C 2.035156 -4.4375 2.050781 -5.644531 2.0625 -6.84375 C 2.070312 -8.039062 2.078125 -9.257812 2.078125 -10.5 C 2.078125 -11.757812 2.070312 -12.984375 2.0625 -14.171875 C 2.050781 -15.359375 2.035156 -16.5625 2.015625 -17.78125 C 1.984375 -18.8125 2.242188 -19.601562 2.796875 -20.15625 C 3.359375 -20.71875 4.15625 -21 5.1875 -21 C 6.226562 -21 7.03125 -20.847656 7.59375 -20.546875 C 8.164062 -20.242188 8.453125 -19.800781 8.453125 -19.21875 C 8.429688 -18.96875 8.421875 -18.6875 8.421875 -18.375 C 8.421875 -18.070312 8.40625 -17.75 8.375 -17.40625 L 8.421875 -17.40625 C 9.148438 -18.738281 10.0625 -19.71875 11.15625 -20.34375 C 12.257812 -20.976562 13.546875 -21.296875 15.015625 -21.296875 C 16.378906 -21.296875 17.507812 -20.988281 18.40625 -20.375 C 19.300781 -19.757812 19.953125 -18.769531 20.359375 -17.40625 L 20.46875 -17.40625 C 21.195312 -18.738281 22.109375 -19.71875 23.203125 -20.34375 C 24.304688 -20.976562 25.59375 -21.296875 27.0625 -21.296875 C 29.0625 -21.296875 30.550781 -20.613281 31.53125 -19.25 C 32.519531 -17.882812 32.976562 -15.640625 32.90625 -12.515625 C 32.875 -11.191406 32.863281 -9.75 32.875 -8.1875 C 32.894531 -6.625 32.914062 -4.984375 32.9375 -3.265625 Z M 32.9375 -3.265625 "/></g></g></g><g fill="#000000" fill-opacity="1"><g transform="translate(431.703064, 36.600763)"><g><path d="M 11.140625 0.375 C 7.753906 0.375 5.273438 -0.550781 3.703125 -2.40625 C 2.140625 -4.257812 1.359375 -7.054688 1.359375 -10.796875 C 1.359375 -17.796875 4.617188 -21.296875 11.140625 -21.296875 C 13.492188 -21.296875 15.382812 -20.800781 16.8125 -19.8125 C 18.238281 -18.832031 19.234375 -17.453125 19.796875 -15.671875 C 20.367188 -13.890625 20.53125 -11.820312 20.28125 -9.46875 C 20.226562 -9.070312 20.039062 -8.875 19.71875 -8.875 L 7.625 -8.875 C 7.664062 -7.582031 7.84375 -6.582031 8.15625 -5.875 C 8.476562 -5.164062 8.898438 -4.675781 9.421875 -4.40625 C 9.941406 -4.144531 10.53125 -4.015625 11.1875 -4.015625 C 12.164062 -4.015625 12.945312 -4.179688 13.53125 -4.515625 C 14.007812 -4.835938 14.378906 -5.148438 14.640625 -5.453125 C 14.910156 -5.753906 15.195312 -6.003906 15.5 -6.203125 C 15.800781 -6.410156 16.21875 -6.515625 16.75 -6.515625 C 17.738281 -6.515625 18.519531 -6.269531 19.09375 -5.78125 C 19.675781 -5.289062 19.832031 -4.613281 19.5625 -3.75 C 18.675781 -1 15.867188 0.375 11.140625 0.375 Z M 7.65625 -12.4375 L 13.875 -12.4375 C 13.925781 -13.945312 13.710938 -15.082031 13.234375 -15.84375 C 12.753906 -16.601562 11.957031 -16.984375 10.84375 -16.984375 C 9.851562 -16.984375 9.066406 -16.609375 8.484375 -15.859375 C 7.910156 -15.117188 7.632812 -13.976562 7.65625 -12.4375 Z M 7.65625 -12.4375 "/></g></g></g><g fill="#000000" fill-opacity="1"><g transform="translate(453.608602, 36.600763)"><g><path d="M 14.25 -21.265625 C 14.601562 -21.191406 14.96875 -21 15.34375 -20.6875 C 15.726562 -20.382812 16.046875 -19.867188 16.296875 -19.140625 C 16.421875 -18.710938 16.484375 -18.269531 16.484375 -17.8125 C 16.484375 -17.363281 16.421875 -16.921875 16.296875 -16.484375 C 16.046875 -15.503906 15.664062 -14.851562 15.15625 -14.53125 C 14.65625 -14.21875 14.164062 -14.148438 13.6875 -14.328125 C 13.207031 -14.484375 12.703125 -14.5625 12.171875 -14.5625 C 10.523438 -14.5625 9.347656 -13.507812 8.640625 -11.40625 L 8.640625 -10.5 C 8.640625 -10.09375 8.632812 -9.675781 8.625 -9.25 C 8.613281 -8.820312 8.609375 -8.40625 8.609375 -8 C 8.609375 -7.21875 8.613281 -6.441406 8.625 -5.671875 C 8.632812 -4.898438 8.65625 -4.109375 8.6875 -3.296875 C 8.757812 -1.097656 7.707031 0 5.53125 0 L 5.421875 0 C 3.273438 0 2.203125 -1.070312 2.203125 -3.21875 C 2.222656 -4.4375 2.238281 -5.644531 2.25 -6.84375 C 2.269531 -8.039062 2.28125 -9.257812 2.28125 -10.5 C 2.28125 -11.757812 2.269531 -12.984375 2.25 -14.171875 C 2.238281 -15.359375 2.222656 -16.5625 2.203125 -17.78125 C 2.203125 -19.925781 3.222656 -21 5.265625 -21 C 7.316406 -21 8.34375 -20.191406 8.34375 -18.578125 L 8.34375 -16.109375 L 8.453125 -16.03125 C 8.753906 -17.601562 9.328125 -18.878906 10.171875 -19.859375 C 11.023438 -20.847656 12.070312 -21.34375 13.3125 -21.34375 C 13.507812 -21.34375 13.6875 -21.332031 13.84375 -21.3125 C 14.007812 -21.300781 14.144531 -21.285156 14.25 -21.265625 Z M 14.25 -21.265625 "/></g></g></g><g fill="#000000" fill-opacity="1"><g transform="translate(470.132524, 36.600763)"><g><path d="M 11.109375 0.375 C 7.742188 0.375 5.273438 -0.519531 3.703125 -2.3125 C 2.140625 -4.101562 1.359375 -6.796875 1.359375 -10.390625 C 1.359375 -17.660156 4.671875 -21.296875 11.296875 -21.296875 C 13.617188 -21.296875 15.457031 -20.8125 16.8125 -19.84375 C 18.164062 -18.875 19.054688 -17.46875 19.484375 -15.625 C 19.734375 -14.5625 19.59375 -13.734375 19.0625 -13.140625 C 18.53125 -12.546875 17.785156 -12.25 16.828125 -12.25 C 15.847656 -12.25 15.160156 -12.492188 14.765625 -12.984375 C 14.367188 -13.472656 13.972656 -14.1875 13.578125 -15.125 C 13.398438 -15.53125 13.117188 -15.820312 12.734375 -16 C 12.359375 -16.175781 11.84375 -16.265625 11.1875 -16.265625 C 9.96875 -16.265625 9.101562 -15.828125 8.59375 -14.953125 C 8.09375 -14.078125 7.84375 -12.554688 7.84375 -10.390625 C 7.84375 -8.742188 7.984375 -7.472656 8.265625 -6.578125 C 8.546875 -5.679688 8.9375 -5.066406 9.4375 -4.734375 C 9.945312 -4.410156 10.53125 -4.25 11.1875 -4.25 C 12.269531 -4.25 13.023438 -4.515625 13.453125 -5.046875 C 13.859375 -5.597656 14.191406 -6.078125 14.453125 -6.484375 C 14.722656 -6.890625 15.023438 -7.203125 15.359375 -7.421875 C 15.703125 -7.648438 16.191406 -7.765625 16.828125 -7.765625 C 17.734375 -7.765625 18.453125 -7.488281 18.984375 -6.9375 C 19.515625 -6.382812 19.644531 -5.625 19.375 -4.65625 C 18.4375 -1.300781 15.679688 0.375 11.109375 0.375 Z M 11.109375 0.375 "/></g></g></g><g fill="#000000" fill-opacity="1"><g transform="translate(491.014826, 36.600763)"><g><path d="M 11.140625 0.375 C 7.753906 0.375 5.273438 -0.550781 3.703125 -2.40625 C 2.140625 -4.257812 1.359375 -7.054688 1.359375 -10.796875 C 1.359375 -17.796875 4.617188 -21.296875 11.140625 -21.296875 C 13.492188 -21.296875 15.382812 -20.800781 16.8125 -19.8125 C 18.238281 -18.832031 19.234375 -17.453125 19.796875 -15.671875 C 20.367188 -13.890625 20.53125 -11.820312 20.28125 -9.46875 C 20.226562 -9.070312 20.039062 -8.875 19.71875 -8.875 L 7.625 -8.875 C 7.664062 -7.582031 7.84375 -6.582031 8.15625 -5.875 C 8.476562 -5.164062 8.898438 -4.675781 9.421875 -4.40625 C 9.941406 -4.144531 10.53125 -4.015625 11.1875 -4.015625 C 12.164062 -4.015625 12.945312 -4.179688 13.53125 -4.515625 C 14.007812 -4.835938 14.378906 -5.148438 14.640625 -5.453125 C 14.910156 -5.753906 15.195312 -6.003906 15.5 -6.203125 C 15.800781 -6.410156 16.21875 -6.515625 16.75 -6.515625 C 17.738281 -6.515625 18.519531 -6.269531 19.09375 -5.78125 C 19.675781 -5.289062 19.832031 -4.613281 19.5625 -3.75 C 18.675781 -1 15.867188 0.375 11.140625 0.375 Z M 7.65625 -12.4375 L 13.875 -12.4375 C 13.925781 -13.945312 13.710938 -15.082031 13.234375 -15.84375 C 12.753906 -16.601562 11.957031 -16.984375 10.84375 -16.984375 C 9.851562 -16.984375 9.066406 -16.609375 8.484375 -15.859375 C 7.910156 -15.117188 7.632812 -13.976562 7.65625 -12.4375 Z M 7.65625 -12.4375 "/></g></g></g></g></g><path stroke-linecap="butt" transform="matrix(0.75, 0, 0, 0.75, 164.149098, 215.230973)" fill="none" stroke-linejoin="miter" d="M -0.000880695 1.999328 L 362.269976 1.999328 " stroke="#2b7fff" stroke-width="4" stroke-opacity="1" stroke-miterlimit="4"/><g fill="#000000" fill-opacity="1"><g transform="translate(199.186693, 243.03098)"><g><path d="M 5.765625 -2.921875 C 6.410156 -2.941406 7.054688 -2.953125 7.703125 -2.953125 C 8.347656 -2.953125 8.976562 -2.957031 9.59375 -2.96875 C 10.84375 -2.96875 11.46875 -2.476562 11.46875 -1.5 C 11.46875 -0.5 10.84375 0 9.59375 0 L 3.515625 0 C 2.921875 0 2.460938 -0.160156 2.140625 -0.484375 C 1.816406 -0.804688 1.660156 -1.269531 1.671875 -1.875 C 1.671875 -2.84375 1.671875 -3.804688 1.671875 -4.765625 C 1.679688 -5.722656 1.6875 -6.679688 1.6875 -7.640625 C 1.6875 -8.585938 1.679688 -9.539062 1.671875 -10.5 C 1.671875 -11.46875 1.671875 -12.425781 1.671875 -13.375 C 1.660156 -13.976562 1.816406 -14.441406 2.140625 -14.765625 C 2.460938 -15.085938 2.921875 -15.25 3.515625 -15.25 L 9.375 -15.25 C 10.613281 -15.25 11.234375 -14.753906 11.234375 -13.765625 C 11.234375 -12.773438 10.613281 -12.28125 9.375 -12.28125 C 8.78125 -12.289062 8.179688 -12.296875 7.578125 -12.296875 C 6.972656 -12.296875 6.367188 -12.300781 5.765625 -12.3125 L 5.765625 -8.953125 C 6.234375 -8.960938 6.691406 -8.96875 7.140625 -8.96875 C 7.597656 -8.96875 8.046875 -8.976562 8.484375 -9 C 9.734375 -9 10.359375 -8.507812 10.359375 -7.53125 C 10.359375 -6.53125 9.734375 -6.03125 8.484375 -6.03125 C 8.046875 -6.039062 7.597656 -6.046875 7.140625 -6.046875 C 6.691406 -6.046875 6.234375 -6.054688 5.765625 -6.078125 Z M 5.765625 -2.921875 "/></g></g></g><g fill="#000000" fill-opacity="1"><g transform="translate(211.614472, 243.03098)"><g><path d="M 6.96875 -2.65625 C 7.613281 -2.6875 8.113281 -2.65625 8.46875 -2.5625 C 8.820312 -2.46875 9.019531 -2.191406 9.0625 -1.734375 C 9.101562 -1.265625 9.023438 -0.859375 8.828125 -0.515625 C 8.628906 -0.179688 8.289062 0.03125 7.8125 0.125 C 7.375 0.21875 6.890625 0.265625 6.359375 0.265625 C 5.453125 0.265625 4.660156 0.125 3.984375 -0.15625 C 3.316406 -0.4375 2.800781 -0.890625 2.4375 -1.515625 C 2.082031 -2.148438 1.914062 -3 1.9375 -4.0625 C 1.945312 -4.707031 1.953125 -5.382812 1.953125 -6.09375 C 1.953125 -6.800781 1.953125 -7.503906 1.953125 -8.203125 L 1.953125 -9.34375 L 1.9375 -9.34375 C 0.6875 -9.34375 0.0625 -9.816406 0.0625 -10.765625 C 0.0625 -11.703125 0.378906 -12.171875 1.015625 -12.171875 L 1.9375 -12.171875 C 1.9375 -12.359375 1.929688 -12.539062 1.921875 -12.71875 C 1.910156 -12.894531 1.90625 -13.078125 1.90625 -13.265625 C 1.90625 -14.347656 2.421875 -15.050781 3.453125 -15.375 C 4.066406 -15.582031 4.5625 -15.566406 4.9375 -15.328125 C 5.3125 -15.097656 5.5 -14.691406 5.5 -14.109375 L 5.5 -12.171875 L 7.046875 -12.171875 C 8.285156 -12.171875 8.90625 -11.707031 8.90625 -10.78125 C 8.90625 -9.851562 8.34375 -9.390625 7.21875 -9.390625 L 5.5 -9.375 C 5.5 -9.1875 5.492188 -8.992188 5.484375 -8.796875 C 5.484375 -8.609375 5.484375 -8.410156 5.484375 -8.203125 C 5.460938 -7.578125 5.453125 -6.945312 5.453125 -6.3125 C 5.453125 -5.6875 5.453125 -5.085938 5.453125 -4.515625 C 5.453125 -3.265625 5.957031 -2.644531 6.96875 -2.65625 Z M 6.96875 -2.65625 "/></g></g></g><g fill="#000000" fill-opacity="1"><g transform="translate(221.072785, 243.03098)"><g/></g></g><g fill="#000000" fill-opacity="1"><g transform="translate(226.571808, 243.03098)"><g><path d="M 7.671875 -12.34375 C 8.566406 -12.34375 9.367188 -12.15625 10.078125 -11.78125 C 10.796875 -11.414062 11.367188 -10.796875 11.796875 -9.921875 C 12.222656 -9.046875 12.4375 -7.835938 12.4375 -6.296875 C 12.4375 -4.835938 12.222656 -3.625 11.796875 -2.65625 C 11.378906 -1.6875 10.816406 -0.960938 10.109375 -0.484375 C 9.398438 -0.00390625 8.613281 0.234375 7.75 0.234375 C 7.070312 0.234375 6.472656 0.0507812 5.953125 -0.3125 C 5.441406 -0.6875 5.050781 -1.175781 4.78125 -1.78125 L 4.640625 -1.546875 C 4.734375 -0.847656 4.796875 -0.15625 4.828125 0.53125 C 4.867188 1.226562 4.894531 1.929688 4.90625 2.640625 C 4.914062 3.242188 4.757812 3.707031 4.4375 4.03125 C 4.113281 4.351562 3.65625 4.515625 3.0625 4.515625 L 3.015625 4.515625 C 1.765625 4.515625 1.140625 3.890625 1.140625 2.640625 C 1.160156 1.160156 1.175781 -0.285156 1.1875 -1.703125 C 1.195312 -3.128906 1.203125 -4.59375 1.203125 -6.09375 C 1.203125 -6.820312 1.195312 -7.53125 1.1875 -8.21875 C 1.1875 -8.914062 1.179688 -9.613281 1.171875 -10.3125 C 1.148438 -10.914062 1.300781 -11.378906 1.625 -11.703125 C 1.945312 -12.023438 2.410156 -12.1875 3.015625 -12.1875 L 3.0625 -12.1875 C 4.300781 -12.1875 4.921875 -12.019531 4.921875 -11.6875 L 4.921875 -11.171875 C 5.234375 -11.492188 5.613281 -11.769531 6.0625 -12 C 6.507812 -12.226562 7.046875 -12.34375 7.671875 -12.34375 Z M 6.734375 -2.734375 C 7.109375 -2.734375 7.457031 -2.820312 7.78125 -3 C 8.101562 -3.1875 8.363281 -3.519531 8.5625 -4 C 8.757812 -4.488281 8.859375 -5.179688 8.859375 -6.078125 C 8.859375 -7.242188 8.664062 -8.0625 8.28125 -8.53125 C 7.894531 -9 7.347656 -9.234375 6.640625 -9.234375 C 6.234375 -9.234375 5.890625 -9.164062 5.609375 -9.03125 C 5.328125 -8.894531 5.078125 -8.675781 4.859375 -8.375 C 4.878906 -8.289062 4.890625 -8.1875 4.890625 -8.0625 C 4.890625 -7.9375 4.890625 -7.71875 4.890625 -7.40625 C 4.898438 -7.09375 4.898438 -6.613281 4.890625 -5.96875 C 4.867188 -5.726562 4.859375 -5.492188 4.859375 -5.265625 C 4.859375 -5.035156 4.859375 -4.804688 4.859375 -4.578125 L 4.890625 -4.59375 C 4.910156 -3.875 5.097656 -3.382812 5.453125 -3.125 C 5.816406 -2.863281 6.242188 -2.734375 6.734375 -2.734375 Z M 6.734375 -2.734375 "/></g></g></g><g fill="#000000" fill-opacity="1"><g transform="translate(239.791449, 243.03098)"><g><path d="M 8.265625 -12.34375 C 8.472656 -12.300781 8.6875 -12.191406 8.90625 -12.015625 C 9.125 -11.835938 9.304688 -11.535156 9.453125 -11.109375 C 9.523438 -10.859375 9.5625 -10.597656 9.5625 -10.328125 C 9.5625 -10.066406 9.523438 -9.8125 9.453125 -9.5625 C 9.304688 -9 9.085938 -8.625 8.796875 -8.4375 C 8.503906 -8.25 8.21875 -8.207031 7.9375 -8.3125 C 7.664062 -8.40625 7.375 -8.453125 7.0625 -8.453125 C 6.101562 -8.453125 5.421875 -7.84375 5.015625 -6.625 L 5.015625 -6.09375 C 5.015625 -5.851562 5.007812 -5.609375 5 -5.359375 C 5 -5.117188 5 -4.878906 5 -4.640625 C 5 -4.179688 5 -3.726562 5 -3.28125 C 5.007812 -2.84375 5.019531 -2.382812 5.03125 -1.90625 C 5.082031 -0.632812 4.476562 0 3.21875 0 L 3.140625 0 C 1.898438 0 1.28125 -0.625 1.28125 -1.875 C 1.289062 -2.570312 1.296875 -3.269531 1.296875 -3.96875 C 1.304688 -4.664062 1.3125 -5.375 1.3125 -6.09375 C 1.3125 -6.820312 1.304688 -7.53125 1.296875 -8.21875 C 1.296875 -8.914062 1.289062 -9.613281 1.28125 -10.3125 C 1.28125 -11.5625 1.875 -12.1875 3.0625 -12.1875 C 4.25 -12.1875 4.84375 -11.71875 4.84375 -10.78125 L 4.84375 -9.34375 L 4.90625 -9.3125 C 5.082031 -10.21875 5.414062 -10.957031 5.90625 -11.53125 C 6.394531 -12.101562 7 -12.390625 7.71875 -12.390625 C 7.832031 -12.390625 7.9375 -12.382812 8.03125 -12.375 C 8.132812 -12.363281 8.210938 -12.351562 8.265625 -12.34375 Z M 8.265625 -12.34375 "/></g></g></g><g fill="#000000" fill-opacity="1"><g transform="translate(249.689695, 243.03098)"><g><path d="M 6.453125 0.265625 C 2.679688 0.265625 0.796875 -1.835938 0.796875 -6.046875 C 0.796875 -10.253906 2.679688 -12.359375 6.453125 -12.359375 C 10.160156 -12.359375 12.015625 -10.253906 12.015625 -6.046875 C 12.015625 -1.835938 10.160156 0.265625 6.453125 0.265625 Z M 6.453125 -2.421875 C 6.796875 -2.421875 7.101562 -2.519531 7.375 -2.71875 C 7.644531 -2.914062 7.859375 -3.273438 8.015625 -3.796875 C 8.171875 -4.328125 8.25 -5.078125 8.25 -6.046875 C 8.25 -7.398438 8.109375 -8.34375 7.828125 -8.875 C 7.546875 -9.414062 7.085938 -9.6875 6.453125 -9.6875 C 5.753906 -9.6875 5.257812 -9.414062 4.96875 -8.875 C 4.6875 -8.34375 4.546875 -7.398438 4.546875 -6.046875 C 4.546875 -5.078125 4.625 -4.328125 4.78125 -3.796875 C 4.945312 -3.273438 5.171875 -2.914062 5.453125 -2.71875 C 5.742188 -2.519531 6.078125 -2.421875 6.453125 -2.421875 Z M 6.453125 -2.421875 "/></g></g></g><g fill="#000000" fill-opacity="1"><g transform="translate(262.535401, 243.03098)"><g><path d="M 10.203125 -16.03125 C 11.453125 -16.03125 12.078125 -15.410156 12.078125 -14.171875 C 12.066406 -12.734375 12.050781 -11.3125 12.03125 -9.90625 C 12.019531 -8.507812 12.015625 -7.082031 12.015625 -5.625 C 12.015625 -4.976562 12.015625 -4.347656 12.015625 -3.734375 C 12.023438 -3.117188 12.039062 -2.5 12.0625 -1.875 C 12.082031 -0.625 11.582031 0 10.5625 0 C 9.53125 0 8.941406 -0.210938 8.796875 -0.640625 C 8.765625 -0.753906 8.734375 -0.863281 8.703125 -0.96875 C 8.679688 -1.082031 8.65625 -1.191406 8.625 -1.296875 C 8.332031 -0.898438 7.929688 -0.546875 7.421875 -0.234375 C 6.921875 0.078125 6.296875 0.234375 5.546875 0.234375 C 4.660156 0.234375 3.859375 0.0507812 3.140625 -0.3125 C 2.421875 -0.675781 1.847656 -1.296875 1.421875 -2.171875 C 1.003906 -3.054688 0.796875 -4.269531 0.796875 -5.8125 C 0.796875 -7.257812 1.003906 -8.46875 1.421875 -9.4375 C 1.835938 -10.40625 2.398438 -11.128906 3.109375 -11.609375 C 3.828125 -12.097656 4.617188 -12.34375 5.484375 -12.34375 C 6.078125 -12.34375 6.613281 -12.195312 7.09375 -11.90625 C 7.570312 -11.613281 7.957031 -11.21875 8.25 -10.71875 C 8.238281 -11.289062 8.234375 -11.859375 8.234375 -12.421875 C 8.234375 -12.992188 8.222656 -13.578125 8.203125 -14.171875 C 8.203125 -15.410156 8.828125 -16.03125 10.078125 -16.03125 Z M 6.578125 -2.859375 C 6.960938 -2.859375 7.273438 -2.910156 7.515625 -3.015625 C 7.765625 -3.128906 7.988281 -3.296875 8.1875 -3.515625 C 8.1875 -3.867188 8.1875 -4.21875 8.1875 -4.5625 C 8.195312 -4.90625 8.210938 -5.257812 8.234375 -5.625 C 8.242188 -6.050781 8.25 -6.476562 8.25 -6.90625 C 8.25 -7.332031 8.25 -7.75 8.25 -8.15625 C 8.113281 -8.613281 7.882812 -8.929688 7.5625 -9.109375 C 7.238281 -9.285156 6.878906 -9.375 6.484375 -9.375 C 6.109375 -9.375 5.757812 -9.28125 5.4375 -9.09375 C 5.113281 -8.914062 4.851562 -8.585938 4.65625 -8.109375 C 4.457031 -7.628906 4.359375 -6.9375 4.359375 -6.03125 C 4.359375 -4.875 4.550781 -4.054688 4.9375 -3.578125 C 5.320312 -3.097656 5.867188 -2.859375 6.578125 -2.859375 Z M 6.578125 -2.859375 "/></g></g></g><g fill="#000000" fill-opacity="1"><g transform="translate(275.799034, 243.03098)"><g><path d="M 10.203125 -12.171875 C 11.453125 -12.171875 12.078125 -11.546875 12.078125 -10.296875 C 12.066406 -9.515625 12.054688 -8.738281 12.046875 -7.96875 C 12.035156 -7.195312 12.03125 -6.414062 12.03125 -5.625 C 12.03125 -5 12.035156 -4.375 12.046875 -3.75 C 12.054688 -3.125 12.0625 -2.5 12.0625 -1.875 C 12.070312 -1.269531 11.941406 -0.804688 11.671875 -0.484375 C 11.410156 -0.160156 11.039062 0 10.5625 0 C 9.519531 0 8.90625 -0.328125 8.71875 -0.984375 C 8.625 -1.359375 8.554688 -1.707031 8.515625 -2.03125 C 8.179688 -1.3125 7.703125 -0.753906 7.078125 -0.359375 C 6.453125 0.0351562 5.707031 0.234375 4.84375 0.234375 C 4.125 0.234375 3.492188 0.0859375 2.953125 -0.203125 C 2.410156 -0.492188 1.992188 -0.96875 1.703125 -1.625 C 1.421875 -2.289062 1.285156 -3.179688 1.296875 -4.296875 C 1.328125 -5.316406 1.332031 -6.316406 1.3125 -7.296875 C 1.300781 -8.285156 1.289062 -9.285156 1.28125 -10.296875 C 1.28125 -11.546875 1.898438 -12.171875 3.140625 -12.171875 L 3.28125 -12.171875 C 4.519531 -12.171875 5.140625 -11.546875 5.140625 -10.296875 C 5.128906 -9.398438 5.117188 -8.519531 5.109375 -7.65625 C 5.109375 -6.789062 5.109375 -5.90625 5.109375 -5 C 5.109375 -4.289062 5.234375 -3.757812 5.484375 -3.40625 C 5.734375 -3.050781 6.078125 -2.882812 6.515625 -2.90625 C 7.023438 -2.914062 7.4375 -3.148438 7.75 -3.609375 C 8.070312 -4.066406 8.234375 -4.738281 8.234375 -5.625 C 8.253906 -6.414062 8.257812 -7.195312 8.25 -7.96875 C 8.25 -8.738281 8.242188 -9.515625 8.234375 -10.296875 C 8.210938 -10.898438 8.363281 -11.363281 8.6875 -11.6875 C 9.007812 -12.007812 9.472656 -12.171875 10.078125 -12.171875 Z M 10.203125 -12.171875 "/></g></g></g><g fill="#000000" fill-opacity="1"><g transform="translate(289.15065, 243.03098)"><g><path d="M 11.921875 -2.0625 C 12.128906 -1.4375 12.085938 -0.9375 11.796875 -0.5625 C 11.503906 -0.1875 11.019531 0 10.34375 0 L 9.71875 0 C 8.625 0 7.921875 -0.570312 7.609375 -1.71875 C 7.378906 -2.582031 7.160156 -3.25 6.953125 -3.71875 C 6.742188 -4.1875 6.507812 -4.507812 6.25 -4.6875 C 6 -4.875 5.691406 -4.96875 5.328125 -4.96875 L 5 -4.96875 C 5 -4.457031 5 -3.941406 5 -3.421875 C 5 -2.910156 5.003906 -2.394531 5.015625 -1.875 C 5.015625 -0.625 4.390625 0 3.140625 0 L 3.015625 0 C 1.765625 0 1.140625 -0.625 1.140625 -1.875 C 1.160156 -2.9375 1.175781 -3.984375 1.1875 -5.015625 C 1.195312 -6.054688 1.203125 -7.117188 1.203125 -8.203125 C 1.203125 -9.171875 1.195312 -10.144531 1.1875 -11.125 C 1.175781 -12.113281 1.160156 -13.09375 1.140625 -14.0625 C 1.140625 -15.300781 1.765625 -15.921875 3.015625 -15.921875 L 3.140625 -15.921875 C 4.390625 -15.921875 5.015625 -15.300781 5.015625 -14.0625 C 5.015625 -13.09375 5.015625 -12.113281 5.015625 -11.125 C 5.015625 -10.144531 5.007812 -9.171875 5 -8.203125 L 5 -7.34375 C 5.519531 -7.632812 5.976562 -8.066406 6.375 -8.640625 C 6.769531 -9.210938 7.078125 -9.835938 7.296875 -10.515625 C 7.472656 -11.054688 7.71875 -11.46875 8.03125 -11.75 C 8.351562 -12.03125 8.789062 -12.171875 9.34375 -12.171875 L 9.796875 -12.171875 C 10.484375 -12.171875 10.988281 -11.960938 11.3125 -11.546875 C 11.632812 -11.140625 11.625 -10.617188 11.28125 -9.984375 C 10.875 -9.234375 10.394531 -8.578125 9.84375 -8.015625 C 9.289062 -7.453125 8.726562 -7.050781 8.15625 -6.8125 L 8.15625 -6.734375 C 8.800781 -6.660156 9.335938 -6.484375 9.765625 -6.203125 C 10.191406 -5.921875 10.566406 -5.457031 10.890625 -4.8125 C 11.222656 -4.164062 11.566406 -3.25 11.921875 -2.0625 Z M 11.921875 -2.0625 "/></g></g></g><g fill="#000000" fill-opacity="1"><g transform="translate(302.3263, 243.03098)"><g><path d="M 6.96875 -2.65625 C 7.613281 -2.6875 8.113281 -2.65625 8.46875 -2.5625 C 8.820312 -2.46875 9.019531 -2.191406 9.0625 -1.734375 C 9.101562 -1.265625 9.023438 -0.859375 8.828125 -0.515625 C 8.628906 -0.179688 8.289062 0.03125 7.8125 0.125 C 7.375 0.21875 6.890625 0.265625 6.359375 0.265625 C 5.453125 0.265625 4.660156 0.125 3.984375 -0.15625 C 3.316406 -0.4375 2.800781 -0.890625 2.4375 -1.515625 C 2.082031 -2.148438 1.914062 -3 1.9375 -4.0625 C 1.945312 -4.707031 1.953125 -5.382812 1.953125 -6.09375 C 1.953125 -6.800781 1.953125 -7.503906 1.953125 -8.203125 L 1.953125 -9.34375 L 1.9375 -9.34375 C 0.6875 -9.34375 0.0625 -9.816406 0.0625 -10.765625 C 0.0625 -11.703125 0.378906 -12.171875 1.015625 -12.171875 L 1.9375 -12.171875 C 1.9375 -12.359375 1.929688 -12.539062 1.921875 -12.71875 C 1.910156 -12.894531 1.90625 -13.078125 1.90625 -13.265625 C 1.90625 -14.347656 2.421875 -15.050781 3.453125 -15.375 C 4.066406 -15.582031 4.5625 -15.566406 4.9375 -15.328125 C 5.3125 -15.097656 5.5 -14.691406 5.5 -14.109375 L 5.5 -12.171875 L 7.046875 -12.171875 C 8.285156 -12.171875 8.90625 -11.707031 8.90625 -10.78125 C 8.90625 -9.851562 8.34375 -9.390625 7.21875 -9.390625 L 5.5 -9.375 C 5.5 -9.1875 5.492188 -8.992188 5.484375 -8.796875 C 5.484375 -8.609375 5.484375 -8.410156 5.484375 -8.203125 C 5.460938 -7.578125 5.453125 -6.945312 5.453125 -6.3125 C 5.453125 -5.6875 5.453125 -5.085938 5.453125 -4.515625 C 5.453125 -3.265625 5.957031 -2.644531 6.96875 -2.65625 Z M 6.96875 -2.65625 "/></g></g></g><g fill="#000000" fill-opacity="1"><g transform="translate(311.784612, 243.03098)"><g/></g></g><g fill="#000000" fill-opacity="1"><g transform="translate(317.283635, 243.03098)"><g><path d="M 4.59375 0.21875 C 3.875 0.21875 3.21875 0.101562 2.625 -0.125 C 2.03125 -0.363281 1.554688 -0.726562 1.203125 -1.21875 C 0.859375 -1.707031 0.6875 -2.335938 0.6875 -3.109375 C 0.6875 -4.484375 1.269531 -5.519531 2.4375 -6.21875 C 3.601562 -6.914062 5.421875 -7.226562 7.890625 -7.15625 L 7.890625 -7.890625 C 7.890625 -8.703125 7.773438 -9.253906 7.546875 -9.546875 C 7.328125 -9.835938 6.972656 -9.984375 6.484375 -9.984375 C 6.210938 -9.984375 5.957031 -9.941406 5.71875 -9.859375 C 5.488281 -9.785156 5.304688 -9.644531 5.171875 -9.4375 C 4.960938 -9.113281 4.785156 -8.832031 4.640625 -8.59375 C 4.503906 -8.363281 4.347656 -8.1875 4.171875 -8.0625 C 4.003906 -7.9375 3.734375 -7.875 3.359375 -7.875 L 3.140625 -7.875 C 2.523438 -7.875 2.03125 -8.039062 1.65625 -8.375 C 1.28125 -8.71875 1.179688 -9.191406 1.359375 -9.796875 C 1.609375 -10.660156 2.171875 -11.300781 3.046875 -11.71875 C 3.929688 -12.144531 5.175781 -12.359375 6.78125 -12.359375 C 10.050781 -12.359375 11.6875 -10.894531 11.6875 -7.96875 C 11.6875 -6.644531 11.6875 -5.488281 11.6875 -4.5 C 11.695312 -3.519531 11.71875 -2.65625 11.75 -1.90625 C 11.78125 -1.289062 11.644531 -0.816406 11.34375 -0.484375 C 11.050781 -0.160156 10.609375 0 10.015625 0 L 9.8125 0 C 8.695312 0 8.097656 -0.175781 8.015625 -0.53125 C 7.984375 -0.613281 7.957031 -0.695312 7.9375 -0.78125 C 7.925781 -0.875 7.910156 -0.96875 7.890625 -1.0625 C 7.453125 -0.632812 6.945312 -0.3125 6.375 -0.09375 C 5.800781 0.113281 5.207031 0.21875 4.59375 0.21875 Z M 5.765625 -2.265625 C 6.265625 -2.265625 6.6875 -2.363281 7.03125 -2.5625 C 7.382812 -2.757812 7.6875 -3.039062 7.9375 -3.40625 L 7.9375 -5.390625 C 7.28125 -5.378906 6.664062 -5.328125 6.09375 -5.234375 C 5.519531 -5.148438 5.054688 -4.988281 4.703125 -4.75 C 4.359375 -4.519531 4.1875 -4.171875 4.1875 -3.703125 C 4.1875 -3.285156 4.320312 -2.941406 4.59375 -2.671875 C 4.863281 -2.398438 5.253906 -2.265625 5.765625 -2.265625 Z M 5.765625 -2.265625 "/></g></g></g><g fill="#000000" fill-opacity="1"><g transform="translate(330.08535, 243.03098)"><g><path d="M 6.3125 0.21875 C 5.476562 0.21875 4.738281 0.046875 4.09375 -0.296875 C 3.457031 -0.640625 2.921875 -1.207031 2.484375 -2 C 2.046875 -2.789062 1.703125 -3.851562 1.453125 -5.1875 C 1.210938 -6.519531 1.066406 -8.175781 1.015625 -10.15625 C 0.992188 -10.800781 1.148438 -11.296875 1.484375 -11.640625 C 1.816406 -11.992188 2.28125 -12.171875 2.875 -12.171875 L 3.078125 -12.171875 C 4.328125 -12.171875 4.953125 -11.492188 4.953125 -10.140625 C 4.984375 -8.222656 5.050781 -6.726562 5.15625 -5.65625 C 5.269531 -4.59375 5.441406 -3.851562 5.671875 -3.4375 C 5.910156 -3.019531 6.210938 -2.8125 6.578125 -2.8125 C 6.867188 -2.8125 7.128906 -2.898438 7.359375 -3.078125 C 7.585938 -3.253906 7.769531 -3.59375 7.90625 -4.09375 C 8.050781 -4.59375 8.148438 -5.320312 8.203125 -6.28125 C 8.265625 -7.238281 8.28125 -8.503906 8.25 -10.078125 C 8.21875 -11.472656 8.78125 -12.171875 9.9375 -12.171875 C 10.5 -12.171875 10.929688 -11.773438 11.234375 -10.984375 C 11.546875 -10.191406 11.632812 -9.046875 11.5 -7.546875 C 11.320312 -5.597656 11.007812 -4.050781 10.5625 -2.90625 C 10.125 -1.769531 9.546875 -0.960938 8.828125 -0.484375 C 8.117188 -0.015625 7.28125 0.21875 6.3125 0.21875 Z M 6.3125 0.21875 "/></g></g></g><g fill="#000000" fill-opacity="1"><g transform="translate(342.755092, 243.03098)"><g/></g></g><g fill="#000000" fill-opacity="1"><g transform="translate(348.254115, 243.03098)"><g><path d="M 3.515625 0 C 2.273438 0 1.65625 -0.625 1.65625 -1.875 L 1.65625 -13.375 C 1.65625 -14.625 2.273438 -15.25 3.515625 -15.25 L 3.921875 -15.25 C 5.160156 -15.25 5.78125 -14.625 5.78125 -13.375 L 5.78125 -1.875 C 5.78125 -0.625 5.160156 0 3.921875 0 Z M 3.515625 0 "/></g></g></g><g fill="#000000" fill-opacity="1"><g transform="translate(355.688792, 243.03098)"><g><path d="M 12.234375 -1.890625 C 12.234375 -0.628906 11.609375 0 10.359375 0 L 10.296875 0 C 9.046875 0 8.421875 -0.628906 8.421875 -1.890625 C 8.441406 -2.898438 8.453125 -3.863281 8.453125 -4.78125 C 8.460938 -5.695312 8.46875 -6.535156 8.46875 -7.296875 C 8.46875 -8.015625 8.34375 -8.515625 8.09375 -8.796875 C 7.84375 -9.078125 7.46875 -9.210938 6.96875 -9.203125 C 6.125 -9.171875 5.515625 -8.742188 5.140625 -7.921875 C 5.140625 -7.628906 5.132812 -7.320312 5.125 -7 C 5.125 -6.6875 5.125 -6.378906 5.125 -6.078125 C 5.113281 -5.359375 5.109375 -4.648438 5.109375 -3.953125 C 5.117188 -3.265625 5.128906 -2.570312 5.140625 -1.875 C 5.140625 -0.625 4.519531 0 3.28125 0 L 3.140625 0 C 1.898438 0 1.28125 -0.625 1.28125 -1.875 C 1.289062 -2.570312 1.296875 -3.265625 1.296875 -3.953125 C 1.304688 -4.648438 1.3125 -5.359375 1.3125 -6.078125 C 1.3125 -6.804688 1.304688 -7.519531 1.296875 -8.21875 C 1.296875 -8.914062 1.289062 -9.613281 1.28125 -10.3125 C 1.28125 -11.5625 1.894531 -12.1875 3.125 -12.1875 C 3.707031 -12.1875 4.15625 -12.097656 4.46875 -11.921875 C 4.789062 -11.742188 4.941406 -11.488281 4.921875 -11.15625 C 4.921875 -11.007812 4.921875 -10.847656 4.921875 -10.671875 C 4.921875 -10.503906 4.921875 -10.3125 4.921875 -10.09375 L 5 -10.09375 C 5.414062 -10.875 5.941406 -11.445312 6.578125 -11.8125 C 7.222656 -12.175781 7.972656 -12.359375 8.828125 -12.359375 C 9.984375 -12.359375 10.847656 -11.960938 11.421875 -11.171875 C 11.992188 -10.378906 12.253906 -9.078125 12.203125 -7.265625 C 12.191406 -6.492188 12.1875 -5.65625 12.1875 -4.75 C 12.195312 -3.84375 12.210938 -2.890625 12.234375 -1.890625 Z M 12.234375 -1.890625 "/></g></g></g><g fill="#000000" fill-opacity="1"><g transform="translate(369.084397, 243.03098)"><g><path d="M 3.125 -13.703125 C 2.3125 -13.703125 1.726562 -13.847656 1.375 -14.140625 C 1.019531 -14.441406 0.84375 -14.921875 0.84375 -15.578125 C 0.84375 -16.234375 1.019531 -16.707031 1.375 -17 C 1.726562 -17.300781 2.3125 -17.453125 3.125 -17.453125 C 3.945312 -17.453125 4.53125 -17.300781 4.875 -17 C 5.226562 -16.707031 5.40625 -16.234375 5.40625 -15.578125 C 5.40625 -14.921875 5.226562 -14.441406 4.875 -14.140625 C 4.53125 -13.847656 3.945312 -13.703125 3.125 -13.703125 Z M 3.1875 0 C 1.9375 0 1.3125 -0.625 1.3125 -1.875 L 1.3125 -3.734375 C 1.300781 -5.367188 1.296875 -6.703125 1.296875 -7.734375 C 1.296875 -8.765625 1.289062 -9.625 1.28125 -10.3125 C 1.28125 -11.550781 1.898438 -12.171875 3.140625 -12.171875 L 3.171875 -12.171875 C 4.410156 -12.171875 5.03125 -11.546875 5.03125 -10.296875 C 5.03125 -9.535156 5.03125 -8.734375 5.03125 -7.890625 C 5.03125 -7.054688 5.023438 -6.300781 5.015625 -5.625 C 5.003906 -5 5 -4.375 5 -3.75 C 5.007812 -3.125 5.015625 -2.5 5.015625 -1.875 C 5.046875 -0.625 4.4375 0 3.1875 0 Z M 3.1875 0 "/></g></g></g><g fill="#000000" fill-opacity="1"><g transform="translate(375.33128, 243.03098)"><g><path d="M 6.3125 0.21875 C 5.476562 0.21875 4.738281 0.046875 4.09375 -0.296875 C 3.457031 -0.640625 2.921875 -1.207031 2.484375 -2 C 2.046875 -2.789062 1.703125 -3.851562 1.453125 -5.1875 C 1.210938 -6.519531 1.066406 -8.175781 1.015625 -10.15625 C 0.992188 -10.800781 1.148438 -11.296875 1.484375 -11.640625 C 1.816406 -11.992188 2.28125 -12.171875 2.875 -12.171875 L 3.078125 -12.171875 C 4.328125 -12.171875 4.953125 -11.492188 4.953125 -10.140625 C 4.984375 -8.222656 5.050781 -6.726562 5.15625 -5.65625 C 5.269531 -4.59375 5.441406 -3.851562 5.671875 -3.4375 C 5.910156 -3.019531 6.210938 -2.8125 6.578125 -2.8125 C 6.867188 -2.8125 7.128906 -2.898438 7.359375 -3.078125 C 7.585938 -3.253906 7.769531 -3.59375 7.90625 -4.09375 C 8.050781 -4.59375 8.148438 -5.320312 8.203125 -6.28125 C 8.265625 -7.238281 8.28125 -8.503906 8.25 -10.078125 C 8.21875 -11.472656 8.78125 -12.171875 9.9375 -12.171875 C 10.5 -12.171875 10.929688 -11.773438 11.234375 -10.984375 C 11.546875 -10.191406 11.632812 -9.046875 11.5 -7.546875 C 11.320312 -5.597656 11.007812 -4.050781 10.5625 -2.90625 C 10.125 -1.769531 9.546875 -0.960938 8.828125 -0.484375 C 8.117188 -0.015625 7.28125 0.21875 6.3125 0.21875 Z M 6.3125 0.21875 "/></g></g></g><g fill="#000000" fill-opacity="1"><g transform="translate(388.001022, 243.03098)"><g><path d="M 4.59375 0.21875 C 3.875 0.21875 3.21875 0.101562 2.625 -0.125 C 2.03125 -0.363281 1.554688 -0.726562 1.203125 -1.21875 C 0.859375 -1.707031 0.6875 -2.335938 0.6875 -3.109375 C 0.6875 -4.484375 1.269531 -5.519531 2.4375 -6.21875 C 3.601562 -6.914062 5.421875 -7.226562 7.890625 -7.15625 L 7.890625 -7.890625 C 7.890625 -8.703125 7.773438 -9.253906 7.546875 -9.546875 C 7.328125 -9.835938 6.972656 -9.984375 6.484375 -9.984375 C 6.210938 -9.984375 5.957031 -9.941406 5.71875 -9.859375 C 5.488281 -9.785156 5.304688 -9.644531 5.171875 -9.4375 C 4.960938 -9.113281 4.785156 -8.832031 4.640625 -8.59375 C 4.503906 -8.363281 4.347656 -8.1875 4.171875 -8.0625 C 4.003906 -7.9375 3.734375 -7.875 3.359375 -7.875 L 3.140625 -7.875 C 2.523438 -7.875 2.03125 -8.039062 1.65625 -8.375 C 1.28125 -8.71875 1.179688 -9.191406 1.359375 -9.796875 C 1.609375 -10.660156 2.171875 -11.300781 3.046875 -11.71875 C 3.929688 -12.144531 5.175781 -12.359375 6.78125 -12.359375 C 10.050781 -12.359375 11.6875 -10.894531 11.6875 -7.96875 C 11.6875 -6.644531 11.6875 -5.488281 11.6875 -4.5 C 11.695312 -3.519531 11.71875 -2.65625 11.75 -1.90625 C 11.78125 -1.289062 11.644531 -0.816406 11.34375 -0.484375 C 11.050781 -0.160156 10.609375 0 10.015625 0 L 9.8125 0 C 8.695312 0 8.097656 -0.175781 8.015625 -0.53125 C 7.984375 -0.613281 7.957031 -0.695312 7.9375 -0.78125 C 7.925781 -0.875 7.910156 -0.96875 7.890625 -1.0625 C 7.453125 -0.632812 6.945312 -0.3125 6.375 -0.09375 C 5.800781 0.113281 5.207031 0.21875 4.59375 0.21875 Z M 5.765625 -2.265625 C 6.265625 -2.265625 6.6875 -2.363281 7.03125 -2.5625 C 7.382812 -2.757812 7.6875 -3.039062 7.9375 -3.40625 L 7.9375 -5.390625 C 7.28125 -5.378906 6.664062 -5.328125 6.09375 -5.234375 C 5.519531 -5.148438 5.054688 -4.988281 4.703125 -4.75 C 4.359375 -4.519531 4.1875 -4.171875 4.1875 -3.703125 C 4.1875 -3.285156 4.320312 -2.941406 4.59375 -2.671875 C 4.863281 -2.398438 5.253906 -2.265625 5.765625 -2.265625 Z M 5.765625 -2.265625 "/></g></g></g></svg>