<svg width="686" height="111" viewBox="0 0 686 111" fill="none" xmlns="http://www.w3.org/2000/svg">
<mask id="mask0_33_174" style="mask-type:luminance" maskUnits="userSpaceOnUse" x="0" y="0" width="686" height="63">
<path d="M685.333 0H0V62.6667H685.333V0Z" fill="white"/>
</mask>
<g mask="url(#mask0_33_174)">
<path d="M9.54435 48.8011C6.67977 48.8011 5.25269 47.374 5.25269 44.5094C5.27873 42.3167 5.29956 40.1136 5.31519 37.9053C5.34123 35.6969 5.35685 33.4834 5.35685 31.2594C5.35685 29.0667 5.34123 26.874 5.31519 24.6761C5.29956 22.4678 5.27873 20.2699 5.25269 18.0719C5.25269 15.2126 6.67977 13.7803 9.54435 13.7803H18.2319C23.3569 13.7803 27.0756 14.6501 29.3985 16.3844C31.7319 18.124 32.8985 20.9261 32.8985 24.8011C32.8985 27.5667 32.2319 29.9626 30.8985 31.9886C29.5652 34.0042 27.6798 35.5615 25.2527 36.6553C22.836 37.7386 19.9402 38.2803 16.5652 38.2803H14.711C14.711 39.3376 14.711 40.3792 14.711 41.4053C14.711 42.4365 14.7214 43.4678 14.7527 44.5094C14.7527 47.374 13.3204 48.8011 10.461 48.8011H9.54435ZM14.711 31.1136H16.4194C18.8048 31.1136 20.5235 30.6501 21.5652 29.7178C22.6173 28.7907 23.1485 27.2803 23.1485 25.1969C23.1485 23.6136 22.6746 22.4834 21.7319 21.8011C20.7839 21.1084 19.2631 20.7594 17.1694 20.7594H14.7527C14.7214 22.1084 14.711 23.5459 14.711 25.0719C14.711 26.6032 14.711 28.6136 14.711 31.1136Z" fill="black"/>
<path d="M51.9548 49.3011C46.9236 49.3011 43.2361 47.7959 40.8923 44.7803C38.559 41.7699 37.3923 37.2594 37.3923 31.2594C37.3923 19.2751 42.3611 13.2803 52.309 13.2803C56.0434 13.2803 59.0278 14.1917 61.2673 16.0094C63.5017 17.8324 64.7725 20.4574 65.0798 23.8844C65.2153 25.3011 64.8715 26.374 64.0382 27.0928C63.2153 27.8167 62.1215 28.1761 60.7465 28.1761H60.434C59.059 28.1761 58.059 27.8011 57.434 27.0511C56.809 26.2907 56.3923 25.1865 56.184 23.7386C55.9861 22.4209 55.559 21.4834 54.8923 20.9261C54.2361 20.374 53.2725 20.0928 51.9965 20.0928C50.2465 20.0928 48.9861 20.9261 48.2257 22.5928C47.4757 24.2594 47.1007 27.1501 47.1007 31.2594C47.1007 34.2334 47.309 36.5199 47.7257 38.1136C48.1423 39.7126 48.7153 40.8167 49.4548 41.4261C50.2048 42.0251 51.0486 42.3219 51.9965 42.3219C53.0798 42.3219 53.9392 42.1449 54.5798 41.7803C55.2153 41.4053 55.6892 40.7699 55.9965 39.8636C56.4236 38.5199 56.96 37.499 57.6007 36.8011C58.2361 36.1084 59.2153 35.7594 60.5382 35.7594H60.5798C61.9653 35.7594 63.0694 36.1501 63.8923 36.9261C64.7257 37.7074 65.0017 38.8324 64.7257 40.3011C64.2257 43.374 62.8715 45.6449 60.6632 47.1136C58.4548 48.5719 55.5486 49.3011 51.9548 49.3011Z" fill="black"/>
<path d="M75.0842 48.8011C73.7092 48.8011 72.6467 48.4365 71.8967 47.6969C71.1571 46.9469 70.8029 45.8844 70.8342 44.5094C70.8342 42.2907 70.8394 40.0719 70.855 37.8636C70.8811 35.6553 70.8967 33.4574 70.8967 31.2594C70.8967 29.0667 70.8811 26.874 70.855 24.6761C70.8394 22.4678 70.8342 20.2699 70.8342 18.0719C70.8029 16.6969 71.1571 15.6449 71.8967 14.9053C72.6467 14.1553 73.7092 13.7803 75.0842 13.7803H76.0008C77.3758 13.7803 78.4279 14.1553 79.1675 14.9053C79.9175 15.6449 80.2769 16.6969 80.2508 18.0719C80.2508 19.8219 80.2508 21.5719 80.2508 23.3219C80.2508 25.0719 80.2508 26.8428 80.2508 28.6344L81.4592 27.8219C82.8029 26.9469 83.9488 25.5876 84.8967 23.7386C85.8394 21.8792 86.5842 19.874 87.1258 17.7178C87.4175 16.4001 87.9227 15.4157 88.6467 14.7594C89.3811 14.1084 90.4019 13.7803 91.7092 13.7803H92.6675C94.2196 13.7803 95.3394 14.2282 96.0217 15.1136C96.7144 16.0042 96.7977 17.1917 96.2717 18.6761C95.3238 21.2751 94.2404 23.5876 93.0217 25.6136C91.8133 27.6292 90.5217 29.0251 89.1467 29.8011V30.0511C90.6154 30.2907 91.8238 30.8219 92.7717 31.6553C93.7144 32.4782 94.5738 33.9157 95.355 35.9678C95.6154 36.7074 95.9019 37.6292 96.2092 38.7386C96.5113 39.8532 96.9383 41.5199 97.48 43.7386C97.855 45.3219 97.7092 46.5667 97.0425 47.4678C96.3863 48.3584 95.3029 48.8011 93.7925 48.8011H92.48C89.8811 48.8011 88.3342 47.4053 87.8342 44.6136C87.3186 41.9209 86.8186 39.8532 86.3342 38.4053C85.8446 36.9469 85.2977 35.9365 84.6883 35.3636C84.0738 34.7803 83.355 34.4886 82.5217 34.4886C82.0738 34.4886 81.6988 34.5042 81.3967 34.5303C81.105 34.5459 80.7196 34.624 80.2508 34.7594C80.2508 36.374 80.2508 37.9886 80.2508 39.6136C80.2508 41.2282 80.2508 42.8584 80.2508 44.5094C80.2769 45.8844 79.9175 46.9469 79.1675 47.6969C78.4279 48.4365 77.3758 48.8011 76.0008 48.8011H75.0842Z" fill="black"/>
<path d="M111.066 49.3011C109.41 49.3011 107.904 49.0355 106.545 48.5094C105.181 47.9678 104.092 47.1344 103.274 46.0094C102.467 44.874 102.066 43.4261 102.066 41.6761C102.066 38.5094 103.404 36.1292 106.087 34.5303C108.764 32.9209 112.951 32.2074 118.649 32.3844V30.6553C118.649 28.8115 118.384 27.5511 117.858 26.8844C117.342 26.2074 116.529 25.8636 115.42 25.8636C114.779 25.8636 114.191 25.9574 113.649 26.1344C113.108 26.3167 112.681 26.6449 112.378 27.1136C111.904 27.8636 111.509 28.5094 111.191 29.0511C110.868 29.5824 110.509 29.9886 110.108 30.2803C109.701 30.5615 109.076 30.6969 108.233 30.6969H107.733C106.316 30.6969 105.175 30.3167 104.316 29.5511C103.451 28.7751 103.222 27.6917 103.628 26.3011C104.212 24.3167 105.509 22.8376 107.524 21.8636C109.55 20.8949 112.399 20.4053 116.066 20.4053C123.576 20.4053 127.337 23.7751 127.337 30.5094C127.337 33.5407 127.342 36.1865 127.358 38.4469C127.384 40.6969 127.425 42.6865 127.483 44.4053C127.55 45.8219 127.243 46.9157 126.566 47.6761C125.899 48.4261 124.878 48.8011 123.503 48.8011H123.045C120.488 48.8011 119.108 48.4001 118.899 47.5928C118.826 47.3844 118.774 47.1865 118.733 46.9886C118.701 46.7803 118.675 46.5824 118.649 46.3844C117.634 47.3584 116.467 48.0876 115.149 48.5719C113.842 49.0563 112.483 49.3011 111.066 49.3011ZM113.753 43.5928C114.889 43.5928 115.863 43.374 116.67 42.9261C117.488 42.4678 118.181 41.8167 118.753 40.9678V36.4261C117.238 36.4574 115.821 36.5719 114.503 36.7803C113.181 36.9782 112.118 37.3428 111.316 37.8844C110.509 38.4261 110.108 39.2334 110.108 40.3011C110.108 41.249 110.42 42.0303 111.045 42.6553C111.67 43.2803 112.571 43.5928 113.753 43.5928Z" fill="black"/>
<path d="M143.351 49.4053C140.085 49.4053 137.564 48.9521 135.788 48.0511C134.022 47.1344 132.856 45.8011 132.288 44.0511C131.84 42.6657 131.986 41.5876 132.726 40.8219C133.476 40.0459 134.439 39.6553 135.621 39.6553H135.767C136.585 39.6553 137.194 39.7959 137.601 40.0719C138.002 40.3376 138.361 40.7126 138.684 41.1969C139.002 41.6865 139.397 42.249 139.871 42.8844C140.34 43.499 141.382 43.8011 142.996 43.8011C144.58 43.8011 145.689 43.5511 146.33 43.0511C146.981 42.5407 147.309 41.9157 147.309 41.1761C147.309 40.2334 147.022 39.5251 146.455 39.0511C145.897 38.5824 145.174 38.2282 144.288 37.9886C143.397 37.7542 142.413 37.5511 141.33 37.3844C140.257 37.2178 139.174 37.0042 138.08 36.7386C136.981 36.4626 135.981 36.0459 135.08 35.4886C134.189 34.9365 133.465 34.1344 132.913 33.0928C132.356 32.0407 132.08 30.6709 132.08 28.9886C132.08 23.2699 136.038 20.4053 143.955 20.4053C149.996 20.4053 153.569 22.1709 154.684 25.6969C155.085 27.0459 154.913 28.1032 154.163 28.8636C153.424 29.6292 152.465 30.0094 151.288 30.0094H151.08C150.314 30.0094 149.715 29.8844 149.288 29.6344C148.871 29.374 148.502 29.0199 148.184 28.5719C147.861 28.1136 147.455 27.5928 146.955 27.0094C146.413 26.4834 145.413 26.2178 143.955 26.2178C142.606 26.2178 141.684 26.4417 141.184 26.8844C140.684 27.3167 140.434 27.9157 140.434 28.6761C140.434 29.6917 140.799 30.4365 141.538 30.9053C142.272 31.3792 143.21 31.7126 144.351 31.9053C145.502 32.0876 146.736 32.2803 148.059 32.4886C149.377 32.6865 150.606 33.0199 151.746 33.4886C152.897 33.9626 153.84 34.7126 154.58 35.7386C155.314 36.7699 155.684 38.2074 155.684 40.0511C155.684 43.1501 154.632 45.4834 152.538 47.0511C150.455 48.624 147.392 49.4053 143.351 49.4053Z" fill="black"/>
<path d="M171.042 49.4053C167.776 49.4053 165.256 48.9521 163.48 48.0511C161.714 47.1344 160.547 45.8011 159.98 44.0511C159.532 42.6657 159.677 41.5876 160.417 40.8219C161.167 40.0459 162.131 39.6553 163.313 39.6553H163.459C164.276 39.6553 164.886 39.7959 165.292 40.0719C165.693 40.3376 166.052 40.7126 166.375 41.1969C166.693 41.6865 167.089 42.249 167.563 42.8844C168.032 43.499 169.073 43.8011 170.688 43.8011C172.271 43.8011 173.381 43.5511 174.021 43.0511C174.672 42.5407 175 41.9157 175 41.1761C175 40.2334 174.714 39.5251 174.146 39.0511C173.589 38.5824 172.865 38.2282 171.98 37.9886C171.089 37.7542 170.105 37.5511 169.021 37.3844C167.948 37.2178 166.865 37.0042 165.771 36.7386C164.672 36.4626 163.672 36.0459 162.771 35.4886C161.881 34.9365 161.157 34.1344 160.605 33.0928C160.047 32.0407 159.771 30.6709 159.771 28.9886C159.771 23.2699 163.73 20.4053 171.646 20.4053C177.688 20.4053 181.261 22.1709 182.375 25.6969C182.776 27.0459 182.605 28.1032 181.855 28.8636C181.115 29.6292 180.157 30.0094 178.98 30.0094H178.771C178.006 30.0094 177.407 29.8844 176.98 29.6344C176.563 29.374 176.193 29.0199 175.875 28.5719C175.552 28.1136 175.146 27.5928 174.646 27.0094C174.105 26.4834 173.105 26.2178 171.646 26.2178C170.297 26.2178 169.375 26.4417 168.875 26.8844C168.375 27.3167 168.125 27.9157 168.125 28.6761C168.125 29.6917 168.49 30.4365 169.23 30.9053C169.964 31.3792 170.901 31.7126 172.042 31.9053C173.193 32.0876 174.427 32.2803 175.75 32.4886C177.068 32.6865 178.297 33.0199 179.438 33.4886C180.589 33.9626 181.532 34.7126 182.271 35.7386C183.006 36.7699 183.375 38.2074 183.375 40.0511C183.375 43.1501 182.323 45.4834 180.23 47.0511C178.146 48.624 175.084 49.4053 171.042 49.4053Z" fill="black"/>
<path d="M200.15 49.3011C195.634 49.3011 192.327 48.0667 190.233 45.5928C188.15 43.124 187.108 39.3949 187.108 34.4053C187.108 25.0719 191.452 20.4053 200.15 20.4053C203.285 20.4053 205.806 21.0667 207.713 22.3844C209.614 23.6917 210.942 25.5303 211.692 27.9053C212.452 30.2803 212.671 33.0407 212.338 36.1761C212.265 36.7074 212.015 36.9678 211.588 36.9678H195.463C195.515 38.6917 195.754 40.0251 196.171 40.9678C196.598 41.9157 197.16 42.5667 197.858 42.9261C198.551 43.2751 199.338 43.4469 200.213 43.4469C201.515 43.4469 202.556 43.2282 203.338 42.7803C203.973 42.3532 204.468 41.9365 204.817 41.5303C205.176 41.1292 205.556 40.7959 205.963 40.5303C206.364 40.2542 206.921 40.1136 207.629 40.1136C208.947 40.1136 209.989 40.4417 210.754 41.0928C211.53 41.749 211.739 42.6501 211.379 43.8011C210.197 47.4678 206.452 49.3011 200.15 49.3011ZM195.504 32.2178H203.796C203.864 30.2074 203.577 28.6917 202.942 27.6761C202.301 26.6657 201.239 26.1553 199.754 26.1553C198.431 26.1553 197.384 26.6553 196.608 27.6553C195.843 28.6449 195.473 30.1657 195.504 32.2178Z" fill="black"/>
<path d="M250.178 16.5094C250.079 17.5823 249.647 18.2073 248.886 18.3844C248.136 18.5511 247.017 18.5823 245.532 18.4677C244.324 18.4157 243.329 18.7334 242.553 19.4261C241.772 20.1084 241.386 21.2073 241.386 22.7177V24.9469H245.074C247.933 24.9469 249.366 26.0094 249.366 28.1344C249.366 30.2907 248.037 31.3636 245.386 31.3636L241.386 31.4052C241.386 31.8219 241.392 32.2334 241.407 32.6344C241.433 33.0407 241.449 33.4417 241.449 33.8427C241.449 35.5927 241.454 37.3636 241.47 39.1552C241.48 40.9365 241.491 42.7177 241.491 44.5094C241.491 47.374 240.142 48.8011 237.449 48.8011C234.709 48.8011 233.345 47.374 233.345 44.5094C233.345 42.7177 233.334 40.9365 233.324 39.1552C233.308 37.3636 233.303 35.5927 233.303 33.8427V31.4677H232.907C230.032 31.4677 228.595 30.374 228.595 28.1761C228.595 26.025 229.386 24.9469 230.97 24.9469H233.303C233.272 24.4781 233.261 24.0042 233.261 23.5302C233.261 23.0615 233.261 22.6084 233.261 22.1761C233.22 19.6084 233.647 17.5667 234.553 16.0511C235.47 14.5407 236.772 13.4469 238.47 12.7802C240.178 12.1031 242.178 11.7594 244.47 11.7594C244.912 11.7594 245.334 11.7802 245.741 11.8219C246.142 11.8531 246.532 11.8948 246.907 11.9469C248.183 12.1552 249.074 12.6865 249.574 13.5302C250.084 14.3636 250.287 15.3584 250.178 16.5094Z" fill="black"/>
<path d="M265.699 49.4053C257.032 49.4053 252.699 44.5719 252.699 34.9053C252.699 25.2386 257.032 20.4053 265.699 20.4053C274.225 20.4053 278.491 25.2386 278.491 34.9053C278.491 44.5719 274.225 49.4053 265.699 49.4053ZM265.699 43.2386C266.501 43.2386 267.22 43.0199 267.845 42.5719C268.47 42.1136 268.954 41.2803 269.303 40.0719C269.663 38.8532 269.845 37.1292 269.845 34.9053C269.845 31.8115 269.522 29.6501 268.886 28.4261C268.246 27.1917 267.183 26.5719 265.699 26.5719C264.116 26.5719 262.991 27.1917 262.324 28.4261C261.668 29.6501 261.345 31.8115 261.345 34.9053C261.345 37.1292 261.532 38.8532 261.907 40.0719C262.282 41.2803 262.793 42.1136 263.449 42.5719C264.1 43.0199 264.85 43.2386 265.699 43.2386Z" fill="black"/>
<path d="M299.195 20.4469C299.664 20.5459 300.153 20.8011 300.653 21.2178C301.164 21.624 301.591 22.3115 301.924 23.2803C302.091 23.8532 302.174 24.4417 302.174 25.0511C302.174 25.6501 302.091 26.2386 301.924 26.8219C301.591 28.1292 301.08 28.999 300.403 29.4261C299.736 29.8428 299.08 29.9365 298.445 29.6969C297.804 29.4886 297.132 29.3844 296.424 29.3844C294.226 29.3844 292.658 30.7907 291.716 33.5928V34.8011C291.716 35.3428 291.705 35.9001 291.695 36.4678C291.679 37.0407 291.674 37.5928 291.674 38.1344C291.674 39.1761 291.679 40.2126 291.695 41.2386C291.705 42.2699 291.736 43.3219 291.778 44.4053C291.872 47.3376 290.471 48.8011 287.57 48.8011H287.424C284.559 48.8011 283.132 47.374 283.132 44.5094C283.158 42.8844 283.179 41.2751 283.195 39.6761C283.221 38.0824 283.236 36.4574 283.236 34.8011C283.236 33.124 283.221 31.4886 283.195 29.9053C283.179 28.3219 283.158 26.7178 283.132 25.0928C283.132 22.2334 284.492 20.8011 287.216 20.8011C289.95 20.8011 291.32 21.8792 291.32 24.0303V27.3219L291.466 27.4261C291.867 25.3324 292.632 23.6292 293.757 22.3219C294.893 21.0042 296.289 20.3428 297.945 20.3428C298.205 20.3428 298.445 20.3584 298.653 20.3844C298.872 20.4001 299.054 20.4209 299.195 20.4469Z" fill="black"/>
<path d="M351.151 18.4261C351.151 15.3324 352.568 13.7803 355.401 13.7803C356.745 13.7803 357.781 14.1761 358.505 14.9678C359.224 15.7594 359.552 16.9001 359.485 18.3844C359.245 25.5928 358.672 31.4834 357.755 36.0511C356.849 40.6084 355.531 43.9574 353.797 46.0928C352.057 48.2334 349.797 49.3011 347.005 49.3011C344.682 49.3011 342.802 48.5407 341.36 47.0094C339.927 45.4678 338.88 43.2907 338.214 40.4678C337.365 43.2907 336.089 45.4678 334.38 47.0094C332.682 48.5407 330.656 49.3011 328.297 49.3011C325.766 49.3011 323.682 48.2282 322.047 46.0719C320.422 43.9209 319.193 40.5615 318.36 35.9886C317.537 31.4209 317.057 25.5303 316.922 18.3219C316.891 16.8376 317.245 15.7126 317.985 14.9469C318.735 14.1709 319.797 13.7803 321.172 13.7803H321.88C324.74 13.7803 326.172 15.3324 326.172 18.4261C326.214 22.7751 326.318 26.3636 326.485 29.1969C326.651 32.0199 326.891 34.2334 327.214 35.8428C327.531 37.4417 327.932 38.5719 328.422 39.2386C328.922 39.8949 329.49 40.2178 330.13 40.2178C331.13 40.2178 331.901 39.8949 332.443 39.2386C332.985 38.5719 333.365 37.4417 333.589 35.8428C333.807 34.2334 333.927 32.0199 333.943 29.1969C333.953 26.3636 333.964 22.7751 333.964 18.4261C333.964 15.3324 335.391 13.7803 338.255 13.7803H338.922C341.781 13.7803 343.214 15.3324 343.214 18.4261C343.24 22.7751 343.339 26.3636 343.505 29.1969C343.682 32.0199 343.932 34.2334 344.255 35.8428C344.573 37.4417 344.969 38.5719 345.443 39.2386C345.912 39.8949 346.469 40.2178 347.11 40.2178C347.818 40.2178 348.422 39.8949 348.922 39.2386C349.432 38.5719 349.849 37.4417 350.172 35.8428C350.49 34.2334 350.719 32.0199 350.86 29.1969C351.011 26.3636 351.11 22.7751 351.151 18.4261Z" fill="black"/>
<path d="M376.263 49.4053C367.596 49.4053 363.263 44.5719 363.263 34.9053C363.263 25.2386 367.596 20.4053 376.263 20.4053C384.789 20.4053 389.054 25.2386 389.054 34.9053C389.054 44.5719 384.789 49.4053 376.263 49.4053ZM376.263 43.2386C377.065 43.2386 377.784 43.0199 378.409 42.5719C379.034 42.1136 379.518 41.2803 379.867 40.0719C380.226 38.8532 380.409 37.1292 380.409 34.9053C380.409 31.8115 380.086 29.6501 379.45 28.4261C378.81 27.1917 377.747 26.5719 376.263 26.5719C374.679 26.5719 373.554 27.1917 372.888 28.4261C372.231 29.6501 371.909 31.8115 371.909 34.9053C371.909 37.1292 372.096 38.8532 372.471 40.0719C372.846 41.2803 373.356 42.1136 374.013 42.5719C374.664 43.0199 375.414 43.2386 376.263 43.2386Z" fill="black"/>
<path d="M405.672 49.4053C397.005 49.4053 392.672 44.5719 392.672 34.9053C392.672 25.2386 397.005 20.4053 405.672 20.4053C414.198 20.4053 418.464 25.2386 418.464 34.9053C418.464 44.5719 414.198 49.4053 405.672 49.4053ZM405.672 43.2386C406.474 43.2386 407.193 43.0199 407.818 42.5719C408.443 42.1136 408.927 41.2803 409.276 40.0719C409.636 38.8532 409.818 37.1292 409.818 34.9053C409.818 31.8115 409.495 29.6501 408.86 28.4261C408.219 27.1917 407.156 26.5719 405.672 26.5719C404.089 26.5719 402.964 27.1917 402.297 28.4261C401.641 29.6501 401.318 31.8115 401.318 34.9053C401.318 37.1292 401.505 38.8532 401.88 40.0719C402.255 41.2803 402.766 42.1136 403.422 42.5719C404.073 43.0199 404.823 43.2386 405.672 43.2386Z" fill="black"/>
<path d="M437.311 49.3011C432.28 49.3011 428.592 47.7959 426.248 44.7803C423.915 41.7699 422.748 37.2594 422.748 31.2594C422.748 19.2751 427.717 13.2803 437.665 13.2803C441.399 13.2803 444.384 14.1917 446.623 16.0094C448.858 17.8324 450.128 20.4574 450.436 23.8844C450.571 25.3011 450.227 26.374 449.394 27.0928C448.571 27.8167 447.477 28.1761 446.102 28.1761H445.79C444.415 28.1761 443.415 27.8011 442.79 27.0511C442.165 26.2907 441.748 25.1865 441.54 23.7386C441.342 22.4209 440.915 21.4834 440.248 20.9261C439.592 20.374 438.628 20.0928 437.352 20.0928C435.602 20.0928 434.342 20.9261 433.582 22.5928C432.832 24.2594 432.457 27.1501 432.457 31.2594C432.457 34.2334 432.665 36.5199 433.082 38.1136C433.498 39.7126 434.071 40.8167 434.811 41.4261C435.561 42.0251 436.405 42.3219 437.352 42.3219C438.436 42.3219 439.295 42.1449 439.936 41.7803C440.571 41.4053 441.045 40.7699 441.352 39.8636C441.78 38.5199 442.316 37.499 442.957 36.8011C443.592 36.1084 444.571 35.7594 445.894 35.7594H445.936C447.321 35.7594 448.425 36.1501 449.248 36.9261C450.082 37.7074 450.358 38.8324 450.082 40.3011C449.582 43.374 448.227 45.6449 446.019 47.1136C443.811 48.5719 440.905 49.3011 437.311 49.3011Z" fill="black"/>
<path d="M467.271 49.4053C458.604 49.4053 454.271 44.5719 454.271 34.9053C454.271 25.2386 458.604 20.4053 467.271 20.4053C475.797 20.4053 480.062 25.2386 480.062 34.9053C480.062 44.5719 475.797 49.4053 467.271 49.4053ZM467.271 43.2386C468.073 43.2386 468.791 43.0199 469.416 42.5719C470.041 42.1136 470.526 41.2803 470.875 40.0719C471.234 38.8532 471.416 37.1292 471.416 34.9053C471.416 31.8115 471.093 29.6501 470.458 28.4261C469.817 27.1917 468.755 26.5719 467.271 26.5719C465.687 26.5719 464.562 27.1917 463.896 28.4261C463.239 29.6501 462.916 31.8115 462.916 34.9053C462.916 37.1292 463.104 38.8532 463.479 40.0719C463.854 41.2803 464.364 42.1136 465.021 42.5719C465.672 43.0199 466.422 43.2386 467.271 43.2386Z" fill="black"/>
<path d="M525.835 44.4469C525.835 47.3532 524.403 48.8011 521.543 48.8011H521.397C518.522 48.8011 517.085 47.3532 517.085 44.4469C517.127 42.1292 517.153 39.9209 517.168 37.8219C517.179 35.7126 517.189 33.7803 517.189 32.0303C517.189 30.3792 516.903 29.2334 516.335 28.5928C515.762 27.9574 514.903 27.6501 513.752 27.6761C511.929 27.7074 510.585 28.5667 509.71 30.2594V32.1136C509.679 33.8792 509.673 35.8011 509.689 37.8844C509.699 39.9678 509.731 42.1553 509.772 44.4469C509.772 47.3532 508.34 48.8011 505.481 48.8011H505.314C502.449 48.8011 501.022 47.3532 501.022 44.4469C501.048 42.1292 501.069 39.9209 501.085 37.8219C501.111 35.7126 501.127 33.7803 501.127 32.0303C501.127 30.3792 500.835 29.2334 500.252 28.5928C499.679 27.9574 498.824 27.6501 497.689 27.6761C495.772 27.749 494.356 28.7282 493.439 30.6136V34.8011C493.408 36.4574 493.403 38.0824 493.418 39.6761C493.429 41.2751 493.439 42.8844 493.439 44.5094C493.481 45.8844 493.127 46.9469 492.377 47.6969C491.637 48.4365 490.574 48.8011 489.189 48.8011H488.835C487.46 48.8011 486.397 48.4365 485.647 47.6969C484.908 46.9469 484.564 45.8844 484.606 44.5094C484.632 42.8844 484.653 41.2751 484.668 39.6761C484.679 38.0824 484.689 36.4574 484.689 34.8011C484.689 33.124 484.679 31.4886 484.668 29.9053C484.653 28.3219 484.632 26.7178 484.606 25.0928C484.564 23.7178 484.908 22.6657 485.647 21.9261C486.397 21.1761 487.46 20.8011 488.835 20.8011C490.22 20.8011 491.293 21.0042 492.043 21.4053C492.804 21.8115 493.189 22.4001 493.189 23.1761C493.158 23.5094 493.147 23.8844 493.147 24.3011C493.147 24.7074 493.127 25.1344 493.085 25.5928H493.147C494.116 23.8167 495.335 22.5094 496.793 21.6761C498.262 20.8324 499.981 20.4053 501.939 20.4053C503.757 20.4053 505.262 20.8167 506.46 21.6344C507.653 22.4574 508.522 23.7751 509.064 25.5928H509.21C510.179 23.8167 511.397 22.5094 512.856 21.6761C514.324 20.8324 516.043 20.4053 518.002 20.4053C520.668 20.4053 522.653 21.3167 523.96 23.1344C525.278 24.9574 525.887 27.9469 525.793 32.1136C525.752 33.8792 525.736 35.8011 525.752 37.8844C525.778 39.9678 525.804 42.1553 525.835 44.4469Z" fill="black"/>
<path d="M572.678 44.4469C572.678 47.3532 571.246 48.8011 568.386 48.8011H568.24C565.365 48.8011 563.928 47.3532 563.928 44.4469C563.97 42.1292 563.996 39.9209 564.011 37.8219C564.022 35.7126 564.032 33.7803 564.032 32.0303C564.032 30.3792 563.746 29.2334 563.178 28.5928C562.605 27.9574 561.746 27.6501 560.595 27.6761C558.772 27.7074 557.428 28.5667 556.553 30.2594V32.1136C556.522 33.8792 556.516 35.8011 556.532 37.8844C556.542 39.9678 556.574 42.1553 556.615 44.4469C556.615 47.3532 555.183 48.8011 552.324 48.8011H552.157C549.292 48.8011 547.865 47.3532 547.865 44.4469C547.891 42.1292 547.912 39.9209 547.928 37.8219C547.954 35.7126 547.97 33.7803 547.97 32.0303C547.97 30.3792 547.678 29.2334 547.095 28.5928C546.522 27.9574 545.667 27.6501 544.532 27.6761C542.615 27.749 541.199 28.7282 540.282 30.6136V34.8011C540.251 36.4574 540.246 38.0824 540.261 39.6761C540.272 41.2751 540.282 42.8844 540.282 44.5094C540.324 45.8844 539.97 46.9469 539.22 47.6969C538.48 48.4365 537.417 48.8011 536.032 48.8011H535.678C534.303 48.8011 533.24 48.4365 532.49 47.6969C531.751 46.9469 531.407 45.8844 531.449 44.5094C531.475 42.8844 531.496 41.2751 531.511 39.6761C531.522 38.0824 531.532 36.4574 531.532 34.8011C531.532 33.124 531.522 31.4886 531.511 29.9053C531.496 28.3219 531.475 26.7178 531.449 25.0928C531.407 23.7178 531.751 22.6657 532.49 21.9261C533.24 21.1761 534.303 20.8011 535.678 20.8011C537.063 20.8011 538.136 21.0042 538.886 21.4053C539.647 21.8115 540.032 22.4001 540.032 23.1761C540.001 23.5094 539.99 23.8844 539.99 24.3011C539.99 24.7074 539.97 25.1344 539.928 25.5928H539.99C540.959 23.8167 542.178 22.5094 543.636 21.6761C545.105 20.8324 546.824 20.4053 548.782 20.4053C550.6 20.4053 552.105 20.8167 553.303 21.6344C554.496 22.4574 555.365 23.7751 555.907 25.5928H556.053C557.022 23.8167 558.24 22.5094 559.699 21.6761C561.167 20.8324 562.886 20.4053 564.845 20.4053C567.511 20.4053 569.496 21.3167 570.803 23.1344C572.121 24.9574 572.73 27.9469 572.636 32.1136C572.595 33.8792 572.579 35.8011 572.595 37.8844C572.621 39.9678 572.647 42.1553 572.678 44.4469Z" fill="black"/>
<path d="M590.458 49.3011C585.943 49.3011 582.635 48.0667 580.542 45.5928C578.458 43.124 577.417 39.3949 577.417 34.4053C577.417 25.0719 581.76 20.4053 590.458 20.4053C593.594 20.4053 596.115 21.0667 598.021 22.3844C599.922 23.6917 601.25 25.5303 602 27.9053C602.76 30.2803 602.979 33.0407 602.646 36.1761C602.573 36.7074 602.323 36.9678 601.896 36.9678H585.771C585.823 38.6917 586.063 40.0251 586.479 40.9678C586.906 41.9157 587.469 42.5667 588.167 42.9261C588.859 43.2751 589.646 43.4469 590.521 43.4469C591.823 43.4469 592.865 43.2282 593.646 42.7803C594.281 42.3532 594.776 41.9365 595.125 41.5303C595.484 41.1292 595.865 40.7959 596.271 40.5303C596.672 40.2542 597.229 40.1136 597.938 40.1136C599.255 40.1136 600.297 40.4417 601.063 41.0928C601.839 41.749 602.047 42.6501 601.688 43.8011C600.505 47.4678 596.76 49.3011 590.458 49.3011ZM585.813 32.2178H594.104C594.172 30.2074 593.885 28.6917 593.25 27.6761C592.609 26.6657 591.547 26.1553 590.063 26.1553C588.74 26.1553 587.693 26.6553 586.917 27.6553C586.151 28.6449 585.781 30.1657 585.813 32.2178Z" fill="black"/>
<path d="M623.812 20.4469C624.28 20.5459 624.77 20.8011 625.27 21.2178C625.78 21.624 626.207 22.3115 626.541 23.2803C626.707 23.8532 626.791 24.4417 626.791 25.0511C626.791 25.6501 626.707 26.2386 626.541 26.8219C626.207 28.1292 625.697 28.999 625.02 29.4261C624.353 29.8428 623.697 29.9365 623.062 29.6969C622.421 29.4886 621.749 29.3844 621.041 29.3844C618.843 29.3844 617.275 30.7907 616.332 33.5928V34.8011C616.332 35.3428 616.322 35.9001 616.312 36.4678C616.296 37.0407 616.291 37.5928 616.291 38.1344C616.291 39.1761 616.296 40.2126 616.312 41.2386C616.322 42.2699 616.353 43.3219 616.395 44.4053C616.489 47.3376 615.088 48.8011 612.187 48.8011H612.041C609.176 48.8011 607.749 47.374 607.749 44.5094C607.775 42.8844 607.796 41.2751 607.812 39.6761C607.838 38.0824 607.853 36.4574 607.853 34.8011C607.853 33.124 607.838 31.4886 607.812 29.9053C607.796 28.3219 607.775 26.7178 607.749 25.0928C607.749 22.2334 609.108 20.8011 611.832 20.8011C614.567 20.8011 615.937 21.8792 615.937 24.0303V27.3219L616.082 27.4261C616.483 25.3324 617.249 23.6292 618.374 22.3219C619.509 21.0042 620.905 20.3428 622.562 20.3428C622.822 20.3428 623.062 20.3584 623.27 20.3844C623.489 20.4001 623.671 20.4209 623.812 20.4469Z" fill="black"/>
<path d="M641.656 49.3011C637.166 49.3011 633.875 48.1084 631.781 45.7178C629.698 43.3324 628.656 39.7386 628.656 34.9469C628.656 25.2542 633.073 20.4053 641.906 20.4053C645 20.4053 647.453 21.0511 649.26 22.3428C651.062 23.6344 652.25 25.5094 652.823 27.9678C653.156 29.3844 652.969 30.4886 652.26 31.2803C651.552 32.0719 650.557 32.4678 649.281 32.4678C647.974 32.4678 647.057 32.1449 646.531 31.4886C646 30.8376 645.474 29.8844 644.948 28.6344C644.708 28.0928 644.333 27.7074 643.823 27.4678C643.323 27.2334 642.635 27.1136 641.76 27.1136C640.135 27.1136 638.979 27.6969 638.302 28.8636C637.635 30.0303 637.302 32.0615 637.302 34.9469C637.302 37.1449 637.489 38.8376 637.864 40.0303C638.239 41.2282 638.76 42.0459 639.427 42.4886C640.104 42.9209 640.885 43.1344 641.76 43.1344C643.203 43.1344 644.208 42.7803 644.781 42.0719C645.323 41.3376 645.765 40.6969 646.114 40.1553C646.474 39.6136 646.875 39.1969 647.323 38.9053C647.781 38.6032 648.432 38.4469 649.281 38.4469C650.489 38.4469 651.448 38.8167 652.156 39.5511C652.864 40.2907 653.036 41.3011 652.677 42.5928C651.427 47.0667 647.75 49.3011 641.656 49.3011Z" fill="black"/>
<path d="M669.541 49.3011C665.025 49.3011 661.718 48.0667 659.624 45.5928C657.541 43.124 656.499 39.3949 656.499 34.4053C656.499 25.0719 660.843 20.4053 669.541 20.4053C672.676 20.4053 675.197 21.0667 677.103 22.3844C679.004 23.6917 680.332 25.5303 681.082 27.9053C681.843 30.2803 682.062 33.0407 681.728 36.1761C681.655 36.7074 681.405 36.9678 680.978 36.9678H664.853C664.905 38.6917 665.145 40.0251 665.562 40.9678C665.989 41.9157 666.551 42.5667 667.249 42.9261C667.942 43.2751 668.728 43.4469 669.603 43.4469C670.905 43.4469 671.947 43.2282 672.728 42.7803C673.364 42.3532 673.858 41.9365 674.207 41.5303C674.567 41.1292 674.947 40.7959 675.353 40.5303C675.754 40.2542 676.312 40.1136 677.02 40.1136C678.338 40.1136 679.379 40.4417 680.145 41.0928C680.921 41.749 681.129 42.6501 680.77 43.8011C679.588 47.4678 675.843 49.3011 669.541 49.3011ZM664.895 32.2178H673.187C673.254 30.2074 672.968 28.6917 672.332 27.6761C671.692 26.6657 670.629 26.1553 669.145 26.1553C667.822 26.1553 666.775 26.6553 665.999 27.6553C665.233 28.6449 664.864 30.1657 664.895 32.2178Z" fill="black"/>
</g>
<path d="M5.66675 68.974H682.937" stroke="#2B7FFF" stroke-width="4"/>
<path d="M13.0719 100.146C13.9313 100.119 14.7907 100.104 15.6553 100.104C16.5147 100.104 17.3532 100.099 18.1761 100.083C19.8428 100.083 20.6761 100.739 20.6761 102.041C20.6761 103.375 19.8428 104.041 18.1761 104.041H10.0719C9.28028 104.041 8.66569 103.828 8.23861 103.396C7.80632 102.968 7.59799 102.349 7.61361 101.541C7.61361 100.25 7.61361 98.9684 7.61361 97.6872C7.62403 96.4111 7.63444 95.1351 7.63444 93.8538C7.63444 92.5934 7.62403 91.3226 7.61361 90.0413C7.61361 88.7497 7.61361 87.4736 7.61361 86.208C7.59799 85.4059 7.80632 84.7861 8.23861 84.3538C8.66569 83.9268 9.28028 83.708 10.0719 83.708H17.8844C19.5355 83.708 20.3636 84.3695 20.3636 85.6872C20.3636 87.0101 19.5355 87.6663 17.8844 87.6663C17.0928 87.6559 16.2907 87.6455 15.4886 87.6455C14.6813 87.6455 13.874 87.6403 13.0719 87.6247V92.1038C13.6969 92.0934 14.3063 92.083 14.9053 92.083C15.5147 92.083 16.1136 92.0726 16.6969 92.0413C18.3636 92.0413 19.1969 92.6976 19.1969 93.9997C19.1969 95.333 18.3636 95.9997 16.6969 95.9997C16.1136 95.9893 15.5147 95.9788 14.9053 95.9788C14.3063 95.9788 13.6969 95.9684 13.0719 95.9372V100.146Z" fill="black"/>
<path d="M31.2464 100.5C32.1058 100.458 32.7725 100.5 33.2464 100.625C33.7152 100.75 33.9808 101.12 34.0381 101.729C34.0902 102.354 33.986 102.896 33.7256 103.354C33.46 103.802 33.0068 104.083 32.3714 104.208C31.7881 104.333 31.1423 104.396 30.4339 104.396C29.2256 104.396 28.1683 104.208 27.2673 103.833C26.3766 103.458 25.6891 102.854 25.2048 102.021C24.7308 101.177 24.5068 100.041 24.5381 98.6247C24.5485 97.7653 24.5589 96.8643 24.5589 95.9164C24.5589 94.9737 24.5589 94.0362 24.5589 93.1039V91.583H24.5381C22.8714 91.583 22.0381 90.9528 22.0381 89.6872C22.0381 88.4372 22.46 87.8122 23.3089 87.8122H24.5381C24.5381 87.5622 24.5277 87.3226 24.5173 87.083C24.5016 86.8487 24.4964 86.6039 24.4964 86.3539C24.4964 84.9112 25.1839 83.9737 26.5589 83.5414C27.3766 83.2653 28.0381 83.2862 28.5381 83.6039C29.0381 83.9112 29.2881 84.4528 29.2881 85.2289V87.8122H31.3506C33.0016 87.8122 33.8298 88.432 33.8298 89.6664C33.8298 90.906 33.0798 91.5205 31.5798 91.5205L29.2881 91.5414C29.2881 91.7914 29.2777 92.0518 29.2673 92.3122C29.2673 92.5622 29.2673 92.8278 29.2673 93.1039C29.236 93.9372 29.2256 94.781 29.2256 95.6247C29.2256 96.458 29.2256 97.2601 29.2256 98.0205C29.2256 99.6872 29.8975 100.515 31.2464 100.5Z" fill="black"/>
<path d="M52.1273 87.583C53.32 87.583 54.3877 87.833 55.3356 88.333C56.2939 88.8226 57.0544 89.6455 57.6273 90.8122C58.195 91.9788 58.4814 93.5934 58.4814 95.6455C58.4814 97.5934 58.195 99.208 57.6273 100.5C57.07 101.791 56.32 102.76 55.3773 103.396C54.4294 104.036 53.3825 104.354 52.2314 104.354C51.3252 104.354 50.5283 104.109 49.8356 103.625C49.1533 103.125 48.6325 102.474 48.2731 101.666L48.0856 101.979C48.2106 102.911 48.2939 103.833 48.3356 104.75C48.3877 105.677 48.4242 106.614 48.4398 107.562C48.4502 108.364 48.2419 108.984 47.8148 109.416C47.3825 109.843 46.7731 110.062 45.9814 110.062H45.9189C44.2523 110.062 43.4189 109.229 43.4189 107.562C43.445 105.588 43.4658 103.661 43.4814 101.771C43.4919 99.8695 43.5023 97.9163 43.5023 95.9163C43.5023 94.9476 43.4919 93.9997 43.4814 93.083C43.4814 92.1559 43.471 91.2236 43.4606 90.2913C43.4294 89.4893 43.6325 88.8695 44.0648 88.4372C44.4919 88.0101 45.1117 87.7913 45.9189 87.7913H45.9814C47.6325 87.7913 48.4606 88.0153 48.4606 88.458V89.1455C48.8773 88.7184 49.3825 88.3486 49.9814 88.0413C50.5752 87.7393 51.2939 87.583 52.1273 87.583ZM50.8773 100.396C51.3773 100.396 51.8408 100.281 52.2731 100.041C52.7002 99.7913 53.0492 99.3486 53.3148 98.708C53.5752 98.057 53.7106 97.1351 53.7106 95.9372C53.7106 94.3851 53.4502 93.2913 52.9398 92.6663C52.4242 92.0413 51.695 91.7288 50.7523 91.7288C50.2106 91.7288 49.7523 91.8226 49.3773 91.9997C49.0023 92.182 48.6689 92.4736 48.3773 92.8747C48.4033 92.9893 48.4189 93.1247 48.4189 93.2913C48.4189 93.458 48.4189 93.7497 48.4189 94.1663C48.4294 94.583 48.4294 95.2236 48.4189 96.083C48.3877 96.4059 48.3773 96.7184 48.3773 97.0205C48.3773 97.3278 48.3773 97.6351 48.3773 97.9372L48.4189 97.9163C48.445 98.8747 48.695 99.5309 49.1689 99.8747C49.6533 100.224 50.221 100.396 50.8773 100.396Z" fill="black"/>
<path d="M70.5449 87.583C70.821 87.6403 71.1074 87.7861 71.3991 88.0205C71.6908 88.2601 71.9303 88.6611 72.1283 89.2288C72.222 89.5622 72.2741 89.9111 72.2741 90.2705C72.2741 90.6195 72.222 90.958 72.1283 91.2913C71.9303 92.0413 71.6387 92.5413 71.2533 92.7913C70.8626 93.0413 70.4824 93.0986 70.1074 92.958C69.7428 92.833 69.3574 92.7705 68.9408 92.7705C67.6595 92.7705 66.7533 93.583 66.2116 95.208V95.9163C66.2116 96.2393 66.2012 96.5622 66.1908 96.8955C66.1908 97.2184 66.1908 97.5361 66.1908 97.8538C66.1908 98.4684 66.1908 99.0726 66.1908 99.6663C66.2012 100.25 66.2168 100.864 66.2324 101.5C66.3001 103.198 65.4928 104.041 63.8158 104.041H63.7116C62.0553 104.041 61.2324 103.208 61.2324 101.541C61.2428 100.614 61.2533 99.682 61.2533 98.7497C61.2637 97.8226 61.2741 96.8747 61.2741 95.9163C61.2741 94.9476 61.2637 93.9997 61.2533 93.083C61.2533 92.1559 61.2428 91.2236 61.2324 90.2913C61.2324 88.6247 62.0241 87.7913 63.6074 87.7913C65.1908 87.7913 65.9824 88.4163 65.9824 89.6663V91.583L66.0658 91.6247C66.3001 90.4163 66.7428 89.432 67.3991 88.6663C68.0501 87.9059 68.8574 87.5205 69.8158 87.5205C69.9668 87.5205 70.1074 87.5309 70.2324 87.5413C70.3678 87.557 70.472 87.5726 70.5449 87.583Z" fill="black"/>
<path d="M81.3261 104.395C76.2948 104.395 73.7844 101.593 73.7844 95.9788C73.7844 90.3694 76.2948 87.5621 81.3261 87.5621C86.2688 87.5621 88.7428 90.3694 88.7428 95.9788C88.7428 101.593 86.2688 104.395 81.3261 104.395ZM81.3261 100.812C81.7844 100.812 82.1907 100.682 82.5553 100.416C82.9146 100.156 83.2011 99.6767 83.4094 98.9788C83.6178 98.2705 83.7219 97.2705 83.7219 95.9788C83.7219 94.1767 83.5344 92.9163 83.1594 92.208C82.7844 91.4892 82.1698 91.1246 81.3261 91.1246C80.3938 91.1246 79.7323 91.4892 79.3469 92.208C78.9719 92.9163 78.7844 94.1767 78.7844 95.9788C78.7844 97.2705 78.8886 98.2705 79.0969 98.9788C79.3157 99.6767 79.6178 100.156 79.9928 100.416C80.3782 100.682 80.8261 100.812 81.3261 100.812Z" fill="black"/>
<path d="M103.454 82.6663C105.12 82.6663 105.954 83.4944 105.954 85.1454C105.938 87.0621 105.917 88.9579 105.891 90.8329C105.875 92.6975 105.87 94.5986 105.87 96.5413C105.87 97.4058 105.87 98.2444 105.87 99.0621C105.881 99.885 105.901 100.708 105.933 101.541C105.959 103.208 105.292 104.041 103.933 104.041C102.558 104.041 101.771 103.76 101.579 103.187C101.537 103.036 101.495 102.89 101.454 102.75C101.422 102.599 101.391 102.453 101.349 102.312C100.959 102.843 100.422 103.312 99.7452 103.729C99.0785 104.145 98.2452 104.354 97.2452 104.354C96.0629 104.354 94.9952 104.109 94.0369 103.625C93.0785 103.14 92.3129 102.312 91.7452 101.145C91.1879 99.9683 90.9119 98.3486 90.9119 96.2913C90.9119 94.3642 91.1879 92.7496 91.7452 91.4579C92.2973 90.1663 93.0473 89.2027 93.9952 88.5621C94.9535 87.9111 96.0056 87.5829 97.1619 87.5829C97.9535 87.5829 98.6671 87.7808 99.3077 88.1663C99.9431 88.5569 100.459 89.0829 100.849 89.7496C100.834 88.9892 100.829 88.2288 100.829 87.4788C100.829 86.7183 100.813 85.9371 100.787 85.1454C100.787 83.4944 101.62 82.6663 103.287 82.6663H103.454ZM98.6202 100.229C99.1306 100.229 99.5473 100.161 99.8702 100.02C100.204 99.8694 100.5 99.6454 100.766 99.3538C100.766 98.885 100.766 98.4163 100.766 97.9579C100.776 97.4996 100.797 97.0308 100.829 96.5413C100.839 95.9736 100.849 95.4058 100.849 94.8329C100.849 94.2652 100.849 93.7079 100.849 93.1663C100.667 92.5569 100.36 92.135 99.9327 91.8954C99.5004 91.6611 99.0212 91.5413 98.4952 91.5413C97.9952 91.5413 97.5264 91.6663 97.0994 91.9163C96.6671 92.1558 96.3181 92.5933 96.0577 93.2288C95.7921 93.8694 95.6619 94.7913 95.6619 95.9996C95.6619 97.5413 95.9171 98.635 96.4327 99.2704C96.9431 99.9111 97.6723 100.229 98.6202 100.229Z" fill="black"/>
<path d="M121.139 87.8121C122.805 87.8121 123.639 88.6455 123.639 90.3121C123.623 91.3538 123.607 92.3903 123.597 93.4163C123.581 94.4476 123.576 95.4892 123.576 96.5413C123.576 97.3746 123.581 98.208 123.597 99.0413C123.607 99.8746 123.618 100.708 123.618 101.541C123.628 102.349 123.456 102.968 123.097 103.395C122.748 103.828 122.253 104.041 121.618 104.041C120.227 104.041 119.409 103.604 119.159 102.729C119.034 102.229 118.941 101.765 118.889 101.333C118.441 102.291 117.805 103.036 116.972 103.562C116.139 104.088 115.144 104.354 113.993 104.354C113.034 104.354 112.191 104.156 111.472 103.77C110.748 103.385 110.191 102.75 109.805 101.875C109.43 100.989 109.248 99.8017 109.264 98.3121C109.305 96.9528 109.31 95.6194 109.284 94.3121C109.269 92.9944 109.253 91.6611 109.243 90.3121C109.243 88.6455 110.066 87.8121 111.722 87.8121H111.909C113.56 87.8121 114.389 88.6455 114.389 90.3121C114.373 91.5101 114.357 92.6819 114.347 93.833C114.347 94.9892 114.347 96.1663 114.347 97.3746C114.347 98.3226 114.514 99.0309 114.847 99.4996C115.18 99.9736 115.639 100.198 116.222 100.166C116.899 100.156 117.451 99.8434 117.868 99.2288C118.295 98.6194 118.514 97.7236 118.514 96.5413C118.54 95.4892 118.545 94.4476 118.534 93.4163C118.534 92.3903 118.524 91.3538 118.514 90.3121C118.482 89.5101 118.685 88.8903 119.118 88.458C119.545 88.0309 120.165 87.8121 120.972 87.8121H121.139Z" fill="black"/>
<path d="M141.232 101.291C141.508 102.125 141.451 102.791 141.066 103.291C140.675 103.791 140.029 104.041 139.128 104.041H138.295C136.836 104.041 135.899 103.281 135.482 101.75C135.175 100.599 134.883 99.708 134.607 99.083C134.326 98.458 134.013 98.0309 133.67 97.7913C133.336 97.5413 132.925 97.4163 132.441 97.4163H132.003C132.003 98.0986 132.003 98.7861 132.003 99.4788C132.003 100.161 132.008 100.849 132.024 101.541C132.024 103.208 131.191 104.041 129.524 104.041H129.357C127.691 104.041 126.857 103.208 126.857 101.541C126.883 100.125 126.904 98.7288 126.92 97.3538C126.93 95.9684 126.941 94.5517 126.941 93.1038C126.941 91.8121 126.93 90.5153 126.92 89.208C126.904 87.8903 126.883 86.583 126.857 85.2913C126.857 83.6403 127.691 82.8121 129.357 82.8121H129.524C131.191 82.8121 132.024 83.6403 132.024 85.2913C132.024 86.583 132.024 87.8903 132.024 89.208C132.024 90.5153 132.013 91.8121 132.003 93.1038V94.2496C132.696 93.8642 133.305 93.2861 133.836 92.5205C134.362 91.7601 134.774 90.9267 135.066 90.0205C135.3 89.3017 135.628 88.7496 136.045 88.3746C136.472 87.9996 137.055 87.8121 137.795 87.8121H138.399C139.316 87.8121 139.987 88.0934 140.42 88.6455C140.847 89.1871 140.836 89.8851 140.378 90.7288C139.836 91.7288 139.196 92.6038 138.461 93.3538C137.722 94.1038 136.972 94.6403 136.211 94.958V95.0621C137.071 95.1611 137.784 95.3955 138.357 95.7705C138.925 96.1455 139.425 96.7653 139.857 97.6246C140.3 98.4892 140.758 99.708 141.232 101.291Z" fill="black"/>
<path d="M152.196 100.5C153.055 100.458 153.722 100.5 154.196 100.625C154.664 100.75 154.93 101.12 154.987 101.729C155.039 102.354 154.935 102.896 154.675 103.354C154.409 103.802 153.956 104.083 153.321 104.208C152.737 104.333 152.091 104.396 151.383 104.396C150.175 104.396 149.118 104.208 148.216 103.833C147.326 103.458 146.638 102.854 146.154 102.021C145.68 101.177 145.456 100.041 145.487 98.6247C145.498 97.7653 145.508 96.8643 145.508 95.9164C145.508 94.9737 145.508 94.0362 145.508 93.1039V91.583H145.487C143.821 91.583 142.987 90.9528 142.987 89.6872C142.987 88.4372 143.409 87.8122 144.258 87.8122H145.487C145.487 87.5622 145.477 87.3226 145.466 87.083C145.451 86.8487 145.446 86.6039 145.446 86.3539C145.446 84.9112 146.133 83.9737 147.508 83.5414C148.326 83.2653 148.987 83.2862 149.487 83.6039C149.987 83.9112 150.237 84.4528 150.237 85.2289V87.8122H152.3C153.951 87.8122 154.779 88.432 154.779 89.6664C154.779 90.906 154.029 91.5205 152.529 91.5205L150.237 91.5414C150.237 91.7914 150.227 92.0518 150.216 92.3122C150.216 92.5622 150.216 92.8278 150.216 93.1039C150.185 93.9372 150.175 94.781 150.175 95.6247C150.175 96.458 150.175 97.2601 150.175 98.0205C150.175 99.6872 150.847 100.515 152.196 100.5Z" fill="black"/>
<path d="M168.972 104.333C168.014 104.333 167.139 104.177 166.347 103.875C165.555 103.557 164.92 103.073 164.451 102.416C163.993 101.765 163.764 100.927 163.764 99.8955C163.764 98.0621 164.54 96.6819 166.097 95.7496C167.649 94.8226 170.076 94.4059 173.368 94.4996V93.5205C173.368 92.4371 173.212 91.7028 172.91 91.3121C172.618 90.9267 172.144 90.7288 171.493 90.7288C171.128 90.7288 170.79 90.7861 170.472 90.8955C170.165 90.9944 169.92 91.1819 169.743 91.458C169.462 91.8903 169.227 92.2653 169.035 92.583C168.852 92.8903 168.644 93.1246 168.41 93.2913C168.186 93.458 167.826 93.5413 167.326 93.5413H167.035C166.212 93.5413 165.555 93.3226 165.055 92.8746C164.555 92.4163 164.42 91.7861 164.66 90.9788C164.993 89.8278 165.743 88.9736 166.91 88.4163C168.087 87.8486 169.748 87.5621 171.889 87.5621C176.248 87.5621 178.43 89.5153 178.43 93.4163C178.43 95.1819 178.43 96.7236 178.43 98.0413C178.441 99.3486 178.472 100.5 178.514 101.5C178.555 102.323 178.373 102.953 177.972 103.395C177.581 103.828 176.993 104.041 176.201 104.041H175.93C174.441 104.041 173.644 103.807 173.535 103.333C173.493 103.224 173.456 103.114 173.43 103C173.415 102.875 173.394 102.75 173.368 102.625C172.785 103.198 172.107 103.625 171.347 103.916C170.581 104.192 169.79 104.333 168.972 104.333ZM170.535 101.02C171.201 101.02 171.764 100.89 172.222 100.625C172.691 100.364 173.097 99.9892 173.43 99.4996V96.8538C172.555 96.8694 171.732 96.9371 170.972 97.0621C170.206 97.1767 169.587 97.3903 169.118 97.708C168.66 98.0153 168.43 98.4788 168.43 99.1038C168.43 99.6611 168.607 100.119 168.972 100.479C169.331 100.843 169.852 101.02 170.535 101.02Z" fill="black"/>
<path d="M188.333 104.333C187.218 104.333 186.234 104.104 185.374 103.645C184.525 103.187 183.812 102.432 183.228 101.375C182.645 100.323 182.187 98.9059 181.853 97.1246C181.531 95.3486 181.338 93.1403 181.27 90.4996C181.239 89.6403 181.447 88.9788 181.895 88.5205C182.338 88.0517 182.958 87.8121 183.749 87.8121H184.02C185.687 87.8121 186.52 88.7184 186.52 90.5205C186.562 93.0778 186.65 95.0726 186.791 96.4996C186.942 97.9163 187.171 98.9059 187.478 99.458C187.796 100.015 188.197 100.291 188.687 100.291C189.072 100.291 189.421 100.177 189.728 99.9371C190.031 99.7028 190.275 99.2496 190.458 98.583C190.65 97.9163 190.781 96.9476 190.853 95.6663C190.937 94.3903 190.958 92.7028 190.916 90.6038C190.874 88.7444 191.624 87.8121 193.166 87.8121C193.916 87.8121 194.489 88.3434 194.895 89.3955C195.312 90.4528 195.426 91.9788 195.249 93.9788C195.01 96.5778 194.593 98.6403 193.999 100.166C193.416 101.682 192.645 102.76 191.687 103.395C190.739 104.02 189.624 104.333 188.333 104.333Z" fill="black"/>
<path d="M208.829 104.041C207.172 104.041 206.349 103.208 206.349 101.541V86.208C206.349 84.5413 207.172 83.708 208.829 83.708H209.37C211.021 83.708 211.849 84.5413 211.849 86.208V101.541C211.849 103.208 211.021 104.041 209.37 104.041H208.829Z" fill="black"/>
<path d="M230.366 101.52C230.366 103.203 229.533 104.041 227.866 104.041H227.783C226.116 104.041 225.283 103.203 225.283 101.52C225.309 100.177 225.325 98.8903 225.325 97.6663C225.335 96.4476 225.346 95.3278 225.346 94.3121C225.346 93.3538 225.179 92.6871 224.846 92.3121C224.512 91.9371 224.012 91.7601 223.346 91.7705C222.221 91.8121 221.408 92.3851 220.908 93.4788C220.908 93.8694 220.898 94.2809 220.887 94.708C220.887 95.1246 220.887 95.5361 220.887 95.9371C220.872 96.8955 220.866 97.8434 220.866 98.7705C220.877 99.6871 220.892 100.614 220.908 101.541C220.908 103.208 220.08 104.041 218.429 104.041H218.241C216.585 104.041 215.762 103.208 215.762 101.541C215.773 100.614 215.783 99.6871 215.783 98.7705C215.793 97.8434 215.804 96.8955 215.804 95.9371C215.804 94.9684 215.793 94.0153 215.783 93.083C215.783 92.1559 215.773 91.2236 215.762 90.2913C215.762 88.6246 216.58 87.7913 218.221 87.7913C218.997 87.7913 219.596 87.9111 220.012 88.1455C220.439 88.385 220.642 88.7236 220.616 89.1663C220.616 89.3642 220.616 89.5778 220.616 89.8121C220.616 90.0361 220.616 90.2913 220.616 90.583H220.721C221.273 89.5413 221.976 88.7809 222.825 88.2913C223.684 87.8069 224.684 87.5621 225.825 87.5621C227.366 87.5621 228.517 88.0934 229.283 89.1455C230.043 90.2028 230.392 91.9371 230.325 94.3538C230.309 95.3851 230.304 96.4996 230.304 97.708C230.314 98.9163 230.335 100.187 230.366 101.52Z" fill="black"/>
<path d="M236.081 85.7705C234.998 85.7705 234.217 85.5778 233.748 85.1872C233.274 84.7861 233.04 84.1455 233.04 83.2705C233.04 82.3955 233.274 81.7653 233.748 81.3747C234.217 80.9736 234.998 80.7705 236.081 80.7705C237.175 80.7705 237.956 80.9736 238.415 81.3747C238.884 81.7653 239.123 82.3955 239.123 83.2705C239.123 84.1455 238.884 84.7861 238.415 85.1872C237.956 85.5778 237.175 85.7705 236.081 85.7705ZM236.165 104.041C234.498 104.041 233.665 103.208 233.665 101.541V99.0622C233.649 96.8851 233.644 95.1038 233.644 93.7288C233.644 92.3538 233.634 91.208 233.623 90.2913C233.623 88.6403 234.446 87.8122 236.102 87.8122H236.144C237.795 87.8122 238.623 88.6455 238.623 90.3122C238.623 91.3278 238.623 92.3955 238.623 93.5205C238.623 94.6351 238.613 95.6403 238.602 96.5413C238.587 97.3747 238.581 98.208 238.581 99.0413C238.592 99.8747 238.602 100.708 238.602 101.541C238.644 103.208 237.831 104.041 236.165 104.041Z" fill="black"/>
<path d="M248.661 104.333C247.546 104.333 246.562 104.104 245.702 103.645C244.853 103.187 244.14 102.432 243.556 101.375C242.973 100.323 242.515 98.9059 242.181 97.1246C241.858 95.3486 241.666 93.1403 241.598 90.4996C241.567 89.6403 241.775 88.9788 242.223 88.5205C242.666 88.0517 243.286 87.8121 244.077 87.8121H244.348C246.015 87.8121 246.848 88.7184 246.848 90.5205C246.89 93.0778 246.978 95.0726 247.119 96.4996C247.27 97.9163 247.499 98.9059 247.806 99.458C248.124 100.015 248.525 100.291 249.015 100.291C249.4 100.291 249.749 100.177 250.056 99.9371C250.358 99.7028 250.603 99.2496 250.786 98.583C250.978 97.9163 251.108 96.9476 251.181 95.6663C251.265 94.3903 251.286 92.7028 251.244 90.6038C251.202 88.7444 251.952 87.8121 253.494 87.8121C254.244 87.8121 254.817 88.3434 255.223 89.3955C255.64 90.4528 255.754 91.9788 255.577 93.9788C255.338 96.5778 254.921 98.6403 254.327 100.166C253.744 101.682 252.973 102.76 252.015 103.395C251.067 104.02 249.952 104.333 248.661 104.333Z" fill="black"/>
<path d="M263.262 104.333C262.304 104.333 261.429 104.177 260.637 103.875C259.845 103.557 259.21 103.073 258.741 102.416C258.283 101.765 258.054 100.927 258.054 99.8955C258.054 98.0621 258.83 96.6819 260.387 95.7496C261.939 94.8226 264.366 94.4059 267.658 94.4996V93.5205C267.658 92.4371 267.502 91.7028 267.2 91.3121C266.908 90.9267 266.434 90.7288 265.783 90.7288C265.418 90.7288 265.08 90.7861 264.762 90.8955C264.455 90.9944 264.21 91.1819 264.033 91.458C263.752 91.8903 263.517 92.2653 263.325 92.583C263.142 92.8903 262.934 93.1246 262.7 93.2913C262.476 93.458 262.116 93.5413 261.616 93.5413H261.325C260.502 93.5413 259.845 93.3226 259.345 92.8746C258.845 92.4163 258.71 91.7861 258.95 90.9788C259.283 89.8278 260.033 88.9736 261.2 88.4163C262.377 87.8486 264.038 87.5621 266.179 87.5621C270.538 87.5621 272.72 89.5153 272.72 93.4163C272.72 95.1819 272.72 96.7236 272.72 98.0413C272.731 99.3486 272.762 100.5 272.804 101.5C272.845 102.323 272.663 102.953 272.262 103.395C271.871 103.828 271.283 104.041 270.491 104.041H270.22C268.731 104.041 267.934 103.807 267.825 103.333C267.783 103.224 267.746 103.114 267.72 103C267.705 102.875 267.684 102.75 267.658 102.625C267.075 103.198 266.397 103.625 265.637 103.916C264.871 104.192 264.08 104.333 263.262 104.333ZM264.825 101.02C265.491 101.02 266.054 100.89 266.512 100.625C266.981 100.364 267.387 99.9892 267.72 99.4996V96.8538C266.845 96.8694 266.022 96.9371 265.262 97.0621C264.496 97.1767 263.877 97.3903 263.408 97.708C262.95 98.0153 262.72 98.4788 262.72 99.1038C262.72 99.6611 262.897 100.119 263.262 100.479C263.621 100.843 264.142 101.02 264.825 101.02Z" fill="black"/>
</svg>
