<svg width="686" height="111" viewBox="0 0 686 111" fill="none" xmlns="http://www.w3.org/2000/svg">
<mask id="mask0_33_174" style="mask-type:luminance" maskUnits="userSpaceOnUse" x="0" y="0" width="686" height="63">
<path d="M685.333 0H0V62.6667H685.333V0Z" fill="white"/>
</mask>
<g mask="url(#mask0_33_174)">
<path d="M9.54435 48.8011C6.67977 48.8011 5.25269 47.374 5.25269 44.5094C5.27873 42.3167 5.29956 40.1136 5.31519 37.9053C5.34123 35.6969 5.35685 33.4834 5.35685 31.2594C5.35685 29.0667 5.34123 26.874 5.31519 24.6761C5.29956 22.4678 5.27873 20.2699 5.25269 18.0719C5.25269 15.2126 6.67977 13.7803 9.54435 13.7803H18.2319C23.3569 13.7803 27.0756 14.6501 29.3985 16.3844C31.7319 18.124 32.8985 20.9261 32.8985 24.8011C32.8985 27.5667 32.2319 29.9626 30.8985 31.9886C29.5652 34.0042 27.6798 35.5615 25.2527 36.6553C22.836 37.7386 19.9402 38.2803 16.5652 38.2803H14.711C14.711 39.3376 14.711 40.3792 14.711 41.4053C14.711 42.4365 14.7214 43.4678 14.7527 44.5094C14.7527 47.374 13.3204 48.8011 10.461 48.8011H9.54435ZM14.711 31.1136H16.4194C18.8048 31.1136 20.5235 30.6501 21.5652 29.7178C22.6173 28.7907 23.1485 27.2803 23.1485 25.1969C23.1485 23.6136 22.6746 22.4834 21.7319 21.8011C20.7839 21.1084 19.2631 20.7594 17.1694 20.7594H14.7527C14.7214 22.1084 14.711 23.5459 14.711 25.0719C14.711 26.6032 14.711 28.6136 14.711 31.1136Z" fill="black"/>
<path d="M51.9548 49.3011C46.9236 49.3011 43.2361 47.7959 40.8923 44.7803C38.559 41.7699 37.3923 37.2594 37.3923 31.2594C37.3923 19.2751 42.3611 13.2803 52.309 13.2803C56.0434 13.2803 59.0278 14.1917 61.2673 16.0094C63.5017 17.8324 64.7725 20.4574 65.0798 23.8844C65.2153 25.3011 64.8715 26.374 64.0382 27.0928C63.2153 27.8167 62.1215 28.1761 60.7465 28.1761H60.434C59.059 28.1761 58.059 27.8011 57.434 27.0511C56.809 26.2907 56.3923 25.1865 56.184 23.7386C55.9861 22.4209 55.559 21.4834 54.8923 20.9261C54.2361 20.374 53.2725 20.0928 51.9965 20.0928C50.2465 20.0928 48.9861 20.9261 48.2257 22.5928C47.4757 24.2594 47.1007 27.1501 47.1007 31.2594C47.1007 34.2334 47.309 36.5199 47.7257 38.1136C48.1423 39.7126 48.7153 40.8167 49.4548 41.4261C50.2048 42.0251 51.0486 42.3219 51.9965 42.3219C53.0798 42.3219 53.9392 42.1449 54.5798 41.7803C55.2153 41.4053 55.6892 40.7699 55.9965 39.8636C56.4236 38.5199 56.96 37.499 57.6007 36.8011C58.2361 36.1084 59.2153 35.7594 60.5382 35.7594H60.5798C61.9653 35.7594 63.0694 36.1501 63.8923 36.9261C64.7257 37.7074 65.0017 38.8324 64.7257 40.3011C64.2257 43.374 62.8715 45.6449 60.6632 47.1136C58.4548 48.5719 55.5486 49.3011 51.9548 49.3011Z" fill="black"/>
<path d="M75.0842 48.8011C73.7092 48.8011 72.6467 48.4365 71.8967 47.6969C71.1571 46.9469 70.8029 45.8844 70.8342 44.5094C70.8342 42.2907 70.8394 40.0719 70.855 37.8636C70.8811 35.6553 70.8967 33.4574 70.8967 31.2594C70.8967 29.0667 70.8811 26.874 70.855 24.6761C70.8394 22.4678 70.8342 20.2699 70.8342 18.0719C70.8029 16.6969 71.1571 15.6449 71.8967 14.9053C72.6467 14.1553 73.7092 13.7803 75.0842 13.7803H76.0008C77.3758 13.7803 78.4279 14.1553 79.1675 14.9053C79.9175 15.6449 80.2769 16.6969 80.2508 18.0719C80.2508 19.8219 80.2508 21.5719 80.2508 23.3219C80.2508 25.0719 80.2508 26.8428 80.2508 28.6344L81.4592 27.8219C82.8029 26.9469 83.9488 25.5876 84.8967 23.7386C85.8394 21.8792 86.5842 19.874 87.1258 17.7178C87.4175 16.4001 87.9227 15.4157 88.6467 14.7594C89.3811 14.1084 90.4019 13.7803 91.7092 13.7803H92.6675C94.2196 13.7803 95.3394 14.2282 96.0217 15.1136C96.7144 16.0042 96.7977 17.1917 96.2717 18.6761C95.3238 21.2751 94.2404 23.5876 93.0217 25.6136C91.8133 27.6292 90.5217 29.0251 89.1467 29.8011V30.0511C90.6154 30.2907 91.8238 30.8219 92.7717 31.6553C93.7144 32.4782 94.5738 33.9157 95.355 35.9678C95.6154 36.7074 95.9019 37.6292 96.2092 38.7386C96.5113 39.8532 96.9383 41.5199 97.48 43.7386C97.855 45.3219 97.7092 46.5667 97.0425 47.4678C96.3863 48.3584 95.3029 48.8011 93.7925 48.8011H92.48C89.8811 48.8011 88.3342 47.4053 87.8342 44.6136C87.3186 41.9209 86.8186 39.8532 86.3342 38.4053C85.8446 36.9469 85.2977 35.9365 84.6883 35.3636C84.0738 34.7803 83.355 34.4886 82.5217 34.4886C82.0738 34.4886 81.6988 34.5042 81.3967 34.5303C81.105 34.5459 80.7196 34.624 80.2508 34.7594C80.2508 36.374 80.2508 37.9886 80.2508 39.6136C80.2508 41.2282 80.2508 42.8584 80.2508 44.5094C80.2769 45.8844 79.9175 46.9469 79.1675 47.6969C78.4279 48.4365 77.3758 48.8011 76.0008 48.8011H75.0842Z" fill="black"/>
<path d="M111.066 49.3011C109.41 49.3011 107.904 49.0355 106.545 48.5094C105.181 47.9678 104.092 47.1344 103.274 46.0094C102.467 44.874 102.066 43.4261 102.066 41.6761C102.066 38.5094 103.404 36.1292 106.087 34.5303C108.764 32.9209 112.951 32.2074 118.649 32.3844V30.6553C118.649 28.8115 118.384 27.5511 117.858 26.8844C117.342 26.2074 116.529 25.8636 115.42 25.8636C114.779 25.8636 114.191 25.9574 113.649 26.1344C113.108 26.3167 112.681 26.6449 112.378 27.1136C111.904 27.8636 111.509 28.5094 111.191 29.0511C110.868 29.5824 110.509 29.9886 110.108 30.2803C109.701 30.5615 109.076 30.6969 108.233 30.6969H107.733C106.316 30.6969 105.175 30.3167 104.316 29.5511C103.451 28.7751 103.222 27.6917 103.628 26.3011C104.212 24.3167 105.509 22.8376 107.524 21.8636C109.55 20.8949 112.399 20.4053 116.066 20.4053C123.576 20.4053 127.337 23.7751 127.337 30.5094C127.337 33.5407 127.342 36.1865 127.358 38.4469C127.384 40.6969 127.425 42.6865 127.483 44.4053C127.55 45.8219 127.243 46.9157 126.566 47.6761C125.899 48.4261 124.878 48.8011 123.503 48.8011H123.045C120.488 48.8011 119.108 48.4001 118.899 47.5928C118.826 47.3844 118.774 47.1865 118.733 46.9886C118.701 46.7803 118.675 46.5824 118.649 46.3844C117.634 47.3584 116.467 48.0876 115.149 48.5719C113.842 49.0563 112.483 49.3011 111.066 49.3011ZM113.753 43.5928C114.889 43.5928 115.863 43.374 116.67 42.9261C117.488 42.4678 118.181 41.8167 118.753 40.9678V36.4261C117.238 36.4574 115.821 36.5719 114.503 36.7803C113.181 36.9782 112.118 37.3428 111.316 37.8844C110.509 38.4261 110.108 39.2334 110.108 40.3011C110.108 41.249 110.42 42.0303 111.045 42.6553C111.67 43.2803 112.571 43.5928 113.753 43.5928Z" fill="black"/>
<path d="M143.351 49.4053C140.085 49.4053 137.564 48.9521 135.788 48.0511C134.022 47.1344 132.856 45.8011 132.288 44.0511C131.84 42.6657 131.986 41.5876 132.726 40.8219C133.476 40.0459 134.439 39.6553 135.621 39.6553H135.767C136.585 39.6553 137.194 39.7959 137.601 40.0719C138.002 40.3376 138.361 40.7126 138.684 41.1969C139.002 41.6865 139.397 42.249 139.871 42.8844C140.34 43.499 141.382 43.8011 142.996 43.8011C144.58 43.8011 145.689 43.5511 146.33 43.0511C146.981 42.5407 147.309 41.9157 147.309 41.1761C147.309 40.2334 147.022 39.5251 146.455 39.0511C145.897 38.5824 145.174 38.2282 144.288 37.9886C143.397 37.7542 142.413 37.5511 141.33 37.3844C140.257 37.2178 139.174 37.0042 138.08 36.7386C136.981 36.4626 135.981 36.0459 135.08 35.4886C134.189 34.9365 133.465 34.1344 132.913 33.0928C132.356 32.0407 132.08 30.6709 132.08 28.9886C132.08 23.2699 136.038 20.4053 143.955 20.4053C149.996 20.4053 153.569 22.1709 154.684 25.6969C155.085 27.0459 154.913 28.1032 154.163 28.8636C153.424 29.6292 152.465 30.0094 151.288 30.0094H151.08C150.314 30.0094 149.715 29.8844 149.288 29.6344C148.871 29.374 148.502 29.0199 148.184 28.5719C147.861 28.1136 147.455 27.5928 146.955 27.0094C146.413 26.4834 145.413 26.2178 143.955 26.2178C142.606 26.2178 141.684 26.4417 141.184 26.8844C140.684 27.3167 140.434 27.9157 140.434 28.6761C140.434 29.6917 140.799 30.4365 141.538 30.9053C142.272 31.3792 143.21 31.7126 144.351 31.9053C145.502 32.0876 146.736 32.2803 148.059 32.4886C149.377 32.6865 150.606 33.0199 151.746 33.4886C152.897 33.9626 153.84 34.7126 154.58 35.7386C155.314 36.7699 155.684 38.2074 155.684 40.0511C155.684 43.1501 154.632 45.4834 152.538 47.0511C150.455 48.624 147.392 49.4053 143.351 49.4053Z" fill="black"/>
<path d="M171.042 49.4053C167.776 49.4053 165.256 48.9521 163.48 48.0511C161.714 47.1344 160.547 45.8011 159.98 44.0511C159.532 42.6657 159.677 41.5876 160.417 40.8219C161.167 40.0459 162.131 39.6553 163.313 39.6553H163.459C164.276 39.6553 164.886 39.7959 165.292 40.0719C165.693 40.3376 166.052 40.7126 166.375 41.1969C166.693 41.6865 167.089 42.249 167.563 42.8844C168.032 43.499 169.073 43.8011 170.688 43.8011C172.271 43.8011 173.381 43.5511 174.021 43.0511C174.672 42.5407 175 41.9157 175 41.1761C175 40.2334 174.714 39.5251 174.146 39.0511C173.589 38.5824 172.865 38.2282 171.98 37.9886C171.089 37.7542 170.105 37.5511 169.021 37.3844C167.948 37.2178 166.865 37.0042 165.771 36.7386C164.672 36.4626 163.672 36.0459 162.771 35.4886C161.881 34.9365 161.157 34.1344 160.605 33.0928C160.047 32.0407 159.771 30.6709 159.771 28.9886C159.771 23.2699 163.73 20.4053 171.646 20.4053C177.688 20.4053 181.261 22.1709 182.375 25.6969C182.776 27.0459 182.605 28.1032 181.855 28.8636C181.115 29.6292 180.157 30.0094 178.98 30.0094H178.771C178.006 30.0094 177.407 29.8844 176.98 29.6344C176.563 29.374 176.193 29.0199 175.875 28.5719C175.552 28.1136 175.146 27.5928 174.646 27.0094C174.105 26.4834 173.105 26.2178 171.646 26.2178C170.297 26.2178 169.375 26.4417 168.875 26.8844C168.375 27.3167 168.125 27.9157 168.125 28.6761C168.125 29.6917 168.49 30.4365 169.23 30.9053C169.964 31.3792 170.901 31.7126 172.042 31.9053C173.193 32.0876 174.427 32.2803 175.75 32.4886C177.068 32.6865 178.297 33.0199 179.438 33.4886C180.589 33.9626 181.532 34.7126 182.271 35.7386C183.006 36.7699 183.375 38.2074 183.375 40.0511C183.375 43.1501 182.323 45.4834 180.23 47.0511C178.146 48.624 175.084 49.4053 171.042 49.4053Z" fill="black"/>
<path d="M200.15 49.3011C195.634 49.3011 192.327 48.0667 190.233 45.5928C188.15 43.124 187.108 39.3949 187.108 34.4053C187.108 25.0719 191.452 20.4053 200.15 20.4053C203.285 20.4053 205.806 21.0667 207.713 22.3844C209.614 23.6917 210.942 25.5303 211.692 27.9053C212.452 30.2803 212.671 33.0407 212.338 36.1761C212.265 36.7074 212.015 36.9678 211.588 36.9678H195.463C195.515 38.6917 195.754 40.0251 196.171 40.9678C196.598 41.9157 197.16 42.5667 197.858 42.9261C198.551 43.2751 199.338 43.4469 200.213 43.4469C201.515 43.4469 202.556 43.2282 203.338 42.7803C203.973 42.3532 204.468 41.9365 204.817 41.5303C205.176 41.1292 205.556 40.7959 205.963 40.5303C206.364 40.2542 206.921 40.1136 207.629 40.1136C208.947 40.1136 209.989 40.4417 210.754 41.0928C211.53 41.749 211.739 42.6501 211.379 43.8011C210.197 47.4678 206.452 49.3011 200.15 49.3011ZM195.504 32.2178H203.796C203.864 30.2074 203.577 28.6917 202.942 27.6761C202.301 26.6657 201.239 26.1553 199.754 26.1553C198.431 26.1553 197.384 26.6553 196.608 27.6553C195.843 28.6449 195.473 30.1657 195.504 32.2178Z" fill="black"/>
<path d="M250.178 16.5094C250.079 17.5823 249.647 18.2073 248.886 18.3844C248.136 18.5511 247.017 18.5823 245.532 18.4677C244.324 18.4157 243.329 18.7334 242.553 19.4261C241.772 20.1084 241.386 21.2073 241.386 22.7177V24.9469H245.074C247.933 24.9469 249.366 26.0094 249.366 28.1344C249.366 30.2907 248.037 31.3636 245.386 31.3636L241.386 31.4052C241.386 31.8219 241.392 32.2334 241.407 32.6344C241.433 33.0407 241.449 33.4417 241.449 33.8427C241.449 35.5927 241.454 37.3636 241.47 39.1552C241.48 40.9365 241.491 42.7177 241.491 44.5094C241.491 47.374 240.142 48.8011 237.449 48.8011C234.709 48.8011 233.345 47.374 233.345 44.5094C233.345 42.7177 233.334 40.9365 233.324 39.1552C233.308 37.3636 233.303 35.5927 233.303 33.8427V31.4677H232.907C230.032 31.4677 228.595 30.374 228.595 28.1761C228.595 26.025 229.386 24.9469 230.97 24.9469H233.303C233.272 24.4781 233.261 24.0042 233.261 23.5302C233.261 23.0615 233.261 22.6084 233.261 22.1761C233.22 19.6084 233.647 17.5667 234.553 16.0511C235.47 14.5407 236.772 13.4469 238.47 12.7802C240.178 12.1031 242.178 11.7594 244.47 11.7594C244.912 11.7594 245.334 11.7802 245.741 11.8219C246.142 11.8531 246.532 11.8948 246.907 11.9469C248.183 12.1552 249.074 12.6865 249.574 13.5302C250.084 14.3636 250.287 15.3584 250.178 16.5094Z" fill="black"/>
<path d="M265.699 49.4053C257.032 49.4053 252.699 44.5719 252.699 34.9053C252.699 25.2386 257.032 20.4053 265.699 20.4053C274.225 20.4053 278.491 25.2386 278.491 34.9053C278.491 44.5719 274.225 49.4053 265.699 49.4053ZM265.699 43.2386C266.501 43.2386 267.22 43.0199 267.845 42.5719C268.47 42.1136 268.954 41.2803 269.303 40.0719C269.663 38.8532 269.845 37.1292 269.845 34.9053C269.845 31.8115 269.522 29.6501 268.886 28.4261C268.246 27.1917 267.183 26.5719 265.699 26.5719C264.116 26.5719 262.991 27.1917 262.324 28.4261C261.668 29.6501 261.345 31.8115 261.345 34.9053C261.345 37.1292 261.532 38.8532 261.907 40.0719C262.282 41.2803 262.793 42.1136 263.449 42.5719C264.1 43.0199 264.85 43.2386 265.699 43.2386Z" fill="black"/>
<path d="M299.195 20.4469C299.664 20.5459 300.153 20.8011 300.653 21.2178C301.164 21.624 301.591 22.3115 301.924 23.2803C302.091 23.8532 302.174 24.4417 302.174 25.0511C302.174 25.6501 302.091 26.2386 301.924 26.8219C301.591 28.1292 301.08 28.999 300.403 29.4261C299.736 29.8428 299.08 29.9365 298.445 29.6969C297.804 29.4886 297.132 29.3844 296.424 29.3844C294.226 29.3844 292.658 30.7907 291.716 33.5928V34.8011C291.716 35.3428 291.705 35.9001 291.695 36.4678C291.679 37.0407 291.674 37.5928 291.674 38.1344C291.674 39.1761 291.679 40.2126 291.695 41.2386C291.705 42.2699 291.736 43.3219 291.778 44.4053C291.872 47.3376 290.471 48.8011 287.57 48.8011H287.424C284.559 48.8011 283.132 47.374 283.132 44.5094C283.158 42.8844 283.179 41.2751 283.195 39.6761C283.221 38.0824 283.236 36.4574 283.236 34.8011C283.236 33.124 283.221 31.4886 283.195 29.9053C283.179 28.3219 283.158 26.7178 283.132 25.0928C283.132 22.2334 284.492 20.8011 287.216 20.8011C289.95 20.8011 291.32 21.8792 291.32 24.0303V27.3219L291.466 27.4261C291.867 25.3324 292.632 23.6292 293.757 22.3219C294.893 21.0042 296.289 20.3428 297.945 20.3428C298.205 20.3428 298.445 20.3584 298.653 20.3844C298.872 20.4001 299.054 20.4209 299.195 20.4469Z" fill="black"/>
<path d="M351.151 18.4261C351.151 15.3324 352.568 13.7803 355.401 13.7803C356.745 13.7803 357.781 14.1761 358.505 14.9678C359.224 15.7594 359.552 16.9001 359.485 18.3844C359.245 25.5928 358.672 31.4834 357.755 36.0511C356.849 40.6084 355.531 43.9574 353.797 46.0928C352.057 48.2334 349.797 49.3011 347.005 49.3011C344.682 49.3011 342.802 48.5407 341.36 47.0094C339.927 45.4678 338.88 43.2907 338.214 40.4678C337.365 43.2907 336.089 45.4678 334.38 47.0094C332.682 48.5407 330.656 49.3011 328.297 49.3011C325.766 49.3011 323.682 48.2282 322.047 46.0719C320.422 43.9209 319.193 40.5615 318.36 35.9886C317.537 31.4209 317.057 25.5303 316.922 18.3219C316.891 16.8376 317.245 15.7126 317.985 14.9469C318.735 14.1709 319.797 13.7803 321.172 13.7803H321.88C324.74 13.7803 326.172 15.3324 326.172 18.4261C326.214 22.7751 326.318 26.3636 326.485 29.1969C326.651 32.0199 326.891 34.2334 327.214 35.8428C327.531 37.4417 327.932 38.5719 328.422 39.2386C328.922 39.8949 329.49 40.2178 330.13 40.2178C331.13 40.2178 331.901 39.8949 332.443 39.2386C332.985 38.5719 333.365 37.4417 333.589 35.8428C333.807 34.2334 333.927 32.0199 333.943 29.1969C333.953 26.3636 333.964 22.7751 333.964 18.4261C333.964 15.3324 335.391 13.7803 338.255 13.7803H338.922C341.781 13.7803 343.214 15.3324 343.214 18.4261C343.24 22.7751 343.339 26.3636 343.505 29.1969C343.682 32.0199 343.932 34.2334 344.255 35.8428C344.573 37.4417 344.969 38.5719 345.443 39.2386C345.912 39.8949 346.469 40.2178 347.11 40.2178C347.818 40.2178 348.422 39.8949 348.922 39.2386C349.432 38.5719 349.849 37.4417 350.172 35.8428C350.49 34.2334 350.719 32.0199 350.86 29.1969C351.011 26.3636 351.11 22.7751 351.151 18.4261Z" fill="black"/>
<path d="M376.263 49.4053C367.596 49.4053 363.263 44.5719 363.263 34.9053C363.263 25.2386 367.596 20.4053 376.263 20.4053C384.789 20.4053 389.054 25.2386 389.054 34.9053C389.054 44.5719 384.789 49.4053 376.263 49.4053ZM376.263 43.2386C377.065 43.2386 377.784 43.0199 378.409 42.5719C379.034 42.1136 379.518 41.2803 379.867 40.0719C380.226 38.8532 380.409 37.1292 380.409 34.9053C380.409 31.8115 380.086 29.6501 379.45 28.4261C378.81 27.1917 377.747 26.5719 376.263 26.5719C374.679 26.5719 373.554 27.1917 372.888 28.4261C372.231 29.6501 371.909 31.8115 371.909 34.9053C371.909 37.1292 372.096 38.8532 372.471 40.0719C372.846 41.2803 373.356 42.1136 374.013 42.5719C374.664 43.0199 375.414 43.2386 376.263 43.2386Z" fill="black"/>
<path d="M405.672 49.4053C397.005 49.4053 392.672 44.5719 392.672 34.9053C392.672 25.2386 397.005 20.4053 405.672 20.4053C414.198 20.4053 418.464 25.2386 418.464 34.9053C418.464 44.5719 414.198 49.4053 405.672 49.4053ZM405.672 43.2386C406.474 43.2386 407.193 43.0199 407.818 42.5719C408.443 42.1136 408.927 41.2803 409.276 40.0719C409.636 38.8532 409.818 37.1292 409.818 34.9053C409.818 31.8115 409.495 29.6501 408.86 28.4261C408.219 27.1917 407.156 26.5719 405.672 26.5719C404.089 26.5719 402.964 27.1917 402.297 28.4261C401.641 29.6501 401.318 31.8115 401.318 34.9053C401.318 37.1292 401.505 38.8532 401.88 40.0719C402.255 41.2803 402.766 42.1136 403.422 42.5719C404.073 43.0199 404.823 43.2386 405.672 43.2386Z" fill="black"/>
<path d="M437.311 49.3011C432.28 49.3011 428.592 47.7959 426.248 44.7803C423.915 41.7699 422.748 37.2594 422.748 31.2594C422.748 19.2751 427.717 13.2803 437.665 13.2803C441.399 13.2803 444.384 14.1917 446.623 16.0094C448.858 17.8324 450.128 20.4574 450.436 23.8844C450.571 25.3011 450.227 26.374 449.394 27.0928C448.571 27.8167 447.477 28.1761 446.102 28.1761H445.79C444.415 28.1761 443.415 27.8011 442.79 27.0511C442.165 26.2907 441.748 25.1865 441.54 23.7386C441.342 22.4209 440.915 21.4834 440.248 20.9261C439.592 20.374 438.628 20.0928 437.352 20.0928C435.602 20.0928 434.342 20.9261 433.582 22.5928C432.832 24.2594 432.457 27.1501 432.457 31.2594C432.457 34.2334 432.665 36.5199 433.082 38.1136C433.498 39.7126 434.071 40.8167 434.811 41.4261C435.561 42.0251 436.405 42.3219 437.352 42.3219C438.436 42.3219 439.295 42.1449 439.936 41.7803C440.571 41.4053 441.045 40.7699 441.352 39.8636C441.78 38.5199 442.316 37.499 442.957 36.8011C443.592 36.1084 444.571 35.7594 445.894 35.7594H445.936C447.321 35.7594 448.425 36.1501 449.248 36.9261C450.082 37.7074 450.358 38.8324 450.082 40.3011C449.582 43.374 448.227 45.6449 446.019 47.1136C443.811 48.5719 440.905 49.3011 437.311 49.3011Z" fill="black"/>
<path d="M467.271 49.4053C458.604 49.4053 454.271 44.5719 454.271 34.9053C454.271 25.2386 458.604 20.4053 467.271 20.4053C475.797 20.4053 480.062 25.2386 480.062 34.9053C480.062 44.5719 475.797 49.4053 467.271 49.4053ZM467.271 43.2386C468.073 43.2386 468.791 43.0199 469.416 42.5719C470.041 42.1136 470.526 41.2803 470.875 40.0719C471.234 38.8532 471.416 37.1292 471.416 34.9053C471.416 31.8115 471.093 29.6501 470.458 28.4261C469.817 27.1917 468.755 26.5719 467.271 26.5719C465.687 26.5719 464.562 27.1917 463.896 28.4261C463.239 29.6501 462.916 31.8115 462.916 34.9053C462.916 37.1292 463.104 38.8532 463.479 40.0719C463.854 41.2803 464.364 42.1136 465.021 42.5719C465.672 43.0199 466.422 43.2386 467.271 43.2386Z" fill="black"/>
<path d="M525.835 44.4469C525.835 47.3532 524.403 48.8011 521.543 48.8011H521.397C518.522 48.8011 517.085 47.3532 517.085 44.4469C517.127 42.1292 517.153 39.9209 517.168 37.8219C517.179 35.7126 517.189 33.7803 517.189 32.0303C517.189 30.3792 516.903 29.2334 516.335 28.5928C515.762 27.9574 514.903 27.6501 513.752 27.6761C511.929 27.7074 510.585 28.5667 509.71 30.2594V32.1136C509.679 33.8792 509.673 35.8011 509.689 37.8844C509.699 39.9678 509.731 42.1553 509.772 44.4469C509.772 47.3532 508.34 48.8011 505.481 48.8011H505.314C502.449 48.8011 501.022 47.3532 501.022 44.4469C501.048 42.1292 501.069 39.9209 501.085 37.8219C501.111 35.7126 501.127 33.7803 501.127 32.0303C501.127 30.3792 500.835 29.2334 500.252 28.5928C499.679 27.9574 498.824 27.6501 497.689 27.6761C495.772 27.749 494.356 28.7282 493.439 30.6136V34.8011C493.408 36.4574 493.403 38.0824 493.418 39.6761C493.429 41.2751 493.439 42.8844 493.439 44.5094C493.481 45.8844 493.127 46.9469 492.377 47.6969C491.637 48.4365 490.574 48.8011 489.189 48.8011H488.835C487.46 48.8011 486.397 48.4365 485.647 47.6969C484.908 46.9469 484.564 45.8844 484.606 44.5094C484.632 42.8844 484.653 41.2751 484.668 39.6761C484.679 38.0824 484.689 36.4574 484.689 34.8011C484.689 33.124 484.679 31.4886 484.668 29.9053C484.653 28.3219 484.632 26.7178 484.606 25.0928C484.564 23.7178 484.908 22.6657 485.647 21.9261C486.397 21.1761 487.46 20.8011 488.835 20.8011C490.22 20.8011 491.293 21.0042 492.043 21.4053C492.804 21.8115 493.189 22.4001 493.189 23.1761C493.158 23.5094 493.147 23.8844 493.147 24.3011C493.147 24.7074 493.127 25.1344 493.085 25.5928H493.147C494.116 23.8167 495.335 22.5094 496.793 21.6761C498.262 20.8324 499.981 20.4053 501.939 20.4053C503.757 20.4053 505.262 20.8167 506.46 21.6344C507.653 22.4574 508.522 23.7751 509.064 25.5928H509.21C510.179 23.8167 511.397 22.5094 512.856 21.6761C514.324 20.8324 516.043 20.4053 518.002 20.4053C520.668 20.4053 522.653 21.3167 523.96 23.1344C525.278 24.9574 525.887 27.9469 525.793 32.1136C525.752 33.8792 525.736 35.8011 525.752 37.8844C525.778 39.9678 525.804 42.1553 525.835 44.4469Z" fill="black"/>
<path d="M572.678 44.4469C572.678 47.3532 571.246 48.8011 568.386 48.8011H568.24C565.365 48.8011 563.928 47.3532 563.928 44.4469C563.97 42.1292 563.996 39.9209 564.011 37.8219C564.022 35.7126 564.032 33.7803 564.032 32.0303C564.032 30.3792 563.746 29.2334 563.178 28.5928C562.605 27.9574 561.746 27.6501 560.595 27.6761C558.772 27.7074 557.428 28.5667 556.553 30.2594V32.1136C556.522 33.8792 556.516 35.8011 556.532 37.8844C556.542 39.9678 556.574 42.1553 556.615 44.4469C556.615 47.3532 555.183 48.8011 552.324 48.8011H552.157C549.292 48.8011 547.865 47.3532 547.865 44.4469C547.891 42.1292 547.912 39.9209 547.928 37.8219C547.954 35.7126 547.97 33.7803 547.97 32.0303C547.97 30.3792 547.678 29.2334 547.095 28.5928C546.522 27.9574 545.667 27.6501 544.532 27.6761C542.615 27.749 541.199 28.7282 540.282 30.6136V34.8011C540.251 36.4574 540.246 38.0824 540.261 39.6761C540.272 41.2751 540.282 42.8844 540.282 44.5094C540.324 45.8844 539.97 46.9469 539.22 47.6969C538.48 48.4365 537.417 48.8011 536.032 48.8011H535.678C534.303 48.8011 533.24 48.4365 532.49 47.6969C531.751 46.9469 531.407 45.8844 531.449 44.5094C531.475 42.8844 531.496 41.2751 531.511 39.6761C531.522 38.0824 531.532 36.4574 531.532 34.8011C531.532 33.124 531.522 31.4886 531.511 29.9053C531.496 28.3219 531.475 26.7178 531.449 25.0928C531.407 23.7178 531.751 22.6657 532.49 21.9261C533.24 21.1761 534.303 20.8011 535.678 20.8011C537.063 20.8011 538.136 21.0042 538.886 21.4053C539.647 21.8115 540.032 22.4001 540.032 23.1761C540.001 23.5094 539.99 23.8844 539.99 24.3011C539.99 24.7074 539.97 25.1344 539.928 25.5928H539.99C540.959 23.8167 542.178 22.5094 543.636 21.6761C545.105 20.8324 546.824 20.4053 548.782 20.4053C550.6 20.4053 552.105 20.8167 553.303 21.6344C554.496 22.4574 555.365 23.7751 555.907 25.5928H556.053C557.022 23.8167 558.24 22.5094 559.699 21.6761C561.167 20.8324 562.886 20.4053 564.845 20.4053C567.511 20.4053 569.496 21.3167 570.803 23.1344C572.121 24.9574 572.73 27.9469 572.636 32.1136C572.595 33.8792 572.579 35.8011 572.595 37.8844C572.621 39.9678 572.647 42.1553 572.678 44.4469Z" fill="black"/>
<path d="M590.458 49.3011C585.943 49.3011 582.635 48.0667 580.542 45.5928C578.458 43.124 577.417 39.3949 577.417 34.4053C577.417 25.0719 581.76 20.4053 590.458 20.4053C593.594 20.4053 596.115 21.0667 598.021 22.3844C599.922 23.6917 601.25 25.5303 602 27.9053C602.76 30.2803 602.979 33.0407 602.646 36.1761C602.573 36.7074 602.323 36.9678 601.896 36.9678H585.771C585.823 38.6917 586.063 40.0251 586.479 40.9678C586.906 41.9157 587.469 42.5667 588.167 42.9261C588.859 43.2751 589.646 43.4469 590.521 43.4469C591.823 43.4469 592.865 43.2282 593.646 42.7803C594.281 42.3532 594.776 41.9365 595.125 41.5303C595.484 41.1292 595.865 40.7959 596.271 40.5303C596.672 40.2542 597.229 40.1136 597.938 40.1136C599.255 40.1136 600.297 40.4417 601.063 41.0928C601.839 41.749 602.047 42.6501 601.688 43.8011C600.505 47.4678 596.76 49.3011 590.458 49.3011ZM585.813 32.2178H594.104C594.172 30.2074 593.885 28.6917 593.25 27.6761C592.609 26.6657 591.547 26.1553 590.063 26.1553C588.74 26.1553 587.693 26.6553 586.917 27.6553C586.151 28.6449 585.781 30.1657 585.813 32.2178Z" fill="black"/>
<path d="M623.812 20.4469C624.28 20.5459 624.77 20.8011 625.27 21.2178C625.78 21.624 626.207 22.3115 626.541 23.2803C626.707 23.8532 626.791 24.4417 626.791 25.0511C626.791 25.6501 626.707 26.2386 626.541 26.8219C626.207 28.1292 625.697 28.999 625.02 29.4261C624.353 29.8428 623.697 29.9365 623.062 29.6969C622.421 29.4886 621.749 29.3844 621.041 29.3844C618.843 29.3844 617.275 30.7907 616.332 33.5928V34.8011C616.332 35.3428 616.322 35.9001 616.312 36.4678C616.296 37.0407 616.291 37.5928 616.291 38.1344C616.291 39.1761 616.296 40.2126 616.312 41.2386C616.322 42.2699 616.353 43.3219 616.395 44.4053C616.489 47.3376 615.088 48.8011 612.187 48.8011H612.041C609.176 48.8011 607.749 47.374 607.749 44.5094C607.775 42.8844 607.796 41.2751 607.812 39.6761C607.838 38.0824 607.853 36.4574 607.853 34.8011C607.853 33.124 607.838 31.4886 607.812 29.9053C607.796 28.3219 607.775 26.7178 607.749 25.0928C607.749 22.2334 609.108 20.8011 611.832 20.8011C614.567 20.8011 615.937 21.8792 615.937 24.0303V27.3219L616.082 27.4261C616.483 25.3324 617.249 23.6292 618.374 22.3219C619.509 21.0042 620.905 20.3428 622.562 20.3428C622.822 20.3428 623.062 20.3584 623.27 20.3844C623.489 20.4001 623.671 20.4209 623.812 20.4469Z" fill="black"/>
<path d="M641.656 49.3011C637.166 49.3011 633.875 48.1084 631.781 45.7178C629.698 43.3324 628.656 39.7386 628.656 34.9469C628.656 25.2542 633.073 20.4053 641.906 20.4053C645 20.4053 647.453 21.0511 649.26 22.3428C651.062 23.6344 652.25 25.5094 652.823 27.9678C653.156 29.3844 652.969 30.4886 652.26 31.2803C651.552 32.0719 650.557 32.4678 649.281 32.4678C647.974 32.4678 647.057 32.1449 646.531 31.4886C646 30.8376 645.474 29.8844 644.948 28.6344C644.708 28.0928 644.333 27.7074 643.823 27.4678C643.323 27.2334 642.635 27.1136 641.76 27.1136C640.135 27.1136 638.979 27.6969 638.302 28.8636C637.635 30.0303 637.302 32.0615 637.302 34.9469C637.302 37.1449 637.489 38.8376 637.864 40.0303C638.239 41.2282 638.76 42.0459 639.427 42.4886C640.104 42.9209 640.885 43.1344 641.76 43.1344C643.203 43.1344 644.208 42.7803 644.781 42.0719C645.323 41.3376 645.765 40.6969 646.114 40.1553C646.474 39.6136 646.875 39.1969 647.323 38.9053C647.781 38.6032 648.432 38.4469 649.281 38.4469C650.489 38.4469 651.448 38.8167 652.156 39.5511C652.864 40.2907 653.036 41.3011 652.677 42.5928C651.427 47.0667 647.75 49.3011 641.656 49.3011Z" fill="black"/>
<path d="M669.541 49.3011C665.025 49.3011 661.718 48.0667 659.624 45.5928C657.541 43.124 656.499 39.3949 656.499 34.4053C656.499 25.0719 660.843 20.4053 669.541 20.4053C672.676 20.4053 675.197 21.0667 677.103 22.3844C679.004 23.6917 680.332 25.5303 681.082 27.9053C681.843 30.2803 682.062 33.0407 681.728 36.1761C681.655 36.7074 681.405 36.9678 680.978 36.9678H664.853C664.905 38.6917 665.145 40.0251 665.562 40.9678C665.989 41.9157 666.551 42.5667 667.249 42.9261C667.942 43.2751 668.728 43.4469 669.603 43.4469C670.905 43.4469 671.947 43.2282 672.728 42.7803C673.364 42.3532 673.858 41.9365 674.207 41.5303C674.567 41.1292 674.947 40.7959 675.353 40.5303C675.754 40.2542 676.312 40.1136 677.02 40.1136C678.338 40.1136 679.379 40.4417 680.145 41.0928C680.921 41.749 681.129 42.6501 680.77 43.8011C679.588 47.4678 675.843 49.3011 669.541 49.3011ZM664.895 32.2178H673.187C673.254 30.2074 672.968 28.6917 672.332 27.6761C671.692 26.6657 670.629 26.1553 669.145 26.1553C667.822 26.1553 666.775 26.6553 665.999 27.6553C665.233 28.6449 664.864 30.1657 664.895 32.2178Z" fill="black"/>
</g>
<path d="M161.531 68.974H523.802" stroke="#2B7FFF" stroke-width="4"/>
<path d="M215.936 100.146C216.796 100.119 217.655 100.104 218.52 100.104C219.379 100.104 220.218 100.099 221.041 100.083C222.707 100.083 223.541 100.739 223.541 102.041C223.541 103.375 222.707 104.041 221.041 104.041H212.936C212.145 104.041 211.53 103.828 211.103 103.396C210.671 102.968 210.462 102.349 210.478 101.541C210.478 100.25 210.478 98.9684 210.478 97.6872C210.489 96.4111 210.499 95.1351 210.499 93.8538C210.499 92.5934 210.489 91.3226 210.478 90.0413C210.478 88.7497 210.478 87.4736 210.478 86.208C210.462 85.4059 210.671 84.7861 211.103 84.3538C211.53 83.9268 212.145 83.708 212.936 83.708H220.749C222.4 83.708 223.228 84.3695 223.228 85.6872C223.228 87.0101 222.4 87.6663 220.749 87.6663C219.957 87.6559 219.155 87.6455 218.353 87.6455C217.546 87.6455 216.739 87.6403 215.936 87.6247V92.1038C216.561 92.0934 217.171 92.083 217.77 92.083C218.379 92.083 218.978 92.0726 219.561 92.0413C221.228 92.0413 222.061 92.6976 222.061 93.9997C222.061 95.333 221.228 95.9997 219.561 95.9997C218.978 95.9893 218.379 95.9788 217.77 95.9788C217.171 95.9788 216.561 95.9684 215.936 95.9372V100.146Z" fill="black"/>
<path d="M234.111 100.5C234.97 100.458 235.637 100.5 236.111 100.625C236.58 100.75 236.845 101.12 236.903 101.729C236.955 102.354 236.851 102.896 236.59 103.354C236.324 103.802 235.871 104.083 235.236 104.208C234.653 104.333 234.007 104.396 233.298 104.396C232.09 104.396 231.033 104.208 230.132 103.833C229.241 103.458 228.554 102.854 228.069 102.021C227.595 101.177 227.371 100.041 227.403 98.6247C227.413 97.7653 227.423 96.8643 227.423 95.9164C227.423 94.9737 227.423 94.0362 227.423 93.1039V91.583H227.403C225.736 91.583 224.903 90.9528 224.903 89.6872C224.903 88.4372 225.324 87.8122 226.173 87.8122H227.403C227.403 87.5622 227.392 87.3226 227.382 87.083C227.366 86.8487 227.361 86.6039 227.361 86.3539C227.361 84.9112 228.048 83.9737 229.423 83.5414C230.241 83.2653 230.903 83.2862 231.403 83.6039C231.903 83.9112 232.153 84.4528 232.153 85.2289V87.8122H234.215C235.866 87.8122 236.694 88.432 236.694 89.6664C236.694 90.906 235.944 91.5205 234.444 91.5205L232.153 91.5414C232.153 91.7914 232.142 92.0518 232.132 92.3122C232.132 92.5622 232.132 92.8278 232.132 93.1039C232.101 93.9372 232.09 94.781 232.09 95.6247C232.09 96.458 232.09 97.2601 232.09 98.0205C232.09 99.6872 232.762 100.515 234.111 100.5Z" fill="black"/>
<path d="M254.992 87.583C256.184 87.583 257.252 87.833 258.2 88.333C259.158 88.8226 259.919 89.6455 260.492 90.8122C261.059 91.9788 261.346 93.5934 261.346 95.6455C261.346 97.5934 261.059 99.208 260.492 100.5C259.934 101.791 259.184 102.76 258.242 103.396C257.294 104.036 256.247 104.354 255.096 104.354C254.19 104.354 253.393 104.109 252.7 103.625C252.018 103.125 251.497 102.474 251.138 101.666L250.95 101.979C251.075 102.911 251.158 103.833 251.2 104.75C251.252 105.677 251.289 106.614 251.304 107.562C251.315 108.364 251.106 108.984 250.679 109.416C250.247 109.843 249.638 110.062 248.846 110.062H248.783C247.117 110.062 246.283 109.229 246.283 107.562C246.309 105.588 246.33 103.661 246.346 101.771C246.356 99.8695 246.367 97.9163 246.367 95.9163C246.367 94.9476 246.356 93.9997 246.346 93.083C246.346 92.1559 246.336 91.2236 246.325 90.2913C246.294 89.4893 246.497 88.8695 246.929 88.4372C247.356 88.0101 247.976 87.7913 248.783 87.7913H248.846C250.497 87.7913 251.325 88.0153 251.325 88.458V89.1455C251.742 88.7184 252.247 88.3486 252.846 88.0413C253.44 87.7393 254.158 87.583 254.992 87.583ZM253.742 100.396C254.242 100.396 254.705 100.281 255.138 100.041C255.565 99.7913 255.914 99.3486 256.179 98.708C256.44 98.057 256.575 97.1351 256.575 95.9372C256.575 94.3851 256.315 93.2913 255.804 92.6663C255.289 92.0413 254.559 91.7288 253.617 91.7288C253.075 91.7288 252.617 91.8226 252.242 91.9997C251.867 92.182 251.533 92.4736 251.242 92.8747C251.268 92.9893 251.283 93.1247 251.283 93.2913C251.283 93.458 251.283 93.7497 251.283 94.1663C251.294 94.583 251.294 95.2236 251.283 96.083C251.252 96.4059 251.242 96.7184 251.242 97.0205C251.242 97.3278 251.242 97.6351 251.242 97.9372L251.283 97.9163C251.309 98.8747 251.559 99.5309 252.033 99.8747C252.518 100.224 253.086 100.396 253.742 100.396Z" fill="black"/>
<path d="M273.409 87.583C273.685 87.6403 273.972 87.7861 274.264 88.0205C274.555 88.2601 274.795 88.6611 274.993 89.2288C275.087 89.5622 275.139 89.9111 275.139 90.2705C275.139 90.6195 275.087 90.958 274.993 91.2913C274.795 92.0413 274.503 92.5413 274.118 92.7913C273.727 93.0413 273.347 93.0986 272.972 92.958C272.607 92.833 272.222 92.7705 271.805 92.7705C270.524 92.7705 269.618 93.583 269.076 95.208V95.9163C269.076 96.2393 269.066 96.5622 269.055 96.8955C269.055 97.2184 269.055 97.5361 269.055 97.8538C269.055 98.4684 269.055 99.0726 269.055 99.6663C269.066 100.25 269.081 100.864 269.097 101.5C269.165 103.198 268.357 104.041 266.68 104.041H266.576C264.92 104.041 264.097 103.208 264.097 101.541C264.107 100.614 264.118 99.682 264.118 98.7497C264.128 97.8226 264.139 96.8747 264.139 95.9163C264.139 94.9476 264.128 93.9997 264.118 93.083C264.118 92.1559 264.107 91.2236 264.097 90.2913C264.097 88.6247 264.889 87.7913 266.472 87.7913C268.055 87.7913 268.847 88.4163 268.847 89.6663V91.583L268.93 91.6247C269.165 90.4163 269.607 89.432 270.264 88.6663C270.915 87.9059 271.722 87.5205 272.68 87.5205C272.831 87.5205 272.972 87.5309 273.097 87.5413C273.232 87.557 273.337 87.5726 273.409 87.583Z" fill="black"/>
<path d="M284.191 104.395C279.159 104.395 276.649 101.593 276.649 95.9788C276.649 90.3694 279.159 87.5621 284.191 87.5621C289.133 87.5621 291.607 90.3694 291.607 95.9788C291.607 101.593 289.133 104.395 284.191 104.395ZM284.191 100.812C284.649 100.812 285.055 100.682 285.42 100.416C285.779 100.156 286.066 99.6767 286.274 98.9788C286.482 98.2705 286.586 97.2705 286.586 95.9788C286.586 94.1767 286.399 92.9163 286.024 92.208C285.649 91.4892 285.034 91.1246 284.191 91.1246C283.258 91.1246 282.597 91.4892 282.211 92.208C281.836 92.9163 281.649 94.1767 281.649 95.9788C281.649 97.2705 281.753 98.2705 281.961 98.9788C282.18 99.6767 282.482 100.156 282.857 100.416C283.243 100.682 283.691 100.812 284.191 100.812Z" fill="black"/>
<path d="M306.318 82.6663C307.985 82.6663 308.818 83.4944 308.818 85.1454C308.802 87.0621 308.782 88.9579 308.756 90.8329C308.74 92.6975 308.735 94.5986 308.735 96.5413C308.735 97.4058 308.735 98.2444 308.735 99.0621C308.745 99.885 308.766 100.708 308.797 101.541C308.823 103.208 308.157 104.041 306.797 104.041C305.422 104.041 304.636 103.76 304.443 103.187C304.401 103.036 304.36 102.89 304.318 102.75C304.287 102.599 304.256 102.453 304.214 102.312C303.823 102.843 303.287 103.312 302.61 103.729C301.943 104.145 301.11 104.354 300.11 104.354C298.927 104.354 297.86 104.109 296.901 103.625C295.943 103.14 295.177 102.312 294.61 101.145C294.052 99.9683 293.776 98.3486 293.776 96.2913C293.776 94.3642 294.052 92.7496 294.61 91.4579C295.162 90.1663 295.912 89.2027 296.86 88.5621C297.818 87.9111 298.87 87.5829 300.026 87.5829C300.818 87.5829 301.532 87.7808 302.172 88.1663C302.808 88.5569 303.323 89.0829 303.714 89.7496C303.698 88.9892 303.693 88.2288 303.693 87.4788C303.693 86.7183 303.677 85.9371 303.651 85.1454C303.651 83.4944 304.485 82.6663 306.151 82.6663H306.318ZM301.485 100.229C301.995 100.229 302.412 100.161 302.735 100.02C303.068 99.8694 303.365 99.6454 303.631 99.3538C303.631 98.885 303.631 98.4163 303.631 97.9579C303.641 97.4996 303.662 97.0308 303.693 96.5413C303.703 95.9736 303.714 95.4058 303.714 94.8329C303.714 94.2652 303.714 93.7079 303.714 93.1663C303.532 92.5569 303.224 92.135 302.797 91.8954C302.365 91.6611 301.886 91.5413 301.36 91.5413C300.86 91.5413 300.391 91.6663 299.964 91.9163C299.532 92.1558 299.183 92.5933 298.922 93.2288C298.657 93.8694 298.526 94.7913 298.526 95.9996C298.526 97.5413 298.782 98.635 299.297 99.2704C299.808 99.9111 300.537 100.229 301.485 100.229Z" fill="black"/>
<path d="M324.003 87.8121C325.67 87.8121 326.503 88.6455 326.503 90.3121C326.487 91.3538 326.472 92.3903 326.461 93.4163C326.446 94.4476 326.441 95.4892 326.441 96.5413C326.441 97.3746 326.446 98.208 326.461 99.0413C326.472 99.8746 326.482 100.708 326.482 101.541C326.493 102.349 326.321 102.968 325.961 103.395C325.612 103.828 325.118 104.041 324.482 104.041C323.092 104.041 322.274 103.604 322.024 102.729C321.899 102.229 321.805 101.765 321.753 101.333C321.305 102.291 320.67 103.036 319.836 103.562C319.003 104.088 318.008 104.354 316.857 104.354C315.899 104.354 315.055 104.156 314.336 103.77C313.612 103.385 313.055 102.75 312.67 101.875C312.295 100.989 312.112 99.8017 312.128 98.3121C312.17 96.9528 312.175 95.6194 312.149 94.3121C312.133 92.9944 312.118 91.6611 312.107 90.3121C312.107 88.6455 312.93 87.8121 314.586 87.8121H314.774C316.425 87.8121 317.253 88.6455 317.253 90.3121C317.237 91.5101 317.222 92.6819 317.211 93.833C317.211 94.9892 317.211 96.1663 317.211 97.3746C317.211 98.3226 317.378 99.0309 317.711 99.4996C318.045 99.9736 318.503 100.198 319.086 100.166C319.763 100.156 320.316 99.8434 320.732 99.2288C321.159 98.6194 321.378 97.7236 321.378 96.5413C321.404 95.4892 321.409 94.4476 321.399 93.4163C321.399 92.3903 321.388 91.3538 321.378 90.3121C321.347 89.5101 321.55 88.8903 321.982 88.458C322.409 88.0309 323.029 87.8121 323.836 87.8121H324.003Z" fill="black"/>
<path d="M344.097 101.291C344.373 102.125 344.315 102.791 343.93 103.291C343.539 103.791 342.894 104.041 341.993 104.041H341.159C339.701 104.041 338.763 103.281 338.347 101.75C338.039 100.599 337.748 99.708 337.472 99.083C337.19 98.458 336.878 98.0309 336.534 97.7913C336.201 97.5413 335.789 97.4163 335.305 97.4163H334.868C334.868 98.0986 334.868 98.7861 334.868 99.4788C334.868 100.161 334.873 100.849 334.888 101.541C334.888 103.208 334.055 104.041 332.388 104.041H332.222C330.555 104.041 329.722 103.208 329.722 101.541C329.748 100.125 329.769 98.7288 329.784 97.3538C329.795 95.9684 329.805 94.5517 329.805 93.1038C329.805 91.8121 329.795 90.5153 329.784 89.208C329.769 87.8903 329.748 86.583 329.722 85.2913C329.722 83.6403 330.555 82.8121 332.222 82.8121H332.388C334.055 82.8121 334.888 83.6403 334.888 85.2913C334.888 86.583 334.888 87.8903 334.888 89.208C334.888 90.5153 334.878 91.8121 334.868 93.1038V94.2496C335.56 93.8642 336.17 93.2861 336.701 92.5205C337.227 91.7601 337.638 90.9267 337.93 90.0205C338.164 89.3017 338.493 88.7496 338.909 88.3746C339.336 87.9996 339.92 87.8121 340.659 87.8121H341.263C342.18 87.8121 342.852 88.0934 343.284 88.6455C343.711 89.1871 343.701 89.8851 343.243 90.7288C342.701 91.7288 342.06 92.6038 341.326 93.3538C340.586 94.1038 339.836 94.6403 339.076 94.958V95.0621C339.935 95.1611 340.649 95.3955 341.222 95.7705C341.789 96.1455 342.289 96.7653 342.722 97.6246C343.164 98.4892 343.623 99.708 344.097 101.291Z" fill="black"/>
<path d="M355.06 100.5C355.92 100.458 356.586 100.5 357.06 100.625C357.529 100.75 357.795 101.12 357.852 101.729C357.904 102.354 357.8 102.896 357.539 103.354C357.274 103.802 356.821 104.083 356.185 104.208C355.602 104.333 354.956 104.396 354.248 104.396C353.039 104.396 351.982 104.208 351.081 103.833C350.19 103.458 349.503 102.854 349.018 102.021C348.545 101.177 348.321 100.041 348.352 98.6247C348.362 97.7653 348.373 96.8643 348.373 95.9164C348.373 94.9737 348.373 94.0362 348.373 93.1039V91.583H348.352C346.685 91.583 345.852 90.9528 345.852 89.6872C345.852 88.4372 346.274 87.8122 347.123 87.8122H348.352C348.352 87.5622 348.341 87.3226 348.331 87.083C348.315 86.8487 348.31 86.6039 348.31 86.3539C348.31 84.9112 348.998 83.9737 350.373 83.5414C351.19 83.2653 351.852 83.2862 352.352 83.6039C352.852 83.9112 353.102 84.4528 353.102 85.2289V87.8122H355.164C356.815 87.8122 357.643 88.432 357.643 89.6664C357.643 90.906 356.893 91.5205 355.393 91.5205L353.102 91.5414C353.102 91.7914 353.091 92.0518 353.081 92.3122C353.081 92.5622 353.081 92.8278 353.081 93.1039C353.05 93.9372 353.039 94.781 353.039 95.6247C353.039 96.458 353.039 97.2601 353.039 98.0205C353.039 99.6872 353.711 100.515 355.06 100.5Z" fill="black"/>
<path d="M371.837 104.333C370.878 104.333 370.003 104.177 369.212 103.875C368.42 103.557 367.784 103.073 367.316 102.416C366.857 101.765 366.628 100.927 366.628 99.8955C366.628 98.0621 367.404 96.6819 368.962 95.7496C370.514 94.8226 372.941 94.4059 376.232 94.4996V93.5205C376.232 92.4371 376.076 91.7028 375.774 91.3121C375.482 90.9267 375.008 90.7288 374.357 90.7288C373.993 90.7288 373.654 90.7861 373.337 90.8955C373.029 90.9944 372.784 91.1819 372.607 91.458C372.326 91.8903 372.092 92.2653 371.899 92.583C371.717 92.8903 371.508 93.1246 371.274 93.2913C371.05 93.458 370.691 93.5413 370.191 93.5413H369.899C369.076 93.5413 368.42 93.3226 367.92 92.8746C367.42 92.4163 367.284 91.7861 367.524 90.9788C367.857 89.8278 368.607 88.9736 369.774 88.4163C370.951 87.8486 372.613 87.5621 374.753 87.5621C379.113 87.5621 381.295 89.5153 381.295 93.4163C381.295 95.1819 381.295 96.7236 381.295 98.0413C381.305 99.3486 381.337 100.5 381.378 101.5C381.42 102.323 381.238 102.953 380.837 103.395C380.446 103.828 379.857 104.041 379.066 104.041H378.795C377.305 104.041 376.508 103.807 376.399 103.333C376.357 103.224 376.321 103.114 376.295 103C376.279 102.875 376.258 102.75 376.232 102.625C375.649 103.198 374.972 103.625 374.212 103.916C373.446 104.192 372.654 104.333 371.837 104.333ZM373.399 101.02C374.066 101.02 374.628 100.89 375.087 100.625C375.555 100.364 375.962 99.9892 376.295 99.4996V96.8538C375.42 96.8694 374.597 96.9371 373.837 97.0621C373.071 97.1767 372.451 97.3903 371.982 97.708C371.524 98.0153 371.295 98.4788 371.295 99.1038C371.295 99.6611 371.472 100.119 371.837 100.479C372.196 100.843 372.717 101.02 373.399 101.02Z" fill="black"/>
<path d="M391.197 104.333C390.083 104.333 389.098 104.104 388.239 103.645C387.39 103.187 386.676 102.432 386.093 101.375C385.51 100.323 385.051 98.9059 384.718 97.1246C384.395 95.3486 384.202 93.1403 384.135 90.4996C384.103 89.6403 384.312 88.9788 384.76 88.5205C385.202 88.0517 385.822 87.8121 386.614 87.8121H386.885C388.551 87.8121 389.385 88.7184 389.385 90.5205C389.426 93.0778 389.515 95.0726 389.655 96.4996C389.807 97.9163 390.036 98.9059 390.343 99.458C390.661 100.015 391.062 100.291 391.551 100.291C391.937 100.291 392.286 100.177 392.593 99.9371C392.895 99.7028 393.14 99.2496 393.322 98.583C393.515 97.9163 393.645 96.9476 393.718 95.6663C393.801 94.3903 393.822 92.7028 393.78 90.6038C393.739 88.7444 394.489 87.8121 396.03 87.8121C396.78 87.8121 397.353 88.3434 397.76 89.3955C398.176 90.4528 398.291 91.9788 398.114 93.9788C397.874 96.5778 397.458 98.6403 396.864 100.166C396.28 101.682 395.51 102.76 394.551 103.395C393.603 104.02 392.489 104.333 391.197 104.333Z" fill="black"/>
<path d="M411.693 104.041C410.037 104.041 409.214 103.208 409.214 101.541V86.208C409.214 84.5413 410.037 83.708 411.693 83.708H412.235C413.886 83.708 414.714 84.5413 414.714 86.208V101.541C414.714 103.208 413.886 104.041 412.235 104.041H411.693Z" fill="black"/>
<path d="M433.231 101.52C433.231 103.203 432.398 104.041 430.731 104.041H430.648C428.981 104.041 428.148 103.203 428.148 101.52C428.174 100.177 428.189 98.8903 428.189 97.6663C428.2 96.4476 428.21 95.3278 428.21 94.3121C428.21 93.3538 428.043 92.6871 427.71 92.3121C427.377 91.9371 426.877 91.7601 426.21 91.7705C425.085 91.8121 424.273 92.3851 423.773 93.4788C423.773 93.8694 423.762 94.2809 423.752 94.708C423.752 95.1246 423.752 95.5361 423.752 95.9371C423.736 96.8955 423.731 97.8434 423.731 98.7705C423.741 99.6871 423.757 100.614 423.773 101.541C423.773 103.208 422.944 104.041 421.293 104.041H421.106C419.45 104.041 418.627 103.208 418.627 101.541C418.637 100.614 418.648 99.6871 418.648 98.7705C418.658 97.8434 418.668 96.8955 418.668 95.9371C418.668 94.9684 418.658 94.0153 418.648 93.083C418.648 92.1559 418.637 91.2236 418.627 90.2913C418.627 88.6246 419.444 87.7913 421.085 87.7913C421.861 87.7913 422.46 87.9111 422.877 88.1455C423.304 88.385 423.507 88.7236 423.481 89.1663C423.481 89.3642 423.481 89.5778 423.481 89.8121C423.481 90.0361 423.481 90.2913 423.481 90.583H423.585C424.137 89.5413 424.84 88.7809 425.689 88.2913C426.549 87.8069 427.549 87.5621 428.689 87.5621C430.231 87.5621 431.382 88.0934 432.148 89.1455C432.908 90.2028 433.257 91.9371 433.189 94.3538C433.174 95.3851 433.168 96.4996 433.168 97.708C433.179 98.9163 433.2 100.187 433.231 101.52Z" fill="black"/>
<path d="M438.946 85.7705C437.863 85.7705 437.081 85.5778 436.613 85.1872C436.139 84.7861 435.904 84.1455 435.904 83.2705C435.904 82.3955 436.139 81.7653 436.613 81.3747C437.081 80.9736 437.863 80.7705 438.946 80.7705C440.04 80.7705 440.821 80.9736 441.279 81.3747C441.748 81.7653 441.988 82.3955 441.988 83.2705C441.988 84.1455 441.748 84.7861 441.279 85.1872C440.821 85.5778 440.04 85.7705 438.946 85.7705ZM439.029 104.041C437.363 104.041 436.529 103.208 436.529 101.541V99.0622C436.514 96.8851 436.508 95.1038 436.508 93.7288C436.508 92.3538 436.498 91.208 436.488 90.2913C436.488 88.6403 437.311 87.8122 438.967 87.8122H439.008C440.66 87.8122 441.488 88.6455 441.488 90.3122C441.488 91.3278 441.488 92.3955 441.488 93.5205C441.488 94.6351 441.477 95.6403 441.467 96.5413C441.451 97.3747 441.446 98.208 441.446 99.0413C441.456 99.8747 441.467 100.708 441.467 101.541C441.508 103.208 440.696 104.041 439.029 104.041Z" fill="black"/>
<path d="M451.525 104.333C450.41 104.333 449.426 104.104 448.567 103.645C447.718 103.187 447.004 102.432 446.421 101.375C445.838 100.323 445.379 98.9059 445.046 97.1246C444.723 95.3486 444.53 93.1403 444.463 90.4996C444.431 89.6403 444.64 88.9788 445.088 88.5205C445.53 88.0517 446.15 87.8121 446.942 87.8121H447.213C448.879 87.8121 449.713 88.7184 449.713 90.5205C449.754 93.0778 449.843 95.0726 449.983 96.4996C450.134 97.9163 450.364 98.9059 450.671 99.458C450.989 100.015 451.39 100.291 451.879 100.291C452.265 100.291 452.614 100.177 452.921 99.9371C453.223 99.7028 453.468 99.2496 453.65 98.583C453.843 97.9163 453.973 96.9476 454.046 95.6663C454.129 94.3903 454.15 92.7028 454.108 90.6038C454.067 88.7444 454.817 87.8121 456.358 87.8121C457.108 87.8121 457.681 88.3434 458.088 89.3955C458.504 90.4528 458.619 91.9788 458.442 93.9788C458.202 96.5778 457.785 98.6403 457.192 100.166C456.608 101.682 455.838 102.76 454.879 103.395C453.931 104.02 452.817 104.333 451.525 104.333Z" fill="black"/>
<path d="M466.127 104.333C465.168 104.333 464.293 104.177 463.502 103.875C462.71 103.557 462.074 103.073 461.606 102.416C461.147 101.765 460.918 100.927 460.918 99.8955C460.918 98.0621 461.694 96.6819 463.252 95.7496C464.804 94.8226 467.231 94.4059 470.522 94.4996V93.5205C470.522 92.4371 470.366 91.7028 470.064 91.3121C469.772 90.9267 469.298 90.7288 468.647 90.7288C468.283 90.7288 467.944 90.7861 467.627 90.8955C467.319 90.9944 467.074 91.1819 466.897 91.458C466.616 91.8903 466.382 92.2653 466.189 92.583C466.007 92.8903 465.798 93.1246 465.564 93.2913C465.34 93.458 464.981 93.5413 464.481 93.5413H464.189C463.366 93.5413 462.71 93.3226 462.21 92.8746C461.71 92.4163 461.574 91.7861 461.814 90.9788C462.147 89.8278 462.897 88.9736 464.064 88.4163C465.241 87.8486 466.903 87.5621 469.043 87.5621C473.403 87.5621 475.585 89.5153 475.585 93.4163C475.585 95.1819 475.585 96.7236 475.585 98.0413C475.595 99.3486 475.627 100.5 475.668 101.5C475.71 102.323 475.528 102.953 475.127 103.395C474.736 103.828 474.147 104.041 473.356 104.041H473.085C471.595 104.041 470.798 103.807 470.689 103.333C470.647 103.224 470.611 103.114 470.585 103C470.569 102.875 470.548 102.75 470.522 102.625C469.939 103.198 469.262 103.625 468.502 103.916C467.736 104.192 466.944 104.333 466.127 104.333ZM467.689 101.02C468.356 101.02 468.918 100.89 469.377 100.625C469.845 100.364 470.252 99.9892 470.585 99.4996V96.8538C469.71 96.8694 468.887 96.9371 468.127 97.0621C467.361 97.1767 466.741 97.3903 466.272 97.708C465.814 98.0153 465.585 98.4788 465.585 99.1038C465.585 99.6611 465.762 100.119 466.127 100.479C466.486 100.843 467.007 101.02 467.689 101.02Z" fill="black"/>
</svg>
